<?xml version="1.0" encoding="UTF-8"?>
<svg xmlns="http://www.w3.org/2000/svg" version="1.1" viewBox="0 0 500 500">
  <!-- Generator: Adobe Illustrator 29.5.0, SVG Export Plug-In . SVG Version: 2.1.0 Build 137)  -->
  <defs>
    <style>
      .st0 {
        fill: #95a1b3;
      }

      .st1 {
        fill: #b5f6f8;
      }

      .st2 {
        fill: #b2b8c4;
      }

      .st3 {
        fill: #6f818c;
      }

      .st4 {
        fill: #ffffa1;
      }

      .st5 {
        fill: #dd528b;
      }

      .st6 {
        fill: #5f5c5d;
      }

      .st7 {
        fill: #f9cb71;
      }

      .st8 {
        fill: #fff;
      }

      .st9 {
        fill: #ed79a5;
      }

      .st10 {
        fill: #63d3d6;
      }

      .st11 {
        fill: #e6fcfc;
      }

      .st12 {
        fill: #767576;
      }

      .st13 {
        fill: #e2e2e2;
      }
    </style>
  </defs>
  <g id="BACKGROUND">
    <rect class="st8" width="500" height="500"/>
  </g>
  <g id="OBJECTS">
    <g>
      <ellipse class="st2" cx="334.2" cy="413.62" rx="36.45" ry="27.08"/>
      <path class="st8" d="M450.65,339.01h-12.23s0,0,0,0h-83.21c-5.81,0-10.53,4.71-10.53,10.53v68.82c0,5.81,4.72,10.53,10.53,10.53h32.83l-9.3,6.8c-4.06,2.97-1.96,9.4,3.07,9.4h46.55c5.03,0,7.13-6.43,3.07-9.4l-9.3-6.8h16.29s12.23,0,12.23,0c5.81,0,10.53-4.71,10.53-10.53v-68.81c0-5.81-4.71-10.53-10.53-10.53Z"/>
      <path class="st11" d="M353.84,353.28v53.43c0,2.82,2.28,5.09,5.1,5.09h75.73c2.82,0,5.1-2.27,5.1-5.09v-53.43c0-2.82-2.28-5.1-5.1-5.1h-75.73c-2.82,0-5.1,2.28-5.1,5.1Z"/>
      <g>
        <path class="st7" d="M407.58,403.54c-6.55,0-11.5-9.67-11.5-22.49s4.94-22.49,11.5-22.49,11.5,9.67,11.5,22.49-4.94,22.49-11.5,22.49ZM407.58,363.31c-2.75,0-6.76,6.91-6.76,17.75,0,5.04.87,9.75,2.46,13.24,1.26,2.78,2.9,4.5,4.29,4.5,2.75,0,6.76-6.91,6.76-17.75,0-5.04-.87-9.75-2.46-13.24-1.26-2.78-2.9-4.5-4.29-4.5Z"/>
        <path class="st10" d="M418.07,396.39c-4.68,0-10.51-1.72-16.39-5.11-11.1-6.41-16.94-15.64-13.57-21.47,3.37-5.83,14.28-5.39,25.38,1.02,4.95,2.86,9.1,6.48,11.7,10.2,2.95,4.24,3.62,8.24,1.87,11.27-1.58,2.74-4.84,4.1-8.99,4.1ZM397.08,370.46c-2.51,0-4.25.65-4.86,1.72-1.48,2.56,2.31,9.5,11.83,14.99,9.52,5.5,17.43,5.31,18.9,2.75.75-1.3.13-3.62-1.66-6.18-2.2-3.16-5.82-6.29-10.18-8.81-5.54-3.2-10.54-4.47-14.04-4.47Z"/>
        <path class="st5" d="M397.21,396.45c-4.2,0-7.49-1.38-9.1-4.16-3.4-5.88,2.42-15.15,13.52-21.56,11.1-6.41,22.03-6.81,25.43-.93,3.4,5.88-2.42,15.15-13.52,21.56-5.85,3.38-11.65,5.09-16.33,5.09ZM417.97,370.41c-3.51,0-8.47,1.26-13.97,4.44-9.52,5.5-13.28,12.49-11.78,15.08,1.5,2.59,9.43,2.83,18.95-2.66,9.52-5.5,13.28-12.49,11.78-15.08-.63-1.1-2.41-1.77-4.98-1.77Z"/>
      </g>
      <g>
        <path class="st6" d="M373.08,403.53h-11.18c-1.19,0-2.16-.97-2.16-2.16s.97-2.16,2.16-2.16h11.18c1.19,0,2.16.97,2.16,2.16s-.97,2.16-2.16,2.16Z"/>
        <path class="st6" d="M373.08,394.82h-11.18c-1.19,0-2.16-.97-2.16-2.16s.97-2.16,2.16-2.16h11.18c1.19,0,2.16.97,2.16,2.16s-.97,2.16-2.16,2.16Z"/>
        <path class="st6" d="M373.08,386.11h-11.18c-1.19,0-2.16-.97-2.16-2.16s.97-2.16,2.16-2.16h11.18c1.19,0,2.16.97,2.16,2.16s-.97,2.16-2.16,2.16Z"/>
      </g>
      <path class="st13" d="M434.68,414.19h-75.74c-4.12,0-7.48-3.35-7.48-7.48v-53.44c0-4.12,3.35-7.48,7.48-7.48h75.74c4.12,0,7.48,3.35,7.48,7.48v53.44c0,4.12-3.35,7.48-7.48,7.48ZM358.94,350.56c-1.5,0-2.72,1.22-2.72,2.72v53.44c0,1.5,1.22,2.72,2.72,2.72h75.74c1.5,0,2.72-1.22,2.72-2.72v-53.44c0-1.5-1.22-2.72-2.72-2.72h-75.74Z"/>
      <path class="st13" d="M450.65,336.64h-95.44c-7.11,0-12.9,5.79-12.9,12.9v68.81c0,7.11,5.79,12.9,12.9,12.9h25.56l-3.43,2.51c-2.69,1.97-3.77,5.3-2.73,8.47,1.04,3.17,3.86,5.22,7.2,5.22l27.12-2.38,19.43,2.38c3.34,0,6.17-2.05,7.2-5.22,1.04-3.17-.03-6.5-2.73-8.47l-3.43-2.51h21.25c7.11,0,12.9-5.79,12.9-12.9v-68.81c0-7.11-5.79-12.9-12.9-12.9ZM430.03,437.6c1.54,1.12,1.17,2.7,1.02,3.16-.15.46-.78,1.95-2.69,1.95l-23.28,2.71-23.28-2.71c-1.9,0-2.54-1.49-2.69-1.95-.15-.46-.52-2.04,1.02-3.16l8.67-6.34h32.55l8.67,6.34ZM458.8,418.36c0,4.49-3.66,8.15-8.15,8.15h-2.24c1.82-2.22,2.91-5.06,2.91-8.15v-62.99c0-1.31-1.06-2.38-2.38-2.38s-2.38,1.06-2.38,2.38v62.99c0,4.49-3.66,8.15-8.15,8.15h-83.21c-4.49,0-8.15-3.66-8.15-8.15v-68.81c0-4.49,3.66-8.15,8.15-8.15h95.44c4.49,0,8.15,3.66,8.15,8.15v68.81Z"/>
      <g>
        <path class="st2" d="M374.99,330.14c-6.2-.48-11.4,1.31-11.88,7.51-.48,6.2,4.16,11.62,10.36,12.1,6.2.48,11.62-4.16,12.1-10.36.48-6.2-4.38-8.77-10.58-9.25Z"/>
        <path class="st3" d="M374.37,352.15c-.36,0-.71-.01-1.07-.04-7.5-.58-13.12-7.15-12.54-14.65.29-3.71,2.02-6.53,5.02-8.16,2.41-1.31,5.57-1.83,9.4-1.53h0c12.27.95,13.01,8.57,12.76,11.8-.28,3.63-1.96,6.94-4.73,9.31-2.49,2.13-5.6,3.28-8.85,3.28ZM373.16,332.44c-2.11,0-3.86.35-5.11,1.03-1.58.86-2.4,2.25-2.56,4.36-.38,4.88,3.29,9.17,8.17,9.54,2.37.18,4.66-.57,6.46-2.11,1.8-1.54,2.9-3.7,3.08-6.06.11-1.49.46-6.01-8.39-6.69h0c-.57-.04-1.12-.07-1.65-.07Z"/>
      </g>
      <path class="st8" d="M345.17,439.11c0-6.14-5.67-11.11-12.65-11.11s-12.65,4.97-12.65,11.11,5.67,5.97,12.65,5.97,12.65.17,12.65-5.97Z"/>
      <path class="st13" d="M333.57,446.66c-.17,0-.34,0-.51,0h-.53s-.53,0-.53,0c-3.5,0-6.79.8-9.35-.07-3.36-1.15-5.14-3.73-5.14-7.48,0-7.44,6.74-13.49,15.03-13.49s15.03,6.05,15.03,13.49c0,3.74-1.78,6.33-5.14,7.48-2.43.83-5.54.07-8.84.07ZM332.52,442.71h.54c3.09,0,6,0,7.82-.61,1.25-.43,1.92-1.03,1.92-2.98,0-4.82-4.61-8.73-10.28-8.73s-10.28,3.92-10.28,8.73c0,1.95.68,2.55,1.92,2.98,1.81.62,4.73.62,7.82.61h.54Z"/>
      <path class="st2" d="M304.04,397.47c-11.18,17.14-15.23,40.3-3.56,43.23,11.67,2.93,36.17-1.73,36.17-13.91s-19.11-14.49-30.34-1.8l-2.27-27.52Z"/>
      <path class="st3" d="M308.81,444.03c-3.32,0-6.41-.35-8.95-1.04-3.5-.95-6.1-3.4-7.51-7.09-3.47-9.09.61-25.8,9.7-39.73.72-1.1,2.19-1.41,3.29-.69,1.1.72,1.41,2.19.69,3.29-8.19,12.55-12.16,27.79-9.24,35.44.87,2.27,2.28,3.65,4.31,4.2,7.91,2.14,22.14.42,29.33-5.08,2.55-1.96,3.85-4.15,3.85-6.54,0-4.45-3.24-6.34-5.17-7.07-5.57-2.11-14.57-.44-21.01,6.84-.87.98-2.37,1.07-3.35.2-.98-.87-1.07-2.37-.2-3.35,3.58-4.05,8.11-6.94,13.1-8.36,4.64-1.32,9.31-1.24,13.16.22,5.24,1.98,8.24,6.18,8.24,11.52,0,3.88-1.98,7.45-5.71,10.31-6.1,4.67-16.05,6.93-24.5,6.93Z"/>
      <path class="st6" d="M441.15,447.46h-156.42c-1.31,0-2.38-1.06-2.38-2.38s1.06-2.38,2.38-2.38h156.42c1.31,0,2.38,1.06,2.38,2.38s-1.06,2.38-2.38,2.38Z"/>
      <g>
        <path class="st2" d="M355.71,285.07c-8.38-4.94-26.49,12.66-34.32,20.95-4.83.43-10.88,1.65-17.71,3.45-6.85,1.73-12.73,3.59-17.16,5.56-10.87-3.47-35.23-10.1-40.17-1.72-4.91,8.32,7.33,24.53,13.3,31.62-2.59,8.93-2.07,17.85-.19,25.16,1.63,6.32,4.01,12.43,7.15,18.35,6.13,11.55,18.31,18.5,31.37,17.81,10.09-.54,19.92-2.04,29.51-4.52,9.59-2.47,18.92-5.92,28.01-10.33,11.76-5.72,19.06-17.69,18.83-30.77-.12-6.7-.99-13.21-2.62-19.52-1.89-7.3-5.75-15.36-12.33-21.92,1.78-9.08,4.65-29.21-3.67-34.11Z"/>
        <g>
          <path class="st0" d="M311.63,312.22c2.7,10.46,1.84,19.72-1.9,20.68-3.75.97-8.98-6.72-11.68-17.18-.37-1.43-.67-2.84-.91-4.21,4.36-1.34,8.77-2.48,13.24-3.41.46,1.31.87,2.69,1.24,4.11Z"/>
          <g>
            <path class="st0" d="M296.17,312.55c2.7,10.45,1.85,19.71-1.9,20.68-3.6.93-8.6-6.19-11.37-16.07,2.17-1.21,4.47-2.26,6.87-3.15,2.06-.75,4.13-1.47,6.22-2.13.07.22.12.44.18.66Z"/>
            <path class="st0" d="M325.57,306.05c2.38,10.02,1.47,18.72-2.15,19.65-3.75.97-8.97-6.73-11.67-17.18-.06-.22-.11-.44-.16-.67,2.46-.5,4.95-.93,7.44-1.3,2.2-.33,4.38-.49,6.55-.51Z"/>
          </g>
        </g>
        <path class="st8" d="M352.06,303.17s1.71,2.17,2.6,4.87c.82,2.49-.21,4.83-2,6.15-5.44-3.7-11.64-6.26-18.2-7.47-.3-1.39-.07-2.89.79-4.2,3.44-5.25,8.53-11.27,13.39-10.62,8.48,1.15,3.42,11.25,3.42,11.25Z"/>
        <path class="st8" d="M258.3,327.37s-.45,2.73.08,5.52c.49,2.58,2.52,4.12,4.73,4.42,2.97-5.87,7.15-11.11,12.31-15.34-.41-1.36-1.34-2.57-2.72-3.29-5.56-2.93-12.92-5.74-16.86-2.81-6.86,5.11,2.46,11.5,2.46,11.5Z"/>
        <path class="st3" d="M374.02,340.5c-1.41-5.47-4.7-14.36-12.07-22.11.9-4.87,1.85-11.57,1.76-17.88-.13-9.03-2.42-14.92-6.79-17.5-8.92-5.26-24.72,8.2-36.64,20.72-4.61.48-10.36,1.63-17.18,3.42-6.85,1.74-12.44,3.52-16.71,5.33-5.88-1.85-14.18-4.13-21.88-5.13-10.89-1.41-17.5.14-20.21,4.73-5.32,9.02,5.3,24.4,12.72,33.39-2.7,10.35-1.27,19.72.14,25.19,1.67,6.48,4.15,12.83,7.36,18.87,6.24,11.76,18.55,19.11,31.73,19.11.62,0,1.24-.02,1.87-.05,4.63-.25,9.28-.7,13.81-1.35,1.3-.19,2.2-1.39,2.01-2.69-.19-1.3-1.39-2.2-2.69-2.01-4.39.63-8.89,1.07-13.38,1.31-12.03.63-23.47-5.86-29.15-16.55-3.03-5.72-5.37-11.72-6.95-17.83-1.74-6.74-3.52-20.01,4.1-33.09.66-1.13.28-2.59-.86-3.25-1.13-.66-2.59-.28-3.25.86-1.19,2.04-2.16,4.08-2.97,6.1-9.04-11.54-13.01-21.17-10.4-25.6,2.5-4.24,14.78-3.74,31.92,1.13-2.27,1.4-4.41,2.89-6.38,4.47-1.02.82-1.19,2.32-.37,3.34.47.59,1.16.89,1.86.89.52,0,1.05-.17,1.48-.52,2.16-1.73,4.56-3.37,7.12-4.87,4.08-2.38,10.89-4.79,20.26-7.17,9.33-2.45,16.47-3.64,21.18-3.53,2.97.07,5.86.35,8.59.82,1.29.22,2.52-.65,2.74-1.94.22-1.29-.65-2.52-1.94-2.74-2.48-.43-5.08-.7-7.75-.82,12.63-12.55,23.14-18.94,27.39-16.43,4.42,2.61,5.61,12.95,3.29,27.43-1.68-1.38-3.52-2.69-5.55-3.9-1.13-.67-2.58-.3-3.26.82-.67,1.13-.3,2.59.82,3.26,13,7.76,17.87,20.23,19.61,26.97,1.58,6.12,2.44,12.5,2.55,18.97.21,12.1-6.66,23.32-17.5,28.59-4.62,2.25-9.38,4.26-14.13,5.99-1.23.45-1.87,1.81-1.42,3.05.35.96,1.26,1.56,2.23,1.56.27,0,.54-.05.81-.14,4.9-1.79,9.81-3.87,14.58-6.18,12.49-6.07,20.41-19,20.17-32.95-.12-6.84-1.02-13.6-2.7-20.08Z"/>
        <g>
          <path class="st6" d="M346.96,352.81c-.9-3.48-4.44-5.57-7.92-4.67-3.48.9-5.57,4.44-4.67,7.92s4.44,5.57,7.92,4.67c3.48-.9,5.57-4.44,4.67-7.92Z"/>
          <path class="st6" d="M299.39,365.09c-.9-3.48-4.44-5.57-7.92-4.67-3.48.9-5.57,4.44-4.67,7.92.9,3.48,4.44,5.57,7.92,4.67,3.48-.9,5.57-4.44,4.67-7.92Z"/>
        </g>
        <g>
          <g>
            <path class="st0" d="M349,364.39c-1.06,0-2.02-.71-2.3-1.78-.33-1.27.44-2.57,1.71-2.89l9.95-2.57c1.27-.33,2.57.44,2.89,1.71.33,1.27-.44,2.57-1.71,2.89l-9.95,2.57c-.2.05-.4.08-.6.08Z"/>
            <path class="st0" d="M359.56,371.63c-.08,0-.16,0-.25-.01l-8.92-.91c-1.31-.13-2.25-1.3-2.12-2.61.13-1.31,1.3-2.26,2.61-2.12l8.92.91c1.31.13,2.25,1.3,2.12,2.61-.13,1.22-1.16,2.13-2.36,2.13Z"/>
          </g>
          <g>
            <path class="st0" d="M279.51,382.33c-1.06,0-2.02-.71-2.3-1.78-.33-1.27.44-2.57,1.71-2.89l9.95-2.57c1.27-.33,2.57.44,2.89,1.71.33,1.27-.44,2.57-1.71,2.89l-9.95,2.57c-.2.05-.4.08-.6.08Z"/>
            <path class="st0" d="M283.74,391.21c-.75,0-1.49-.36-1.95-1.02-.75-1.08-.48-2.56.6-3.31l7.36-5.12c1.08-.75,2.56-.48,3.31.6.75,1.08.48,2.56-.6,3.31l-7.36,5.12c-.41.29-.89.42-1.35.42Z"/>
          </g>
        </g>
        <g>
          <path class="st8" d="M327.81,345.13c-1.06,0-2.02-.71-2.3-1.78-.33-1.27.44-2.57,1.71-2.89l5.22-1.35c1.27-.33,2.57.44,2.89,1.71.33,1.27-.44,2.57-1.71,2.89l-5.22,1.35c-.2.05-.4.08-.6.08Z"/>
          <path class="st8" d="M293.46,354c-1.06,0-2.02-.71-2.3-1.78-.33-1.27.44-2.57,1.71-2.89l5.22-1.35c1.27-.33,2.57.44,2.89,1.71.33,1.27-.44,2.57-1.71,2.89l-5.22,1.35c-.2.05-.4.08-.6.08Z"/>
        </g>
        <g>
          <path class="st3" d="M327.83,359.56s1.58,7.14.31,13.19c-.8,3.78-2.72,7.13-6.84,8.03-3.79.83-6.76-1-9-3.72-4.09-4.95-5.78-12.84-5.78-12.84,1.11,2.22,3.61,3.5,6.14,2.94,2.98-.65,4.88-3.6,4.22-6.59.65,2.98,3.6,4.88,6.6,4.22,2.53-.56,4.27-2.76,4.35-5.24Z"/>
          <path class="st9" d="M328.14,372.75c-.8,3.78-2.72,7.13-6.84,8.03-3.79.83-6.76-1-9-3.72.79-3.78,2.71-7.14,6.84-8.05,3.8-.83,6.77,1.01,9.01,3.73Z"/>
          <path class="st3" d="M330.14,359.05c-.26-1.17-1.35-1.96-2.54-1.85-1.19.11-2.11,1.1-2.15,2.29-.04,1.45-1.07,2.67-2.48,2.98-1.7.37-3.39-.71-3.77-2.41,0-.02,0-.03-.01-.05,0-.01,0-.03,0-.04l-.16-.62.49-.13c1.27-.33,2.03-1.62,1.71-2.89-.33-1.27-1.63-2.03-2.89-1.71l-5.59,1.44c-1.27.33-2.03,1.62-1.71,2.89.28,1.07,1.24,1.78,2.3,1.78.2,0,.4-.02.6-.08l.49-.13.14.56c.17.82.02,1.66-.43,2.36-.46.71-1.16,1.2-1.99,1.38-1.42.31-2.86-.38-3.51-1.67-.53-1.07-1.78-1.58-2.91-1.18-1.13.4-1.79,1.57-1.54,2.74.11.51,2.75,12.48,9.66,16.93,1.77,1.14,3.65,1.71,5.62,1.71.77,0,1.55-.09,2.34-.26,2.83-.62,5.05-2.18,6.63-4.64,4.42-6.92,1.82-18.91,1.71-19.42ZM324.42,375.92c-.88,1.37-2.07,2.21-3.63,2.55-1.57.34-2.99.08-4.37-.8-2.47-1.59-4.37-4.91-5.68-8.03.79.07,1.6.02,2.41-.15,2.04-.45,3.79-1.65,4.93-3.4,1.69,1.06,3.79,1.49,5.89,1.03.81-.18,1.56-.47,2.25-.87.12,3.38-.23,7.19-1.81,9.66Z"/>
        </g>
      </g>
      <path class="st12" d="M412.55,380.7c0-2.57-2.09-4.66-4.66-4.66s-4.66,2.09-4.66,4.66,2.09,4.66,4.66,4.66,4.66-2.09,4.66-4.66Z"/>
    </g>
    <g>
      <path class="st6" d="M203.8,306.27s-.02,0-.03,0c-1.31-.01-2.36-1.09-2.35-2.4,0-.14-.07-14.27-12.23-26.45-12.17-12.19-31.81-18.36-58.38-18.36-.23,0-.45,0-.68,0h0c-1.31,0-2.37-1.06-2.38-2.37,0-1.31,1.05-2.38,2.37-2.38.23,0,.47,0,.7,0,27.95,0,48.75,6.68,61.84,19.85,13.54,13.63,13.54,29.11,13.53,29.77-.01,1.3-1.07,2.35-2.37,2.35Z"/>
      <g>
        <path class="st4" d="M207.56,318.07c-1.32,3.74-5.64,5.52-9.2,3.77-3.05-1.49-6.67-4.18-9.99-8.57-3.32-4.39-4.93-8.6-5.54-11.94-.72-3.91,2.16-7.58,6.12-7.84,4.87-.32,11.94.51,16.64,6.72,4.71,6.21,3.59,13.24,1.97,17.84Z"/>
        <path class="st7" d="M201.26,324.88c-1.36,0-2.71-.31-3.95-.91-2.77-1.36-6.9-4.07-10.84-9.26-3.94-5.2-5.43-9.91-5.98-12.94-.46-2.52.18-5.13,1.76-7.17,1.59-2.04,3.97-3.3,6.54-3.47,5.6-.37,13.39.66,18.69,7.66,5.3,7,4.18,14.78,2.31,20.07h0c-.86,2.43-2.72,4.38-5.11,5.36-1.1.45-2.26.67-3.42.67ZM190.7,295.81c-.55,0-1.09.02-1.6.05-1.22.08-2.35.68-3.1,1.65-.76.98-1.06,2.18-.84,3.39.46,2.53,1.72,6.48,5.1,10.93,3.37,4.45,6.83,6.74,9.14,7.87,1.1.54,2.34.58,3.49.11,1.14-.46,2.02-1.39,2.43-2.54,1.48-4.19,2.4-10.3-1.62-15.62-3.56-4.7-8.77-5.84-12.99-5.84ZM207.56,318.07h0,0Z"/>
        <path class="st12" d="M171.68,296.27c-1.62,1.22-7.56,5.72-9.17,6.95-7.2,5.45-6.62,18.34,1.3,28.79,7.92,10.45,20.17,14.5,27.36,9.05,1.62-1.22,7.56-5.72,9.17-6.95,7.2-5.45,6.62-18.34-1.3-28.79-7.91-10.45-20.17-14.5-27.36-9.05Z"/>
        <path class="st6" d="M183.55,345.87c-2.09,0-4.28-.37-6.54-1.12-5.62-1.86-10.98-5.87-15.1-11.31-4.12-5.43-6.53-11.68-6.8-17.6-.28-6.24,1.83-11.4,5.96-14.52l9.17-6.95h0c4.12-3.12,9.66-3.76,15.59-1.8,5.62,1.86,10.98,5.87,15.1,11.31,4.12,5.43,6.53,11.68,6.8,17.6.28,6.24-1.83,11.4-5.96,14.52l-9.17,6.95c-2.55,1.94-5.65,2.92-9.05,2.92ZM173.11,298.17l-9.17,6.95c-6.14,4.65-5.35,16.08,1.76,25.46,7.11,9.39,17.89,13.24,24.04,8.59l9.17-6.95c6.14-4.65,5.35-16.08-1.76-25.46-7.11-9.39-17.89-13.24-24.04-8.59Z"/>
      </g>
      <path class="st6" d="M42.21,320.22c-1.21,0-2.25-.92-2.36-2.16-1.32-14.16,3.25-27.79,12.86-38.38,7.02-7.74,16.64-13.82,28.57-18.06,13.43-4.78,29.86-7.24,48.83-7.31h0c1.31,0,2.37,1.06,2.37,2.37,0,1.31-1.05,2.38-2.37,2.38-34.33.14-59.89,8.37-73.91,23.82-11.75,12.94-12.34,27.33-11.65,34.75.12,1.31-.84,2.46-2.14,2.59-.08,0-.15.01-.22.01Z"/>
      <g>
        <path class="st2" d="M192.54,290.81c-7.64-7.64-31.98,6.26-42.7,13-5.31-.88-12.15-1.24-19.99-1.21-7.84-.04-14.68.33-19.99,1.21-10.72-6.74-35.06-20.63-42.7-13-7.58,7.58,1.08,28.41,5.52,37.68-5.26,8.88-7.18,18.61-7.18,26.99,0,7.24.86,14.48,2.6,21.71,2.48,10.34,9.13,18.91,18.1,23.9-.56.65,4.48,1.15,3.89,1.78-1.19,1.28-8.06,6-9.4,7.21,0,17.9,19.26,29.08,43.02,29.08s46.48-12.43,46.48-30.33c0-.9-3.51-3.88-3.61-4.77,12.42-3.89,21.94-14.03,25.03-26.88,1.74-7.23,2.6-14.47,2.6-21.71,0-8.38-1.92-18.1-7.18-26.98,4.44-9.27,13.1-30.1,5.52-37.69Z"/>
        <g>
          <path class="st0" d="M137.62,307.77c0,11.99-3.49,21.7-7.78,21.7s-7.79-9.71-7.79-21.7c0-1.64.06-3.24.19-4.77,5.06-.23,10.12-.23,15.18,0,.13,1.53.19,3.13.19,4.77Z"/>
          <g>
            <path class="st0" d="M120.91,303.83c0,11.98-3.48,21.7-7.78,21.7s-7.53-9.04-7.77-20.43c2.67-.7,5.44-1.19,8.26-1.48,2.42-.24,4.85-.43,7.27-.56,0,.26,0,.5,0,.76Z"/>
            <path class="st0" d="M154.32,305c-.22,11.43-3.62,20.53-7.77,20.53s-7.78-9.72-7.78-21.7c0-.26,0-.51,0-.76,2.78.15,5.57.38,8.36.67,2.45.26,4.85.69,7.18,1.27Z"/>
          </g>
        </g>
        <path class="st8" d="M183.58,309.26s1.24,2.81,1.44,5.96c.19,2.91-1.56,5.13-3.86,6.06-4.82-5.48-10.77-9.96-17.49-13.07.06-1.58.73-3.13,2.01-4.3,5.16-4.69,12.29-9.75,17.34-7.69,8.8,3.59.55,13.05.55,13.05Z"/>
        <path class="st8" d="M76.1,309.26s-1.24,2.81-1.44,5.96c-.19,2.91,1.56,5.13,3.86,6.06,4.82-5.48,10.77-9.96,17.49-13.07-.06-1.58-.73-3.13-2.01-4.3-5.16-4.69-12.29-9.75-17.34-7.69-8.8,3.59-.55,13.05-.55,13.05Z"/>
        <path class="st3" d="M194.21,289.13c-8.02-8.02-28.67,2.08-44.89,12.2-5.08-.77-11.59-1.14-19.47-1.1-7.88-.03-14.4.34-19.49,1.1-16.22-10.12-36.88-20.21-44.89-12.2-8.13,8.13-.94,27.6,4.52,39.25-5.8,10.37-6.87,20.84-6.87,27.1,0,7.41.9,14.9,2.66,22.27,3.59,14.95,15.61,26.58,30.62,29.62,4.48.91,9.03,1.64,13.52,2.18.1.01.19.02.29.02,1.19,0,2.21-.89,2.36-2.09.16-1.3-.77-2.49-2.07-2.64-4.36-.52-8.78-1.24-13.14-2.12-13.21-2.68-23.79-12.91-26.94-26.07-1.68-7.01-2.53-14.13-2.53-21.16,0-7.77,1.78-22.6,13.67-34.61.92-.93.92-2.44-.02-3.36-.93-.92-2.44-.92-3.36.02-1.95,1.97-3.64,4-5.12,6.06-5.48-12.49-9.07-26.24-4.21-31.1,4.05-4.05,17.19-.09,34.83,10.33-3.02.91-5.93,1.97-8.64,3.19-1.2.54-1.73,1.94-1.19,3.14.54,1.2,1.94,1.73,3.14,1.19,2.82-1.27,5.86-2.37,9.04-3.28,5.07-1.44,13.07-2.14,23.84-2.1,10.74-.05,18.75.66,23.82,2.09,3.18.91,6.23,2.01,9.05,3.28.32.14.65.21.97.21.91,0,1.77-.52,2.17-1.4.54-1.2,0-2.6-1.19-3.14-2.71-1.22-5.62-2.29-8.64-3.19,17.64-10.43,30.78-14.38,34.83-10.33,4.21,4.21,2.61,15.7-4.2,31.11-1.48-2.07-3.18-4.1-5.13-6.07-.92-.93-2.43-.94-3.36-.02-.93.92-.94,2.43-.02,3.36,11.89,12.01,13.67,26.84,13.67,34.61,0,7.03-.85,14.15-2.53,21.16-3.16,13.16-13.73,23.4-26.94,26.07-5.74,1.16-11.56,2.02-17.29,2.57-1.31.12-2.26,1.28-2.14,2.59.12,1.23,1.15,2.15,2.36,2.15.08,0,.15,0,.23-.01,5.9-.56,11.89-1.45,17.79-2.64,15.01-3.04,27.03-14.67,30.62-29.62,1.77-7.37,2.66-14.86,2.66-22.27,0-6.27-1.07-16.74-6.87-27.1,5.45-11.66,12.64-31.13,4.51-39.25Z"/>
        <g>
          <path class="st6" d="M164.33,369.46c0-3.99-3.23-7.22-7.22-7.22s-7.22,3.23-7.22,7.22,3.23,7.22,7.22,7.22,7.22-3.23,7.22-7.22Z"/>
          <circle class="st6" cx="102.57" cy="369.46" r="7.22"/>
        </g>
        <g>
          <g>
            <path class="st0" d="M175.38,382.3h-11.41c-1.31,0-2.38-1.06-2.38-2.38s1.06-2.38,2.38-2.38h11.41c1.31,0,2.38,1.06,2.38,2.38s-1.06,2.38-2.38,2.38Z"/>
            <path class="st0" d="M173.31,393.01c-.27,0-.55-.05-.82-.15l-9.33-3.46c-1.23-.46-1.86-1.82-1.4-3.05.46-1.23,1.82-1.86,3.05-1.4l9.33,3.46c1.23.46,1.86,1.82,1.4,3.05-.35.96-1.26,1.55-2.23,1.55Z"/>
          </g>
          <g>
            <path class="st0" d="M95.71,382.3h-11.41c-1.31,0-2.38-1.06-2.38-2.38s1.06-2.38,2.38-2.38h11.41c1.31,0,2.38,1.06,2.38,2.38s-1.06,2.38-2.38,2.38Z"/>
            <path class="st0" d="M86.38,393.01c-.97,0-1.87-.59-2.23-1.55-.46-1.23.17-2.6,1.4-3.05l9.33-3.46c1.23-.46,2.6.17,3.05,1.4.46,1.23-.17,2.6-1.4,3.05l-9.33,3.46c-.27.1-.55.15-.82.15Z"/>
          </g>
        </g>
        <g>
          <path class="st8" d="M152.53,355.72h-5.98c-1.31,0-2.38-1.06-2.38-2.38s1.06-2.38,2.38-2.38h5.98c1.31,0,2.38,1.06,2.38,2.38s-1.06,2.38-2.38,2.38Z"/>
          <path class="st8" d="M113.14,355.72h-5.98c-1.31,0-2.38-1.06-2.38-2.38s1.06-2.38,2.38-2.38h5.98c1.31,0,2.38,1.06,2.38,2.38s-1.06,2.38-2.38,2.38Z"/>
        </g>
        <path class="st3" d="M142.53,368.66c-1.27-.32-2.56.45-2.88,1.73-.42,1.68-1.92,2.85-3.66,2.85-2.08,0-3.78-1.69-3.78-3.77v-.98h.83c1.31,0,2.38-1.06,2.38-2.38s-1.06-2.38-2.38-2.38h-6.41c-1.31,0-2.38,1.06-2.38,2.38s1.06,2.38,2.38,2.38h.83v.98c0,2.08-1.69,3.77-3.77,3.77-1.73,0-3.24-1.17-3.66-2.85-.32-1.27-1.61-2.05-2.88-1.73-1.27.32-2.04,1.61-1.73,2.88.95,3.79,4.35,6.44,8.27,6.44,2.41,0,4.6-1.01,6.15-2.63,1.55,1.62,3.74,2.63,6.15,2.63,3.91,0,7.31-2.65,8.26-6.44.32-1.27-.45-2.56-1.73-2.88Z"/>
      </g>
      <g>
        <path class="st12" d="M60.14,295.28c2.02.14,9.46.65,11.48.79,9.01.62,15.59,11.72,14.69,24.8-.9,13.08-8.93,23.18-17.93,22.56-2.02-.14-9.46-.65-11.48-.79-9.01-.62-15.59-11.72-14.69-24.8.9-13.08,8.93-23.18,17.93-22.56Z"/>
        <path class="st6" d="M69.18,345.83c-.32,0-.64-.01-.96-.03l-11.48-.79c-5.16-.35-9.76-3.51-12.94-8.89-3.02-5.09-4.42-11.64-3.96-18.44.47-6.8,2.75-13.1,6.44-17.73,3.89-4.89,8.88-7.39,14.03-7.04h0l11.48.79c5.16.35,9.76,3.51,12.94,8.89,3.02,5.09,4.42,11.64,3.96,18.44-.47,6.8-2.75,13.1-6.44,17.73-3.65,4.59-8.25,7.07-13.07,7.07ZM59.36,297.63c-3.35,0-6.65,1.85-9.37,5.27-3.09,3.89-5.01,9.25-5.41,15.1-.81,11.75,4.79,21.74,12.48,22.26l11.48.79c3.55.25,7.1-1.62,9.99-5.25,3.09-3.89,5.01-9.25,5.41-15.1.81-11.75-4.79-21.74-12.48-22.26l-11.48-.79c-.21-.01-.41-.02-.62-.02Z"/>
        <path class="st4" d="M47,333.62c3.16,2.41,7.74,1.53,9.77-1.89,1.73-2.92,3.29-7.15,3.66-12.64s-.59-9.89-1.91-13.02c-1.54-3.66-5.96-5.16-9.42-3.2-4.25,2.4-9.71,6.97-10.24,14.75-.53,7.78,4.25,13.05,8.13,16Z"/>
        <path class="st7" d="M51.04,337.36c-1.97,0-3.9-.64-5.48-1.85-4.47-3.4-9.66-9.3-9.06-18.06.6-8.76,6.55-13.89,11.44-16.65,2.24-1.27,4.93-1.51,7.37-.68,2.44.83,4.41,2.66,5.4,5.03,1.2,2.84,2.53,7.6,2.09,14.1-.45,6.51-2.42,11.04-3.99,13.69-1.31,2.21-3.51,3.75-6.04,4.24-.57.11-1.15.17-1.73.17ZM48.44,331.73c.97.74,2.22,1.03,3.42.79,1.22-.24,2.23-.95,2.86-2.01,1.31-2.21,2.96-6.01,3.34-11.59.38-5.57-.73-9.57-1.72-11.94-.48-1.13-1.39-1.98-2.56-2.38-1.16-.4-2.44-.28-3.5.32-3.87,2.19-8.58,6.19-9.04,12.84-.46,6.65,3.66,11.26,7.2,13.95h0Z"/>
      </g>
      <g>
        <polygon class="st8" points="171.15 470.94 100.18 472.62 91.8 422.16 146.85 420.71 171.15 470.94"/>
        <path class="st13" d="M100.18,475c-1.16,0-2.15-.84-2.34-1.99l-8.39-50.47c-.11-.68.07-1.37.51-1.9.44-.53,1.08-.84,1.77-.86l55.05-1.44c.93-.03,1.79.5,2.2,1.34l24.3,50.23c.35.73.31,1.58-.11,2.27s-1.16,1.12-1.97,1.14l-70.97,1.68s-.04,0-.06,0ZM94.59,424.46l7.6,45.74,65.21-1.55-22.03-45.53-50.79,1.33Z"/>
      </g>
      <path class="st2" d="M170.18,408.84c11.25,13.83,12.4,41.26-4.99,49.74-18.82,9.18-24.36-11.38-16.16-20.29,10.91-11.85,6.74-23.85,6.74-23.85,0,0,13.05-7.26,14.41-5.6Z"/>
      <path class="st3" d="M156.48,463.29c-5.79,0-9.06-3.27-10.45-5.14-4.49-6.02-3.91-15.86,1.26-21.47,9.83-10.68,6.28-21.36,6.24-21.46-.43-1.24.22-2.59,1.46-3.02,1.24-.43,2.59.22,3.02,1.46.19.54,4.5,13.49-7.23,26.24-3.66,3.98-4.1,11.18-.95,15.42,2.86,3.84,7.94,4.24,14.31,1.14,6.57-3.21,10.73-9.84,11.73-18.67,1.32-11.71-3.3-24.7-10.98-30.89-1.02-.82-1.18-2.32-.36-3.34.82-1.02,2.32-1.18,3.34-.36,9,7.25,14.23,21.69,12.72,35.12-1.18,10.5-6.28,18.46-14.36,22.41-3.83,1.87-7.06,2.57-9.75,2.57Z"/>
      <g>
        <path class="st4" d="M124.85,444.23l1.76.3c1.8.31,3.54-.8,4.02-2.56l.47-1.72c.78-2.84.32-5.87-1.26-8.35l-19.06-29.9c-2.12-3.32-6.53-4.3-9.85-2.18h0c-3.32,2.12-4.3,6.53-2.18,9.85l19.06,29.9c1.58,2.48,4.14,4.17,7.03,4.67Z"/>
        <path class="st7" d="M127.22,446.95c-.33,0-.67-.03-1.01-.09l-1.76-.3c-3.55-.6-6.7-2.69-8.64-5.73l-19.06-29.89c-2.82-4.42-1.52-10.31,2.91-13.13,4.42-2.82,10.31-1.51,13.13,2.91l19.06,29.9c1.94,3.04,2.5,6.78,1.55,10.25l-.47,1.72c-.72,2.62-3.07,4.36-5.7,4.36ZM104.76,401.07c-.88,0-1.76.24-2.55.74-2.21,1.41-2.86,4.36-1.45,6.57l19.06,29.9c1.22,1.91,3.2,3.22,5.43,3.6h0l1.76.3c.6.1,1.17-.26,1.34-.85l.47-1.72c.6-2.18.24-4.53-.97-6.44l-19.06-29.9c-.91-1.42-2.45-2.2-4.02-2.2Z"/>
      </g>
      <path class="st2" d="M92.01,414.14s30.14,7.72,24.88,19.31c-5.27,11.59-41.71,4.46-43.51-11.59-.7-6.24,6.03-10.54,14.33-17.6.97-.83,4.3,9.88,4.3,9.88Z"/>
      <path class="st3" d="M103.46,441.57c-2.05,0-4.31-.18-6.8-.57-11.54-1.84-24.48-8.52-25.63-18.87-.74-6.58,10.09-16.77,17.85-21.3,1.13-.66,2.59-.28,3.25.86.66,1.13.28,2.59-.86,3.25-8.41,4.9-15.88,13.54-15.52,16.66.84,7.53,11.53,13.1,21.66,14.71,8.56,1.36,15.68-.22,17.33-3.84.55-1.21.54-2.33-.04-3.54-1.37-2.87-5.87-6.01-12.65-8.86-5.48-2.3-10.57-3.61-10.62-3.63-1.27-.33-2.04-1.62-1.71-2.89.33-1.27,1.62-2.04,2.89-1.71,2.24.57,21.98,5.86,26.37,15.03,1.18,2.46,1.21,5.08.08,7.56-1.69,3.72-6.62,7.14-15.6,7.14Z"/>
    </g>
    <g>
      <g>
        <path class="st2" d="M459.38,111.12c-1.75-9.21-5.88-19.51-13.52-28.18,2.95-11.12,8.14-35.84-1.79-42.6-10-6.81-33.87,13.55-44.26,23.19-6.02.14-13.62,1.16-22.24,2.84-8.63,1.6-16.08,3.42-21.73,5.5-13.2-5.18-42.86-15.38-49.67-5.39-6.76,9.92,7.1,31.01,13.93,40.29-3.93,10.87-4.02,21.96-2.27,31.18,1.51,7.97,3.97,15.74,7.38,23.34,6.67,14.82,21.21,24.42,37.46,24.62,2.61.03,5.21,0,7.79-.07-6.06,7.04-10.19,14.55-10.19,19.7,0,13.97,15.06,25.29,33.63,25.29s41.19-8.96,41.19-22.93c0-9.24-7.09-21.53-15.15-30.27,5.13-1.59,10.21-3.41,15.25-5.47,15.05-6.14,25.07-20.39,25.85-36.62.4-8.32-.16-16.45-1.67-24.42Z"/>
        <g>
          <path class="st0" d="M387.22,70.44c2.5,13.19.69,24.6-4.03,25.49-4.73.9-10.59-9.06-13.09-22.25-.34-1.81-.6-3.58-.78-5.29,5.52-1.31,11.08-2.36,16.69-3.15.46,1.66.86,3.4,1.21,5.2Z"/>
          <g>
            <path class="st0" d="M368.03,69.59c2.5,13.18.7,24.59-4.03,25.49-4.54.86-10.16-8.38-12.8-20.85,2.79-1.32,5.73-2.45,8.78-3.35,2.62-.77,5.24-1.49,7.88-2.13.06.28.12.55.17.84Z"/>
            <path class="st0" d="M405.01,63.92c2.14,12.62.3,23.33-4.26,24.2-4.73.9-10.58-9.07-13.08-22.25-.05-.28-.11-.56-.15-.84,3.09-.42,6.21-.75,9.33-1,2.75-.23,5.47-.25,8.16-.1Z"/>
          </g>
        </g>
        <path class="st8" d="M438.08,62.5s1.95,2.83,2.83,6.25c.82,3.16-.65,5.97-2.98,7.47-6.44-5.02-13.92-8.71-21.96-10.73-.26-1.75.15-3.59,1.32-5.14,4.7-6.23,11.49-13.29,17.47-12.08,10.42,2.11,3.33,14.23,3.33,14.23Z"/>
        <path class="st8" d="M319.87,84.9s-.78,3.35-.34,6.85c.39,3.24,2.79,5.32,5.5,5.86,4.16-7.03,9.77-13.2,16.51-18.02-.4-1.72-1.45-3.29-3.11-4.31-6.65-4.08-15.55-8.16-20.68-4.85-8.92,5.78,2.11,14.46,2.11,14.46Z"/>
        <path class="st3" d="M461.72,110.68c-1.3-6.89-4.67-18.18-13.24-28.36,1.53-5.96,3.29-14.29,3.69-22.19.56-11-1.72-18.32-6.75-21.75-5.27-3.59-13.31-1.83-24.6,5.39-8.18,5.23-16.34,12.25-21.96,17.43-5.76.21-13.02,1.16-21.7,2.84-8.72,1.61-15.83,3.39-21.27,5.3-7.13-2.77-17.31-6.32-26.82-8.19-13.14-2.58-21.27-1.28-24.86,3.99-7.18,10.54,4.84,30.42,13.23,42.01-4.25,12.6-3.25,24.35-1.94,31.24,1.54,8.12,4.08,16.15,7.55,23.87,3.46,7.69,8.99,14.19,16,18.8,7.02,4.62,15.18,7.12,23.6,7.22.78,0,1.57.01,2.35.01,5.54,0,11.09-.24,16.53-.71,1.31-.11,2.28-1.27,2.16-2.57-.11-1.31-1.26-2.28-2.57-2.16-6.05.53-12.25.75-18.41.68-15.2-.19-29.06-9.31-35.32-23.22-3.32-7.38-5.75-15.05-7.22-22.81-1.63-8.59-2.77-25.35,7.86-41.12.73-1.09.45-2.57-.64-3.3-1.09-.73-2.57-.45-3.3.64-1.82,2.7-3.33,5.43-4.56,8.15-10.99-15.81-15.24-28.4-11.39-34.05,3.72-5.45,19.36-3.8,41.38,4.21-3.33,1.7-6.48,3.58-9.36,5.59-1.08.75-1.34,2.23-.59,3.31.46.66,1.2,1.02,1.95,1.02.47,0,.95-.14,1.36-.43,2.85-1.99,5.97-3.84,9.3-5.51,5.29-2.65,13.99-5.1,25.85-7.3,11.83-2.3,20.81-3.19,26.71-2.66,3.71.33,7.3.91,10.67,1.72,1.28.31,2.56-.48,2.87-1.76.31-1.28-.48-2.56-1.76-2.87-3.42-.82-7.04-1.42-10.77-1.78,17.55-15.52,31.51-22.78,36.97-19.06,5.65,3.85,6.3,17.12,1.87,35.86-2.14-2.07-4.54-4.06-7.23-5.91-1.08-.74-2.56-.47-3.31.61-.75,1.08-.47,2.56.61,3.31,15.67,10.79,20.73,26.81,22.36,35.4,1.47,7.76,2.02,15.79,1.63,23.86-.73,15.24-10.3,28.8-24.37,34.54-7.27,2.96-14.73,5.47-22.18,7.46-1.27.34-2.02,1.64-1.68,2.91.28,1.06,1.25,1.77,2.3,1.77.2,0,.41-.03.61-.08,7.64-2.04,15.3-4.61,22.75-7.65,7.8-3.18,14.48-8.49,19.32-15.36,4.83-6.85,7.6-14.93,8.01-23.35.41-8.45-.17-16.85-1.71-24.98Z"/>
        <g>
          <path class="st0" d="M429.52,137.6c-1.12,0-2.12-.79-2.33-1.94-.24-1.29.6-2.53,1.89-2.78l12.54-2.38c1.29-.24,2.53.6,2.78,1.89.24,1.29-.6,2.53-1.89,2.78l-12.54,2.38c-.15.03-.3.04-.45.04Z"/>
          <path class="st0" d="M442.02,147.43c-.13,0-.27-.01-.4-.03l-10.98-1.86c-1.29-.22-2.17-1.45-1.95-2.74.22-1.29,1.45-2.17,2.74-1.95l10.98,1.86c1.29.22,2.17,1.45,1.95,2.74-.2,1.16-1.2,1.98-2.34,1.98Z"/>
        </g>
        <g>
          <path class="st8" d="M406.15,119.06c-1.12,0-2.12-.79-2.33-1.94-.24-1.29.6-2.53,1.89-2.78l6.58-1.25c1.3-.24,2.53.6,2.78,1.89.24,1.29-.6,2.53-1.89,2.78l-6.58,1.25c-.15.03-.3.04-.45.04Z"/>
          <path class="st8" d="M362.83,127.27c-1.12,0-2.12-.79-2.33-1.94-.24-1.29.6-2.53,1.89-2.78l6.58-1.25c1.29-.24,2.53.6,2.78,1.89.24,1.29-.6,2.53-1.89,2.78l-6.58,1.25c-.15.03-.3.04-.45.04Z"/>
        </g>
        <path class="st3" d="M400.19,135.86c-.24-1.29-1.48-2.14-2.78-1.89-2.44.46-4.8-1.14-5.27-3.58,0,0,0,0,0,0l-.26-1.35,1.19-.22c1.29-.24,2.14-1.49,1.89-2.78-.24-1.29-1.48-2.14-2.78-1.89l-7.05,1.34c-1.29.24-2.14,1.49-1.89,2.78.22,1.14,1.21,1.94,2.33,1.94.15,0,.3-.01.45-.04l1.19-.22.26,1.35s0,0,0,0c.22,1.18-.03,2.38-.7,3.37-.68.99-1.7,1.67-2.88,1.89-1.29.24-2.14,1.49-1.89,2.78.22,1.14,1.21,1.94,2.33,1.94.15,0,.3-.01.45-.04,2.43-.46,4.53-1.84,5.93-3.88.09-.14.18-.27.27-.41,2.02,1.53,4.65,2.24,7.33,1.73,1.29-.24,2.14-1.49,1.89-2.78Z"/>
        <path class="st6" d="M411.86,129.02c-1.12,0-2.12-.79-2.33-1.94-.24-1.29.6-2.53,1.89-2.78l15.88-3.01c1.29-.24,2.53.6,2.78,1.89.24,1.29-.6,2.53-1.89,2.78l-15.88,3.01c-.15.03-.3.04-.45.04Z"/>
        <path class="st6" d="M351.87,140.39c-1.12,0-2.12-.79-2.33-1.94-.24-1.29.6-2.53,1.89-2.78l15.88-3.01c1.29-.24,2.53.6,2.78,1.89.24,1.29-.6,2.53-1.89,2.78l-15.88,3.01c-.15.03-.3.04-.45.04Z"/>
      </g>
      <g>
        <path class="st9" d="M403.09,211.33c-1.21-.04-2.4-.51-3.34-1.4l-16.22-15.37c-2.06-1.95-2.15-5.2-.2-7.26,1.95-2.06,5.21-2.15,7.26-.2l16.22,15.37c2.06,1.95,2.15,5.2.2,7.26-1.06,1.12-2.5,1.65-3.92,1.6Z"/>
        <path class="st5" d="M403.28,213.72c-.09,0-.18,0-.28,0h0c-1.83-.07-3.56-.8-4.89-2.06l-16.22-15.37c-1.46-1.38-2.29-3.25-2.34-5.25-.05-2.01.68-3.91,2.06-5.37,1.38-1.46,3.25-2.29,5.25-2.34,2.01-.05,3.92.68,5.37,2.06l16.22,15.37c3.01,2.85,3.14,7.62.29,10.63-1.42,1.5-3.4,2.35-5.46,2.35ZM403.18,208.96c.79.03,1.56-.28,2.11-.86,1.05-1.1,1-2.86-.11-3.9l-16.22-15.37c-.53-.51-1.24-.77-1.97-.76-.74.02-1.42.33-1.93.86-.51.54-.78,1.24-.76,1.97.02.74.33,1.42.86,1.93l16.22,15.37c.49.46,1.13.73,1.8.76h0Z"/>
        <g>
          <path class="st4" d="M355.93,148.71c-1.35.89-6.59,4.33-7.95,5.22-13.13,8.63-16.78,26.27-8.15,39.4,8.63,13.13,26.27,16.78,39.4,8.15,1.35-.89,6.59-4.33,7.95-5.22,13.13-8.63,16.78-26.27,8.15-39.4-8.63-13.13-26.27-16.78-39.4-8.15Z"/>
          <path class="st7" d="M363.65,208.52c-10.04,0-19.89-4.89-25.81-13.89-9.34-14.2-5.37-33.35,8.83-42.69l7.95-5.22c6.88-4.52,15.11-6.09,23.17-4.43,8.06,1.67,14.99,6.38,19.52,13.26,9.34,14.2,5.38,33.36-8.83,42.69l-7.95,5.22c-5.21,3.42-11.08,5.06-16.88,5.06ZM371.5,146.4c-5.03,0-9.96,1.46-14.27,4.29h0l-7.95,5.22c-12.01,7.9-15.36,24.09-7.47,36.1,5,7.61,13.34,11.74,21.83,11.74,4.91,0,9.88-1.38,14.28-4.28l7.95-5.22c12.01-7.9,15.36-24.09,7.47-36.1-3.82-5.82-9.69-9.8-16.51-11.21-1.78-.37-3.56-.55-5.33-.55ZM355.93,148.71h0,0Z"/>
          <path class="st1" d="M373.59,192.89c-8.37,5.5-19.66,3.17-25.17-5.2-5.5-8.37-3.17-19.66,5.21-25.17s19.66-3.17,25.17,5.2c5.5,8.37,3.17,19.66-5.2,25.17Z"/>
          <path class="st7" d="M373.59,195.27c-.77,0-1.53-.38-1.99-1.07-.72-1.1-.42-2.57.68-3.29,7.28-4.78,9.31-14.59,4.52-21.87-2.31-3.52-5.86-5.93-10-6.78-4.14-.86-8.35-.05-11.87,2.26-1.1.72-2.57.42-3.29-.68-.72-1.1-.42-2.57.68-3.29,4.58-3.01,10.06-4.06,15.45-2.94,5.38,1.11,10,4.25,13.01,8.83,6.22,9.47,3.58,22.23-5.89,28.46-.4.26-.86.39-1.3.39Z"/>
        </g>
      </g>
      <path class="st2" d="M419.8,177.68c24.35,17.07,34.35,47.61,18.03,51.52-16.78,4.02-50.79-2.15-50.79-17.28s26.84-18.01,42.6-2.24l-9.84-31.99Z"/>
      <path class="st3" d="M426.02,232.79c-12.5,0-27.1-3.22-35.12-9.55-4.08-3.22-6.23-7.13-6.23-11.32,0-5.9,3.5-10.74,9.61-13.27,5.15-2.13,11.64-2.49,18.25-.99,7.15,1.62,13.65,5.19,18.8,10.34.93.93.93,2.43,0,3.36-.93.93-2.43.93-3.36,0-9.88-9.88-23.79-11.66-31.87-8.32-3.05,1.26-6.68,3.83-6.68,8.88,0,2.72,1.49,5.28,4.42,7.59,9.58,7.56,31.59,10.21,43.44,7.38,3.14-.75,4.95-2.89,5.53-6.53,1.72-10.89-8.49-31.01-24.25-40.64-1.12-.68-1.47-2.15-.79-3.27.69-1.12,2.15-1.47,3.27-.79,8.01,4.9,15.24,12.58,20.36,21.64,4.9,8.67,7.12,17.34,6.1,23.8-.87,5.52-4.11,9.22-9.12,10.41-3.57.85-7.83,1.28-12.37,1.28Z"/>
      <g>
        <path class="st12" d="M402.38,213.04h-36.28l-11.62-46.7c-.98-3.96-4.54-6.74-8.62-6.74h-91.96c-5.77,0-10.01,5.42-8.62,11.02l12.19,49.04c1.79,7.22,8.27,12.28,15.71,12.28h97.61,0s31.58,0,31.58,0c5.22,0,9.45-4.23,9.45-9.45s-4.23-9.45-9.45-9.45Z"/>
        <path class="st6" d="M413.99,222.14c-.19-6.21-5.57-11.26-12-11.26h-34.2l-11.14-44.76c-1.22-4.92-5.48-8.48-10.36-8.66-.13,0-.25,0-.38,0-.02,0-.03,0-.05,0h-91.96c-3.42,0-6.59,1.55-8.7,4.24-2.11,2.69-2.84,6.14-2.02,9.46l12.19,49.04c2.04,8.2,9.36,13.92,17.81,13.92h129.19c3.17,0,6.13-1.26,8.34-3.53,2.21-2.27,3.37-5.27,3.27-8.44ZM407.62,227.57c-1.39,1.43-3.24,2.21-5.23,2.21h-38.78c-5.55,0-10.36-3.75-11.69-9.14-.29-1.16-1.46-1.87-2.62-1.58-1.16.29-1.86,1.46-1.58,2.62.8,3.2,2.5,5.99,4.79,8.1h-79.32c-6.46,0-12.05-4.38-13.61-10.64l-12.19-49.04c-.5-2.02-.06-4.12,1.23-5.76,1.28-1.64,3.21-2.58,5.29-2.58h83.2c-2.06,2.68-2.78,6.08-1.96,9.38l7.45,29.98c.29,1.16,1.46,1.86,2.62,1.58,1.16-.29,1.86-1.46,1.58-2.62l-7.45-29.98c-.51-2.07-.04-4.2,1.31-5.86,1.34-1.65,3.34-2.56,5.48-2.47,2.96.11,5.56,2.32,6.32,5.38l11.55,46.4c.24.96,1.1,1.64,2.1,1.64h35.89c4.12,0,7.57,3.17,7.68,7.07.06,1.99-.67,3.88-2.05,5.3Z"/>
      </g>
    </g>
    <g>
      <g>
        <g>
          <path class="st2" d="M204.92,66.63c-6.37-8.93-33.07.89-44.93,5.84-5.16-1.77-11.96-3.29-19.81-4.57-7.84-1.35-14.76-2.14-20.22-2.15-9.6-8.55-31.64-26.54-40.57-20.18-8.87,6.32-3.69,28.62-.8,38.65-6.76,8.01-10.31,17.43-11.72,25.81-1.22,7.25-1.57,14.64-1.04,22.17,1.01,14.48,10.1,27.05,23.53,32.46-4.44,5.84-7.01,12.76-7.01,20.18,0,20.86,20.3,37.78,45.34,37.78s45.34-16.91,45.34-37.78c0-4.32-.87-8.47-2.47-12.33,8.35-3.87,15.16-10.75,18.91-19.57,2.95-6.95,5.03-14.05,6.25-21.3,1.41-8.38,1.12-18.44-2.65-28.22,6-8.53,18.17-27.93,11.85-36.8Z"/>
          <path class="st8" d="M192.86,83.59s.77,3.02.44,6.21c-.3,2.95-2.42,4.88-4.88,5.42-3.91-6.3-9.11-11.78-15.31-16.02.33-1.57,1.25-3.01,2.73-3.96,5.95-3.83,13.94-7.7,18.65-4.79,8.2,5.07-1.64,13.15-1.64,13.15Z"/>
          <path class="st8" d="M85.25,65.54s-1.71,2.6-2.44,5.72c-.68,2.88.7,5.4,2.84,6.71,5.75-4.68,12.45-8.16,19.7-10.15.2-1.59-.2-3.26-1.29-4.64-4.38-5.56-10.67-11.83-16.07-10.61-9.41,2.12-2.74,12.97-2.74,12.97Z"/>
          <path class="st3" d="M206.85,65.25c-6.77-9.5-29.72-2.51-47.78,5.03l1.83,4.39c22.26-9.29,38.38-11.85,42.08-6.66,3.52,4.94-.02,16.2-9.46,30.52-1.14-2.33-2.51-4.67-4.14-6.98-.76-1.07-2.24-1.33-3.31-.57-1.07.76-1.33,2.24-.57,3.31,9.89,14.03,9.18,29.19,7.88,36.97-1.18,7.04-3.23,14.03-6.09,20.76-5.38,12.66-17.69,21.14-31.38,21.6-4.62.15-9.26.12-13.81-.1-1.3-.06-2.43.95-2.49,2.26-.06,1.31.95,2.43,2.26,2.49,2.75.13,5.54.2,8.33.2,1.96,0,3.92-.03,5.87-.1,15.53-.52,29.5-10.14,35.6-24.49,3.01-7.08,5.16-14.43,6.4-21.84,1.05-6.27,1.74-16.93-2.33-28.28,7.41-10.74,17.88-29.03,11.12-38.51Z"/>
          <path class="st3" d="M119.25,170.81c-9.58-1.83-19.14-4.55-28.43-8.11-12.79-4.9-21.67-16.93-22.62-30.65-.51-7.3-.16-14.57,1.02-21.62,1.31-7.78,5.58-22.34,19.51-32.38,1.07-.77,1.31-2.25.54-3.32-.77-1.07-2.25-1.31-3.32-.54-2.3,1.65-4.35,3.42-6.19,5.25-4.26-16.61-3.93-28.41,1.01-31.94,5.18-3.69,19.59,3.98,37.6,20.02l3.16-3.55c-14.62-13.01-34.04-27.11-43.53-20.34-9.5,6.77-5.55,27.46-2.05,40.03-7.55,9.4-10.38,19.71-11.43,25.98-1.24,7.41-1.6,15.06-1.07,22.73,1.08,15.56,11.15,29.2,25.66,34.77,9.55,3.66,19.39,6.46,29.24,8.34.15.03.3.04.45.04,1.12,0,2.12-.79,2.33-1.93.25-1.29-.6-2.53-1.89-2.78Z"/>
          <path class="st3" d="M164.31,76.58c-.34,0-.69-.07-1.02-.23-4.83-2.29-12.74-4.34-23.5-6.1-10.77-1.85-18.91-2.49-24.22-1.91-3.34.37-6.57.97-9.61,1.76-1.27.33-2.57-.43-2.9-1.7-.33-1.27.43-2.57,1.7-2.9,3.26-.85,6.72-1.49,10.29-1.89,5.76-.64,14.35.01,25.54,1.94,11.18,1.82,19.51,4.01,24.75,6.49,1.19.56,1.69,1.98,1.13,3.17-.41.86-1.26,1.36-2.15,1.36Z"/>
          <g>
            <path class="st6" d="M164.87,132.36c.67-3.99-2.02-7.77-6.01-8.44-3.99-.67-7.77,2.02-8.44,6.01s2.02,7.77,6.01,8.44c3.99.67,7.77-2.02,8.44-6.01Z"/>
            <path class="st6" d="M110.26,123.2c.67-3.99-2.02-7.77-6.01-8.44-3.99-.67-7.77,2.02-8.44,6.01-.67,3.99,2.02,7.77,6.01,8.44,3.99.67,7.77-2.02,8.44-6.01Z"/>
          </g>
          <g>
            <g>
              <path class="st0" d="M174.17,147.07c-.13,0-.26-.01-.4-.03l-11.42-1.92c-1.29-.22-2.17-1.44-1.95-2.74.22-1.3,1.44-2.17,2.74-1.95l11.42,1.92c1.29.22,2.17,1.44,1.95,2.74-.19,1.16-1.2,1.98-2.34,1.98Z"/>
              <path class="st0" d="M170.29,157.45c-.4,0-.81-.1-1.18-.32l-8.76-5.03c-1.14-.65-1.53-2.11-.88-3.25.65-1.14,2.11-1.53,3.25-.88l8.76,5.03c1.14.65,1.53,2.11.88,3.25-.44.77-1.24,1.19-2.06,1.19Z"/>
            </g>
            <g>
              <path class="st0" d="M94.42,133.69c-.13,0-.26-.01-.4-.03l-11.42-1.92c-1.29-.22-2.17-1.44-1.95-2.74.22-1.3,1.44-2.17,2.74-1.95l11.42,1.92c1.29.22,2.17,1.44,1.95,2.74-.19,1.16-1.2,1.98-2.34,1.98Z"/>
              <path class="st0" d="M83.27,142.85c-1.12,0-2.12-.79-2.33-1.93-.25-1.29.6-2.54,1.89-2.78l9.92-1.89c1.29-.25,2.53.6,2.78,1.89.25,1.29-.6,2.54-1.89,2.78l-9.92,1.89c-.15.03-.3.04-.45.04Z"/>
            </g>
          </g>
          <g>
            <path class="st8" d="M155.76,116.62c-.13,0-.26-.01-.4-.03l-5.99-1c-1.29-.22-2.17-1.44-1.95-2.74.22-1.3,1.44-2.17,2.74-1.95l5.99,1c1.29.22,2.17,1.44,1.95,2.74-.19,1.16-1.2,1.98-2.34,1.98Z"/>
            <path class="st8" d="M116.33,110c-.13,0-.26-.01-.4-.03l-5.99-1c-1.3-.22-2.17-1.44-1.95-2.74.22-1.3,1.45-2.17,2.74-1.95l5.99,1c1.3.22,2.17,1.44,1.95,2.74-.19,1.16-1.2,1.98-2.34,1.98Z"/>
          </g>
          <g>
            <path class="st3" d="M109.24,146.62c1.84,3.07,4.82,5.95,8.53,7.98,2.35,1.29,5,2.23,7.83,2.67,7.33,1.13,14.3-1.38,18.66-5.27.78-.7,1.47-1.43,2.07-2.21,1.26-1.62,2.09-3.39,2.37-5.17,1.63-10.54-7.59-12.21-19-13.96-11.42-1.76-20.43-1.72-22.33,7.6-.53,2.61.19,5.57,1.86,8.36Z"/>
            <path class="st9" d="M146.33,149.79c-3.94,5.08-12.09,8.81-20.73,7.48-7.32-1.13-13.36-5.64-16.36-10.65,6.07-3.87,19.39-9.07,37.09,3.17Z"/>
            <path class="st3" d="M145.35,132.34s-.08-.05-.12-.07c-3.27-1.81-7.58-2.73-12.8-3.58l.44-2.73.84.14c.13.02.27.03.4.03,1.14,0,2.15-.82,2.34-1.98.22-1.3-.66-2.52-1.95-2.74l-6.41-1.08c-1.3-.22-2.52.66-2.74,1.95-.22,1.3.66,2.52,1.95,2.74l.89.15-.46,2.81c-5.02-.67-10.38-1-14.54.37,0,0,0,0,0,0-4.42,1.45-7.16,4.63-8.15,9.44-.72,3.52.33,7.52,2.94,11.28,3.86,5.54,10.31,9.49,17.25,10.56,1.31.2,2.63.3,3.95.3,4.57,0,9.08-1.2,13.02-3.51,4.95-2.9,8.17-7.06,8.84-11.43.89-5.76-1.03-10.01-5.69-12.65ZM146.35,144.26c-.45,2.9-2.89,5.91-6.55,8.05-4.08,2.39-9.12,3.34-13.84,2.61-5.6-.86-10.99-4.15-14.07-8.58-1.84-2.64-2.63-5.41-2.18-7.61.64-3.15,2.18-4.96,4.97-5.88,0,0,0,0,0,0,3.85-1.26,9.57-.63,14.66.15,5.81.89,10.5,1.71,13.57,3.4,0,0,.02.01.03.02,2.98,1.65,4.01,4,3.42,7.83Z"/>
          </g>
        </g>
        <path class="st12" d="M201.8,64.21l-53.08-36.17c-.91-.62-2.03-.82-3.09-.55l-62.26,15.78c-3.2.81-3.94,5.01-1.21,6.87l29.22,19.91c-.13.73-.27,1.52-.42,2.38-1.11,6.28,10.29,13.55,25.46,16.23,15.17,2.68,28.37-.24,29.48-6.52.15-.86.29-1.64.42-2.38l34.28-8.69c3.2-.81,3.94-5.01,1.21-6.87Z"/>
        <path class="st6" d="M203.14,62.24l-53.07-36.16c-1.46-1-3.29-1.33-5.02-.89l-62.26,15.78c-2.4.61-4.15,2.5-4.58,4.93-.43,2.44.57,4.81,2.62,6.2l27.95,19.05-.15.87c-1.38,7.82,10.39,15.98,27.38,18.98,3.9.69,7.74,1.03,11.36,1.03s6.71-.32,9.58-.95c6.57-1.45,10.58-4.48,11.29-8.53l.15-.87,32.79-8.31c2.4-.61,4.15-2.5,4.58-4.93.43-2.44-.57-4.82-2.62-6.21ZM155.91,86.44c-5.27,1.16-12.05,1.12-19.08-.12-15.57-2.75-24.2-9.7-23.53-13.47l2.09-11.84c.35-1.97,3.2-3.73,7.64-4.71,2.54-.56,5.44-.84,8.55-.84,3.33,0,6.9.32,10.54.97,7.04,1.24,13.42,3.53,17.97,6.43,3.83,2.44,5.91,5.07,5.56,7.04h0s-1.66,9.41-1.66,9.41c0,.05-.02.09-.03.14l-.4,2.29c-.35,1.97-3.2,3.73-7.64,4.71ZM201.07,67.62c-.05.28-.25.94-1.07,1.15l-30.71,7.78,1.03-5.84c.72-4.05-2.01-8.27-7.69-11.88-5.07-3.23-12.06-5.75-19.7-7.1-7.64-1.35-15.07-1.38-20.94-.08-6.57,1.45-10.58,4.48-11.29,8.53l-1.03,5.84-26.18-17.84c-.7-.47-.66-1.17-.61-1.45.05-.28.25-.94,1.07-1.15l62.26-15.78c.4-.1.83-.03,1.18.21l53.08,36.17c.7.47.66,1.17.61,1.45Z"/>
        <g>
          <path class="st4" d="M107.99,58.32c4.35.05,8.46,2.23,10.75,5.93,1.42,2.29,2.01,4.86-.12,6.94-5.12,4.99-12.6-2.67-12.6-2.67,0,0-7.67,7.48-12.66,2.36-2.08-2.13-1.42-4.69.05-6.94,2.38-3.64,6.54-5.72,10.89-5.67l3.69.05Z"/>
          <path class="st7" d="M120.76,63c-2.7-4.35-7.46-6.99-12.74-7.06h-.77s-.14-21.28-.14-21.28c-.01-1.31-1.07-2.36-2.38-2.36h-.02c-1.31.01-2.37,1.09-2.36,2.4l.14,21.27c-4.55.46-8.6,2.87-11.07,6.66-3.29,5.03-1.26,8.37.24,9.9,4.48,4.59,10.6,1.97,14.32-.86,2.26,1.81,5.45,3.57,8.65,3.57,1.95,0,3.9-.66,5.65-2.36,1.54-1.5,3.65-4.78.48-9.89ZM116.96,69.49c-3.35,3.27-9.18-2.58-9.23-2.63-.46-.48-1.08-.72-1.7-.72s-1.2.22-1.66.67c-.06.06-6.03,5.76-9.3,2.41-.44-.45-1.36-1.39.34-3.98,1.88-2.87,5.29-4.62,8.87-4.59h.6s.02,0,.03,0h.02s0,0,.01,0l3.04.04c3.59.04,6.95,1.89,8.75,4.8,1.63,2.63.69,3.55.24,3.99Z"/>
        </g>
      </g>
      <g>
        <g>
          <path class="st12" d="M42.9,184.17l30.62,52.27c4,6.83,12.78,9.12,19.61,5.12l43.06-25.24c6.83-4,9.12-12.78,5.12-19.61l-30.62-52.27c-4-6.83-12.78-9.12-19.61-5.12l-43.06,25.24c-6.83,4-9.12,12.78-5.12,19.61Z"/>
          <path class="st6" d="M85.92,245.69c-1.4,0-2.81-.18-4.2-.54-4.26-1.11-7.84-3.82-10.06-7.62l-30.62-52.27c-2.23-3.8-2.84-8.24-1.73-12.5,1.11-4.26,3.82-7.84,7.62-10.06l43.06-25.24c7.85-4.6,17.97-1.95,22.57,5.89l30.62,52.27c2.23,3.8,2.84,8.24,1.73,12.5-1.11,4.26-3.82,7.84-7.62,10.06l-43.06,25.24c-2.56,1.5-5.42,2.27-8.31,2.27ZM44.77,183.08l30.62,52.27c1.64,2.8,4.28,4.8,7.42,5.62,3.15.82,6.42.37,9.23-1.27l43.06-25.24c5.79-3.39,7.74-10.86,4.35-16.65l-30.62-52.27c-3.39-5.79-10.86-7.74-16.65-4.35l-43.06,25.24c-2.8,1.64-4.8,4.28-5.62,7.43-.82,3.14-.37,6.42,1.27,9.23h0Z"/>
          <path class="st8" d="M82.84,232.13c1.36,1.42,3.49,1.71,5.19.71l43.06-25.24c1.32-.77,1.79-1.95,1.96-2.58.17-.63.33-1.89-.44-3.21l-30.62-52.27c-.17-.29-.37-.56-.6-.8-1.36-1.41-3.49-1.71-5.19-.71l-43.06,25.24c-2.01,1.18-2.69,3.78-1.51,5.79l30.62,52.27c.17.29.37.56.6.8Z"/>
          <path class="st6" d="M85.88,235.59c-1.69,0-3.36-.67-4.6-1.97,0,0,0,0,0,0-.34-.36-.65-.76-.91-1.2l-30.62-52.27c-.86-1.47-1.1-3.19-.67-4.85.43-1.65,1.48-3.04,2.95-3.9l43.06-25.24c2.57-1.5,5.79-1.06,7.84,1.08.34.36.65.76.91,1.2l30.62,52.27c1.16,1.99.92,3.89.67,4.85-.25.96-.96,2.73-2.95,3.9l-43.06,25.24c-1.02.6-2.14.89-3.24.89ZM84.4,230.63c.66.69,1.7.83,2.54.34l43.06-25.24c.65-.38.88-.95.96-1.26.1-.38.14-.96-.22-1.57l-30.62-52.27c-.09-.15-.19-.28-.3-.4-.66-.69-1.7-.83-2.53-.34l-43.06,25.24c-.48.28-.81.73-.95,1.26-.14.54-.06,1.09.22,1.57l30.62,52.27c.09.15.19.28.3.4Z"/>
        </g>
        <g>
          <path class="st6" d="M75.1,178.83c-.74,0-1.46-.38-1.87-1.07-.6-1.03-.26-2.35.77-2.96l24.74-14.54c1.03-.61,2.35-.26,2.96.77.6,1.03.26,2.35-.77,2.96l-24.74,14.54c-.34.2-.72.3-1.09.3Z"/>
          <path class="st6" d="M63.6,185.59c-.74,0-1.46-.38-1.87-1.07-.6-1.03-.26-2.35.77-2.96l4.42-2.6c1.03-.61,2.35-.26,2.96.77.6,1.03.26,2.35-.77,2.96l-4.42,2.6c-.34.2-.72.3-1.09.3Z"/>
        </g>
        <g>
          <path class="st6" d="M79.92,187.02c-.74,0-1.46-.38-1.87-1.07-.6-1.03-.26-2.35.77-2.96l24.74-14.54c1.03-.61,2.35-.26,2.96.77.6,1.03.26,2.35-.77,2.96l-24.74,14.54c-.34.2-.72.3-1.09.3Z"/>
          <path class="st6" d="M68.42,193.78c-.74,0-1.46-.38-1.87-1.07-.6-1.03-.26-2.35.77-2.96l4.42-2.6c1.03-.61,2.35-.26,2.96.77.6,1.03.26,2.35-.77,2.96l-4.42,2.6c-.34.2-.72.3-1.09.3Z"/>
        </g>
        <g>
          <path class="st6" d="M84.73,195.21c-.74,0-1.46-.38-1.87-1.07-.6-1.03-.26-2.35.77-2.96l24.74-14.54c1.03-.61,2.35-.26,2.96.77.6,1.03.26,2.35-.77,2.96l-24.74,14.54c-.34.2-.72.3-1.09.3Z"/>
          <path class="st6" d="M73.23,201.97c-.74,0-1.46-.38-1.87-1.07-.6-1.03-.26-2.35.77-2.96l4.42-2.6c1.03-.6,2.35-.26,2.96.77.6,1.03.26,2.35-.77,2.96l-4.42,2.6c-.34.2-.72.3-1.09.3Z"/>
        </g>
        <path class="st5" d="M108.4,210.6c.35.59.41,1.24.17,1.93-.23.69-.66,1.22-1.27,1.58-.41.24-.85.36-1.32.34-.47-.02-.93-.18-1.38-.5l-2.81-2.01-8.74,5.13.36,3.45c.06.55-.03,1.03-.25,1.45-.22.42-.54.75-.96,1-.61.36-1.29.48-2.02.35-.74-.12-1.28-.48-1.63-1.07-.19-.32-.3-.7-.34-1.14l-1.47-18.8c-.05-.62.08-1.2.38-1.73.31-.53.74-.96,1.29-1.29.54-.32,1.12-.48,1.74-.5.62-.01,1.19.15,1.71.5l15.71,10.43c.36.25.64.53.83.85ZM97.94,209.21l-6.23-4.43.84,7.6,5.39-3.17Z"/>
        <path class="st5" d="M118.42,194.22c-.67-1.13-2.12-1.51-3.25-.84l-1.77,1.04-1.04-1.77c-.67-1.13-2.12-1.51-3.25-.84-1.13.67-1.51,2.12-.84,3.25l1.04,1.77-1.77,1.04c-1.13.67-1.51,2.12-.84,3.25.44.75,1.24,1.17,2.05,1.17.41,0,.82-.11,1.2-.33l1.77-1.04,1.04,1.77c.44.75,1.24,1.17,2.05,1.17.41,0,.82-.11,1.2-.33,1.13-.67,1.51-2.12.84-3.25l-1.04-1.77,1.77-1.04c1.13-.67,1.51-2.12.84-3.25Z"/>
      </g>
      <g>
        <path class="st2" d="M48.5,215.34c3.07,6.48,7.83,10.66,14.31,7.59s9.25-10.81,6.18-17.28c-3.07-6.48-10.81-9.25-17.28-6.18-6.48,3.07-6.27,9.4-3.2,15.88Z"/>
        <path class="st3" d="M58.6,226.33c-1.92,0-3.76-.53-5.48-1.59-2.63-1.62-4.91-4.44-6.77-8.38h0c-1.86-3.94-2.6-7.49-2.19-10.55.51-3.78,2.76-6.71,6.52-8.49,7.65-3.62,16.83-.34,20.45,7.31,3.62,7.65.34,16.83-7.31,20.45-1.76.84-3.52,1.25-5.21,1.25ZM57.23,200.6c-1.52,0-3.06.33-4.52,1.02-2.29,1.09-3.55,2.66-3.84,4.83-.28,2.11.33,4.83,1.77,7.88h0c1.44,3.05,3.16,5.25,4.97,6.37,1.86,1.15,3.87,1.17,6.17.09,2.56-1.21,4.49-3.35,5.45-6.01.95-2.67.81-5.55-.4-8.1-1.81-3.82-5.63-6.07-9.6-6.07Z"/>
      </g>
      <g>
        <path class="st2" d="M184.66,169.3s-6.19-13.95-7.01-15.44c-1.52-2.78-3.51-4.41-5.28-4.02-2.72.6-3.9,5.75-2.63,11.52.2.89.72,2.53.72,2.53-6.35-2.4-7.46,3.8-7.71,3.96-2.56-4.32-8.04-7.21-10.63-5.1-2.54,2.08,2,10.76,5.34,16.33-.71.88-1.38,1.82-2.01,2.83-5.76,9.25-5.31,19.93,1,23.86,6.31,3.93,16.1-.38,21.86-9.63,2.99-4.81,4.31-10,3.99-14.43,3.43-3.04,4.52-8.13,2.35-12.41Z"/>
        <path class="st3" d="M186.81,168.28c-.74-1.67-6.24-14.04-7.07-15.56-2.12-3.88-5.06-5.82-7.87-5.2-4.03.89-5.91,6.48-4.62,13.46-.83.06-1.62.26-2.36.59-1.08.49-1.9,1.21-2.51,1.97-1.97-1.95-4.4-3.34-6.7-3.75-1.97-.35-3.71.04-5.04,1.12-2.67,2.18-2.04,6.64,2.03,14.45.63,1.22,1.3,2.42,1.96,3.55-.4.56-.79,1.14-1.17,1.74-3.04,4.87-4.59,10.3-4.38,15.28.22,5.32,2.4,9.53,6.14,11.86,1.95,1.21,4.17,1.82,6.55,1.82,2.18,0,4.48-.51,6.81-1.54,4.56-2.01,8.75-5.8,11.78-10.67,2.94-4.72,4.48-9.91,4.4-14.74,3.52-3.78,4.52-9.5,2.08-14.38ZM153.78,164.5c.24-.1.61-.11,1.05-.04,1.71.3,4.35,2.01,5.88,4.59.33.55.86.95,1.48,1.1.62.15,1.28.05,1.82-.29.73-.45.97-1.1,1.15-1.58.23-.63.72-1.94,1.7-2.39.66-.3,1.59-.23,2.77.22.85.32,1.82.13,2.48-.5.66-.63.91-1.58.63-2.45-.14-.43-.52-1.68-.66-2.32-1.15-5.24.17-8.54.82-8.68.22-.05,1.4.51,2.68,2.84.56,1.02,4.54,9.9,6.92,15.26.02.04.03.07.05.11,1.99,3.92.42,8.72-3.5,10.7l-6.82,3.46c-3.35,1.7-7.47.81-9.81-2.11-.29-.4-2.86-4.24-5.14-8.5-3.52-6.56-3.55-8.89-3.49-9.42ZM157.71,203.75c-2.36-1.47-3.75-4.32-3.91-8.02-.17-3.96,1.09-8.34,3.54-12.35.71,1.1,1.21,1.82,1.32,1.97,2.47,3.11,6.19,4.79,9.98,4.79,1.95,0,3.91-.44,5.73-1.37l5.34-2.71c-.5,2.94-1.67,6-3.41,8.81-4.97,7.98-13.48,12.04-18.59,8.87Z"/>
      </g>
    </g>
  </g>
</svg>