<?xml version="1.0" encoding="UTF-8"?>
<svg xmlns="http://www.w3.org/2000/svg" version="1.1" viewBox="0 0 2500 2500">
  <!-- Generator: Adobe Illustrator 29.5.0, SVG Export Plug-In . SVG Version: 2.1.0 Build 137)  -->
  <defs>
    <style>
      .st0 {
        fill: #fff;
      }

      .st1 {
        fill: #6b2e00;
      }
    </style>
  </defs>
  <g id="BG">
    <rect class="st0" width="2500" height="2500"/>
  </g>
  <g id="Design">
    <g>
      <g>
        <path class="st1" d="M379.87,1750.49c1.51-31.96,5.68-67.25,26.96-92.75,9.24-11.08,21.16-20.31,35.06-24.62,14.41-4.47,29.5-2.74,43.21,3.3,16.71,7.37,30.91,19.38,44.6,31.22,5.6,4.84,13.8-3.29,8.17-8.17-25.73-22.25-56.31-46.39-92.63-39.13-33.54,6.7-56.95,36.35-67.18,67.35-6.67,20.2-8.73,41.66-9.73,62.8-.35,7.43,11.2,7.41,11.55,0h0Z"/>
        <path class="st1" d="M521.83,1678.81c19.19-13.99,40.57-24.23,63.53-30.28,7.18-1.89,4.14-13.04-3.07-11.14-23.84,6.29-46.36,16.92-66.29,31.45-5.95,4.34-.19,14.36,5.83,9.97h0Z"/>
        <path class="st1" d="M563.01,1628.55c2.75-29.74,10.46-63.38,43.5-71.81,34.14-8.71,66.11,11.78,93.48,29.48,6.26,4.05,12.06-5.95,5.83-9.97-25.04-16.19-52.03-33.08-82.9-33.03-13.15.02-26.69,3.09-37.86,10.24-11.28,7.22-19.2,18.01-24.28,30.26-5.89,14.21-7.92,29.63-9.32,44.84-.68,7.4,10.87,7.35,11.55,0h0Z"/>
        <path class="st1" d="M730.01,1589.87c59.02,5.93,107.89,49.42,135.29,99.95,31.66,58.38,39.37,131.63,10.71,192.72-14.37,30.63-36.74,57.28-65.57,75.2-6.3,3.92-.51,13.91,5.83,9.97,56.59-35.18,88.66-100.11,89.12-165.94.48-67.95-29.6-137.63-81.61-181.86-26.67-22.68-58.75-38.08-93.77-41.59-7.39-.74-7.34,10.81,0,11.55h0Z"/>
        <path class="st1" d="M701.78,1560.06c21.11-29.69,50.62-53.35,84.26-67.37,6.76-2.82,3.79-14-3.07-11.14-36.66,15.28-68.13,40.3-91.16,72.68-4.32,6.07,5.7,11.84,9.97,5.83h0Z"/>
        <path class="st1" d="M760.88,1484.73c4.03-29.18,9.13-64.3,37.84-79.74,13.94-7.5,27.99-4.84,41.67,1.85,14.76,7.21,28.37,16.49,40.55,27.49,5.5,4.97,13.7-3.17,8.17-8.17-13.72-12.39-29.17-23.07-46-30.78-15.72-7.2-31.57-9.16-47.58-1.69-33.67,15.72-41.21,54.88-45.78,87.97-1,7.27,10.12,10.41,11.14,3.07h0Z"/>
        <path class="st1" d="M879.91,1442.59c27.66-6.92,55.82-11.34,84.27-13.17,7.38-.47,7.43-12.03,0-11.55-29.46,1.89-58.7,6.42-87.34,13.58-7.21,1.8-4.15,12.94,3.07,11.14h0Z"/>
        <path class="st1" d="M939.89,1415.03c13.75-23.63,33.73-55.92,65.97-50.26,28.09,4.93,51.91,29.14,64.06,53.8,3.29,6.67,13.25.82,9.97-5.83-13.83-28.05-42.07-55.38-74.24-59.6-36.78-4.83-59.62,28.35-75.73,56.06-3.74,6.44,6.23,12.26,9.97,5.83h0Z"/>
        <path class="st1" d="M1077.05,1437.23c51.87,3.82,95.79,40.46,116.45,86.98,11.25,25.34,16,53.43,15.32,81.06-.7,28.4-6.99,57.34-21.63,81.93-14.78,24.82-38.54,44.23-67.11,50.32-7.27,1.55-4.19,12.68,3.07,11.14,27.06-5.76,50.31-22.69,66.69-44.65,18.47-24.75,27.25-55.6,29.83-86.04,4.91-57.92-14.15-119.59-59.63-157.68-23.53-19.7-52.27-32.34-82.99-34.6-7.41-.55-7.38,11.01,0,11.55h0Z"/>
        <path class="st1" d="M873.17,1541.9c3.49,14.01,6.97,28.02,10.46,42.03,1.79,7.21,12.93,4.16,11.14-3.07-3.49-14.01-6.97-28.02-10.46-42.03-1.79-7.21-12.93-4.15-11.14,3.07h0Z"/>
        <path class="st1" d="M932.94,1544.31c4.15-1.6,8.4-2.8,12.86-3.07,1.46-.09,3.16.21,4.59.05.63.1,1.21.31,1.74.64.4-2.22.09-2.88-.92-1.98-1.22.07-3.47,1.92-4.75,2.37-1.43.5-2.96.87-4.47,1.06-1.5.18-3.09.2-4.6.05-1.02-.09-2.02-.28-3-.55-1.9-.99-2.92.1-3.06,3.28,7.05-2.27,4.03-13.42-3.07-11.14-8.62,2.78-8.1,13.68-.63,17.6,8.08,4.24,18.98,2.71,26.82-1.22,7.43-3.72,12.83-12.74,4.37-18.79-7.99-5.72-20.59-2.67-28.96.56-6.86,2.65-3.88,13.82,3.07,11.14h0Z"/>
        <path class="st1" d="M936.33,1554.12l9.52,31.28c2.16,7.09,13.31,4.07,11.14-3.07-3.17-10.43-6.35-20.85-9.52-31.28-2.16-7.09-13.31-4.07-11.14,3.07h0Z"/>
        <path class="st1" d="M981.68,1522.65c2.1,10.55,4.21,21.1,6.31,31.65,1.45,7.28,12.59,4.2,11.14-3.07l-6.31-31.65c-1.45-7.28-12.59-4.2-11.14,3.07h0Z"/>
        <path class="st1" d="M1103.35,1542.49c5.78-4.74,11.56-9.47,17.34-14.21,2.41-1.98,2.05-6.12,0-8.17-2.39-2.39-5.75-1.98-8.17,0-5.78,4.74-11.56,9.47-17.34,14.21-2.41,1.98-2.05,6.12,0,8.17,2.39,2.39,5.75,1.98,8.17,0h0Z"/>
        <path class="st1" d="M1115.18,1574.13h19.26c7.43,0,7.44-11.55,0-11.55h-19.26c-7.43,0-7.44,11.55,0,11.55h0Z"/>
        <path class="st1" d="M508.4,1756.59c3.64,13.3,8.34,26.2,13.96,38.79,3.03,6.77,12.98.91,9.97-5.83-5.21-11.66-9.43-23.71-12.8-36.03-1.96-7.16-13.1-4.12-11.14,3.07h0Z"/>
        <path class="st1" d="M581.71,1750.03c2.86-1.89,6.23-4.49,9.79-4.75,2.28-.17,5.7,1.1,3.49,3.39-4.44,4.59-14.19,1.84-18.66-.86-6.38-3.85-12.19,6.13-5.83,9.97,10.39,6.28,33.09,7.79,36.73-7.7,1.58-6.73-3.21-13.07-9.34-15.36-7.89-2.96-15.51,1.04-22,5.34-6.17,4.09-.39,14.09,5.83,9.97h0Z"/>
        <path class="st1" d="M563.3,1740.77c-9.99,3.43-17.78,11.74-19.17,22.42-1.33,10.3,4.12,21.1,13.38,25.95,8.96,4.69,20.57,2.97,27.94-3.9,8.63-8.03,8.43-20.37,7.3-31.19-3.59.97-7.17,1.94-10.76,2.91,6.33,8.52,13.61,17.33,24.97,18.23,10,.8,20.04-5.23,23.79-14.55,3.61-8.95,1.18-20.2-6.15-26.61-8.17-7.14-20.76-7.65-29.57-1.4-6.01,4.27-.25,14.29,5.83,9.97,4.81-3.41,11.38-4.04,16.07.05,4.01,3.51,5.15,10.06,2.66,14.75-2.41,4.54-8.1,7.07-13.1,6.15-6.41-1.19-10.91-7.55-14.54-12.42-2.98-4.01-11.43-3.45-10.76,2.91.7,6.68,2.08,15.4-2.25,21.22-3.19,4.29-9.47,6.13-14.49,4.34-13.68-4.86-10.22-23.54,1.9-27.7,6.99-2.4,3.99-13.56-3.07-11.14h0Z"/>
        <path class="st1" d="M641.49,1695.27c3.99,11.96,7.98,23.92,11.97,35.88,2.34,7.02,13.5,4.01,11.14-3.07-3.99-11.96-7.98-23.92-11.97-35.88-2.34-7.02-13.5-4.01-11.14,3.07h0Z"/>
        <path class="st1" d="M474.95,1837.51c-10.47,2.98-20.94,5.95-31.41,8.93-7.14,2.03-4.1,13.18,3.07,11.14,10.47-2.98,20.94-5.95,31.41-8.93,7.14-2.03,4.1-13.18-3.07-11.14h0Z"/>
        <path class="st1" d="M475.45,1888.54c-4.49,3.99-8.97,7.97-13.46,11.96-5.57,4.95,2.63,13.09,8.17,8.17,4.49-3.99,8.97-7.97,13.46-11.96,5.57-4.95-2.63-13.09-8.17-8.17h0Z"/>
        <path class="st1" d="M772.2,1729.24l10.47-10.47c2.21-2.21,2.21-5.96,0-8.17s-5.95-2.21-8.17,0c-3.49,3.49-6.98,6.98-10.47,10.47-2.21,2.21-2.21,5.96,0,8.17,2.21,2.21,5.95,2.21,8.17,0h0Z"/>
        <path class="st1" d="M804.04,1757.62c5.87-.87,11.48-3.14,16.35-6.52,2.56-1.78,3.73-5.06,2.07-7.9-1.48-2.53-5.33-3.86-7.9-2.07-4.19,2.91-8.54,4.61-13.59,5.36-3.09.46-4.79,4.36-4.03,7.1.91,3.31,4.01,4.49,7.1,4.03h0Z"/>
        <path class="st1" d="M368.33,1757.1c-44.32,52.03-56.07,126.36-32.51,190.2,11.32,30.66,29.75,58.62,53.32,81.26,25.24,24.24,57.11,44.15,92.16,49.55,44.88,6.91,88.93-8.09,130.64-22.96,6.95-2.48,3.96-13.64-3.07-11.14-35.06,12.5-71.59,25.52-109.35,24.29-34.86-1.14-66.8-17.17-92.96-39.53-47.7-40.75-76.17-102.4-70.51-165.48,3.2-35.73,17.15-70.65,40.46-98.02,4.79-5.63-3.34-13.84-8.17-8.17h0Z"/>
        <path class="st1" d="M586.53,2075.73c4.49,20.95,8.98,41.91,13.47,62.86,1.56,7.26,12.69,4.19,11.14-3.07-4.49-20.95-8.98-41.91-13.47-62.86-1.56-7.26-12.69-4.19-11.14,3.07h0Z"/>
        <path class="st1" d="M812.43,1980.16c7.93,20.27,15.86,40.55,23.78,60.82,2.68,6.85,13.85,3.87,11.14-3.07-7.93-20.27-15.86-40.55-23.78-60.82-2.68-6.85-13.85-3.87-11.14,3.07h0Z"/>
        <path class="st1" d="M1060.91,1742.74c-30.7-1.92-65.22-8.7-90.2,14.18-9.37,8.59-16.28,21.1-15.31,34.12,1,13.39,9.35,24.57,20.42,31.67,14.97,9.6,33.49,10.36,50.72,10.11,7.43-.11,7.45-11.66,0-11.55-16.09.23-33.89-.05-47.31-10.2-11.37-8.59-15.86-22.7-8.77-35.53,17.79-32.2,60.55-23.13,90.44-21.26,7.42.46,7.39-11.09,0-11.55h0Z"/>
        <path class="st1" d="M1114,1753.56c-9.24,64.8-20.5,129.3-33.78,193.4-1.5,7.25,9.63,10.36,11.14,3.07,13.27-64.1,24.54-128.6,33.78-193.4,1.04-7.27-10.09-10.41-11.14-3.07h0Z"/>
        <path class="st1" d="M837.36,2001.98c38,3.69,76,7.38,114,11.08-1.92-1.92-3.85-3.85-5.77-5.77-3.71,34.05,16.21,66.63,47.88,79.29,14.93,5.97,33.82,8.05,48.98,1.75,15.57-6.47,22.77-22.3,28.06-37.25,7.25-20.48,11.11-42.07,11.84-63.77.25-7.43-11.3-7.42-11.55,0-.56,16.41-3.03,32.62-7.52,48.42-3.71,13.05-8.15,29.56-19.23,38.46-11.07,8.89-28.81,7.25-41.53,3.38-13.47-4.1-25.78-12.61-33.85-24.22-9.39-13.51-13.32-29.73-11.54-46.05.36-3.31-2.95-5.5-5.77-5.77-38-3.69-76-7.38-114-11.08-7.39-.72-7.34,10.84,0,11.55h0Z"/>
        <path class="st1" d="M633.33,2084.57c6.29-23.97,17.35-60.81,48.82-58.97,12.91.76,24.73,9.14,30.88,20.29,7.03,12.75,7.03,28.05,2.77,41.67-2.22,7.11,8.92,10.15,11.14,3.07,7.85-25.09,1.54-54.81-21.85-69.29-10.63-6.58-23.88-9.19-36.06-5.93-12.08,3.23-21.9,11.64-29.11,21.59-9.46,13.06-13.7,29.12-17.73,44.49-1.89,7.2,9.25,10.27,11.14,3.07h0Z"/>
        <path class="st1" d="M765.88,1992.16c-11.36-5.86-24.99-4.18-35.25,3.28-11.12,8.08-16.39,21.24-16.79,34.72-.78,25.82,15.86,54.45,43.34,57.21,7.39.74,7.34-10.81,0-11.55-19.84-2-31.26-24.56-31.79-42.48-.29-9.88,2.37-20.41,10.09-27.1,6.61-5.73,16.55-8.25,24.58-4.11,6.59,3.4,12.44-6.56,5.83-9.97h0Z"/>
        <path class="st1" d="M606.17,2164.71c9.92,40.23,3.59,83.72,21.91,121.95,14.4,30.05,50.37,55.51,83.81,38.99,16.29-8.05,28.7-25.66,26.34-44.31l-4.24,5.57c14.01-5.33,28.03-10.67,42.04-16,13.72-5.22,27.42-11.41,41.46-15.72,6.46-1.98,10.23,1.58,15.07,5.36,4.02,3.15,8.16,5.63,12.96,7.42,8.63,3.22,18.13,3.48,27.12,1.78,17.92-3.38,34.56-16.09,40.06-33.83,3.91-12.62,1.97-26.29-.96-38.88-3.29-14.17-7.46-28.19-11.78-42.07-9.75-31.34-21.52-62.02-35.02-91.94-3.05-6.76-13.01-.9-9.97,5.83,11.26,24.96,21.21,50.5,29.79,76.51,4.37,13.24,8.39,26.59,12.05,40.04,3.47,12.74,7.46,25.96,6.34,39.31-1.51,18.01-16.44,30.74-33.58,33.89-7.93,1.46-16.62.68-23.83-3.09-9.06-4.74-15.29-13.9-26.63-12.5-7.02.86-14,4.51-20.55,7-7.31,2.78-14.62,5.56-21.93,8.35-15.23,5.8-30.46,11.59-45.69,17.39-2.14.82-4.57,2.94-4.24,5.57,1.82,14.42-6.89,27.05-19.35,33.68-13.37,7.11-29.11,4.56-41.76-2.89-30.04-17.72-37.31-54.7-40.26-86.72-1.96-21.35-2.86-42.87-8.01-63.77-1.78-7.21-12.92-4.16-11.14,3.07h0Z"/>
        <path class="st1" d="M1102.13,1930.36c12.8-.81,22.95-8.05,30.18-18.34,8.16-11.62,10.75-25.46,12.09-39.32,1.47-15.23,1.19-31.76,9.12-45.39,6.11-10.5,17.39-19.99,30.23-15.94,12.78,4.03,20.54,18.36,25.15,29.97,5.48,13.79,7.87,28.59,7.66,43.4-.41,28.24-10.05,58.08-29.1,79.33-23.65,26.36-58.35,30.34-91.73,32.91-7.36.57-7.42,12.12,0,11.55,32.09-2.48,65.66-5.95,91.12-27.71,23.21-19.83,36.21-50.38,40.07-80.16,3.88-29.85-1.33-66.14-22.65-88.99-9.6-10.29-23.94-16.02-37.66-10.87-13.07,4.9-22.21,16.68-27.17,29.35-7.13,18.21-4.47,38.48-8.85,57.27-3.21,13.83-12.66,30.39-28.48,31.38-7.38.47-7.43,12.02,0,11.55h0Z"/>
        <path class="st1" d="M612.21,2257.47c-30.91,9.4-64.63,13.72-95.94,3.57-24.57-7.97-47.22-26.8-56.22-51.47-4.61-12.61-5.7-26.54-1.51-39.43,4.17-12.84,14.89-23.86,28.91-24.81,24.84-1.69,32.45,29.72,44.12,45.63,9.02,12.3,21.38,19.59,36.6,21.38,18.59,2.19,36.54-4.39,53.6-10.93,6.87-2.63,3.89-13.8-3.07-11.14-16.2,6.2-33.73,13.21-51.41,10.36-14.77-2.38-23.95-11.56-31.2-23.96-6.08-10.4-10.99-21.74-19.33-30.61-9.32-9.92-22.46-14.24-35.83-11.38-31.57,6.74-41.25,43.52-34.11,71.18,7.13,27.6,29.25,50.39,54.9,61.86,35.86,16.03,76.95,12.03,113.59.89,7.09-2.16,4.07-13.31-3.07-11.14h0Z"/>
        <path class="st1" d="M507.8,1767.51c-.31-3.26-1.5-15.16,4.27-14.84,6.72.37,10.2,15.41,11.79,20.08,1.44,4.23,9.33,21.54,3.29,24.22-7.47,3.31-15.05-11.01-17.57-15.9-3.54-6.86-8.08-18.16-6.07-26.05,1.51-5.94,4.53-2.06,6.63,1.09,2.54,3.81,4.67,7.91,6.22,12.23,1.54,4.28,2.65,8.78,3.14,13.3.18,1.63-.42,5.4.31,6.77-.47,1.84.3,1.84,2.31,0-.83-.47-1.53-1.1-2.08-1.89-5.36-6.25-6.11-15.81-3.96-23.39-3.52.46-7.04.92-10.55,1.38,4.96,6.45,7.87,13.46,8.97,21.52,1,7.33,12.13,4.21,11.14-3.07-1.21-8.87-4.67-17.18-10.13-24.28-2.89-3.77-9.08-3.81-10.55,1.38-3.1,10.9-1.45,22.95,5.12,32.29,3.01,4.29,7.56,8.22,13.16,7.35,5.77-.89,7.91-6.06,8.12-11.29.5-12.09-3.35-24.91-9.45-35.25-2.49-4.22-5.43-9.09-9.8-11.59-4.94-2.83-11.06-1.54-15.09,2.24-8.48,7.96-5.14,22.64-1.94,32.3,3.56,10.76,10.06,23.56,20.06,29.68,9.18,5.61,22.4,2.99,25.21-8.44,1.26-5.12-.13-10.53-1.52-15.46-1.98-7.03-4.29-13.99-6.91-20.81-3.69-9.59-11.15-22.72-23.6-19.5-11.27,2.91-12.96,16.16-12.04,25.93.69,7.34,12.25,7.41,11.55,0h0Z"/>
        <path class="st1" d="M649.14,1697.96c-1.35-2.21,3.23-2.84,4.67-2.21,2.91,1.27,4.88,4.6,6.3,7.25,4.05,7.57,5.92,16.48,5.89,25.02-.01,2.54.7,7.59-2.28,8.55-2.95.95-6.86-1.9-8.88-3.66-4.98-4.33-7.66-10.64-9.38-16.87-1.71-6.18-3.23-13.15-2.96-19.61.05-1.2.04-3.48.81-4.47,1.12-1.45.11-.99,1.86-.47,2.76.83,5.55,6.84,6.79,9.16,1.78,3.33,3.04,6.87,3.9,10.54.49,2.1.81,4.2.96,6.35.06.95-.54,5.84-.03,6.38,3.73.47,4.76-.01,3.09-1.44l-.86-1.49c-1.22-2.02-2.13-4.26-2.9-6.48-1.54-4.44-2.3-8.97-2.45-13.67l-9.86,4.08c4.8,5.09,6.13,12.69,3.02,19.03h9.97c-4.78-7.97-6.46-16.6-5.38-25.81l-9.86,4.08c8.94,7.02,14.1,17.1,14.03,28.52-.05,7.43,11.5,7.44,11.55,0,.09-14.18-6.21-27.89-17.41-36.69-4.12-3.24-9.25-1.1-9.86,4.08-1.31,11.07,1.23,22.1,6.96,31.64,2.1,3.5,8.01,4.01,9.97,0,5.45-11.1,3.69-23.97-4.83-33.02-3.39-3.59-10.02-.88-9.86,4.08.2,5.97,1.12,11.92,3.16,17.54,1.82,5.02,4.15,11.13,8.72,14.29,4.07,2.81,9.44,2.76,12.48-1.56,2.88-4.09,2.19-11.28,1.67-15.96-1.21-11-5.61-22.65-13.53-30.63-7.56-7.62-18.9-6.24-22.45,4.36-2.91,8.68-.5,19.53,1.61,28.15,2.28,9.29,6.42,18.65,13.91,24.9,6.79,5.67,18.25,9.48,25.45,2.22,7.51-7.58,4.63-23.86,2.29-33.04-2.72-10.68-8.76-25.06-21.06-27.19-10.62-1.84-21.31,9.84-15.2,19.85,3.87,6.34,13.86.54,9.97-5.83h0Z"/>
        <path class="st1" d="M876.87,1547.79c.1-1.47.29-6.41,1.91-7.09,1.97-.82,4.44,3.92,5.17,5.17,3.56,6.02,6,12.66,7.31,19.52.7,3.68,1.79,17.47-5.76,15.35-2.48-.7-4.03-5.05-4.95-7.07-1.52-3.33-2.72-6.82-3.69-10.34-1.91-6.93-2.93-14.19-2.63-21.39.07-1.62.13-6.18,2.16-6.88,2.21-.76,4.71,3.44,5.51,4.88,6.86,12.4,6.15,28.97,1.87,42.01,3.22-.85,6.43-1.7,9.65-2.55-8.15-8.23-10.89-19.99-7.47-31.01-3.22.85-6.43,1.7-9.65,2.55.09.08.17.17.26.25.39,7.39,11.94,7.44,11.55,0-.18-3.42-1.18-6-3.64-8.42-3.17-3.12-8.37-1.59-9.65,2.55-4.63,14.89-.51,31.2,10.44,42.25,3.17,3.21,8.32,1.51,9.65-2.55,5.42-16.54,5.87-40.09-5.49-54.49-4.89-6.2-13.23-9.75-20.21-4.54-6.97,5.2-6.9,15.27-6.39,23.09.66,9.96,3.04,19.65,7.02,28.8,3.25,7.46,8.24,15.08,17.43,14.52,8.52-.52,14.52-8.05,15.8-15.99,1.5-9.32-1.4-19.43-5-27.96-3.38-8.01-8.93-19.59-19.18-19.47-9.96.12-13.02,10.7-13.59,18.82-.52,7.42,11.03,7.38,11.55,0h0Z"/>
        <path class="st1" d="M996.11,1527.48c-.11-.98-1.24-10.15,1.34-9.58,1.84.41,2.87,6.57,3.24,8.04,1.71,6.72,3.03,13.86,2.17,20.82-.4,3.21-1.33,6.46-3.02,9.23-.35.63-.75,1.22-1.21,1.77-.97.88-.42,1.36,1.65,1.44-.3.2-3.26-4.47-3.52-4.9-3.63-5.93-5.95-12.71-6.66-19.63-.6-5.88-.88-15.28,2.4-20.53.62-1.04.64-1.23.07-.57.66.3,1.25.69,1.79,1.17,1,.84,1.7,1.91,2.36,3.03,1.96,3.35,3.13,7.52,3.8,11.32.69,3.89.8,7.98.32,11.9-.21,1.72-.57,3.42-1,5.09-.28,1.09-.61,2.16-.98,3.23,3.42,1.26,4.59,1.03,3.5-.7.1-1.22-1.07-3.95-1.3-5.19-.47-2.42-.69-4.86-.74-7.32-.08-4.29.47-8.43,1.51-12.59-2.83,1.15-5.66,2.3-8.48,3.45,3.01,2.06,3.82,6.16,2.15,9.3h9.97c-2.09-3.37-3.03-6.83-2.3-10.8-3.22.85-6.43,1.7-9.65,2.55,2.18,2.3,3.45,4.91,3.67,8.11.52,7.37,12.07,7.43,11.55,0-.44-6.32-2.68-11.67-7.05-16.28-2.82-2.97-8.87-1.76-9.65,2.55-1.28,6.99-.3,13.61,3.47,19.7,2.2,3.55,7.87,3.94,9.97,0,4.77-8.97,2.03-19.4-6.29-25.1-3.06-2.1-7.63.02-8.48,3.45-2.58,10.37-3.42,23.85,1.53,33.73,1.99,3.98,5.91,7.03,10.59,5.95,5.08-1.18,7-6.5,8.18-10.97,2.85-10.79,2-22.49-2.25-32.79-3.18-7.69-11.26-17.85-20.82-13.43-8.5,3.93-9.54,18.24-9.59,26.35-.07,10.24,2.62,20.64,7.7,29.53,2.18,3.8,4.95,8.58,9.01,10.58,5.33,2.62,10.12-1.02,13.18-5.18,5.87-7.96,7.12-18.24,6.09-27.85-.95-8.84-2.42-23.38-11.01-28.43-4.66-2.74-10.53-1.7-14.36,1.99-4.83,4.66-5.06,11.32-4.36,17.56.83,7.3,12.38,7.39,11.55,0h0Z"/>
      </g>
      <g>
        <path class="st1" d="M1361.05,1680.5c7-31.54,14.68-68.21,41.33-89.49,11.35-9.07,25.94-15.05,40.6-14.67,14.65.38,26.84,8.27,35.43,19.82,10.15,13.64,16.13,29.88,24.91,44.36,3.85,6.35,13.84.55,9.97-5.83-16.57-27.33-27.37-64.51-64.15-69.37-34.88-4.62-65.26,20.56-79.92,50.14-9.67,19.52-14.62,40.83-19.31,61.98-1.61,7.24,9.52,10.33,11.14,3.07h0Z"/>
        <path class="st1" d="M1498.99,1651.74c21.76-1.85,43.52-3.7,65.29-5.54,7.35-.62,7.42-12.18,0-11.55-21.76,1.85-43.52,3.7-65.29,5.54-7.35.62-7.42,12.18,0,11.55h0Z"/>
        <path class="st1" d="M1554.55,1632.73c5.19-14.85,11.79-29.13,19.82-42.66,6.79-11.45,14.63-23.55,26.45-30.35,26.44-15.21,56.26,10.12,74.14,27.78,11.89,11.74,22.19,24.86,30.9,39.1,3.87,6.33,13.86.54,9.97-5.83-8.46-13.85-18.41-26.81-29.73-38.45-11.41-11.74-24.34-23.09-38.96-30.66-13.9-7.19-30.34-11-45.42-5.1-14.11,5.52-24.22,17.26-32.33,29.64-10.89,16.6-19.43,34.74-25.97,53.46-2.46,7.03,8.7,10.05,11.14,3.07h0Z"/>
        <path class="st1" d="M1352.33,1683.48c-48.67,38.04-84.36,94.43-88.79,156.92-4.36,61.58,22.61,124.29,76.7,156.36,28.74,17.04,62.61,24.28,95.67,18.86,7.32-1.2,4.21-12.33-3.07-11.14-55.7,9.12-112.05-22.91-138.57-71.47-28.35-51.91-24.49-115.88,2.93-167.24,15.47-28.98,37.47-53.94,63.3-74.12,5.85-4.57-2.37-12.69-8.17-8.17h0Z"/>
        <path class="st1" d="M1674.88,1811.52c2.87-14.26,6.89-28.24,12.2-41.79,4.03-10.28,9.62-22.71,20.99-26.43,10.93-3.57,23.13,1.16,31.32,8.57,9.31,8.43,15.12,19.84,20.44,31.03,3.19,6.71,13.15.86,9.97-5.83-6.18-13.02-13.32-26.22-24.7-35.46-10.6-8.62-25.16-13.41-38.69-9.85-13.83,3.64-22.29,15.75-27.7,28.2-6.76,15.54-11.62,31.89-14.96,48.49-1.46,7.26,9.67,10.36,11.14,3.07h0Z"/>
        <path class="st1" d="M1744.07,1795.95c25.96-9.14,53.17-13.06,80.65-11.58,7.43.4,7.4-11.15,0-11.55-28.39-1.53-56.9,2.54-83.72,11.99-6.96,2.45-3.97,13.61,3.07,11.14h0Z"/>
        <path class="st1" d="M1805.62,1774.13c3.87-12.08,9.91-23.52,18.03-33.3,7.41-8.92,18.16-20.67,30.56-21.45,12.44-.78,22.54,12.32,29.55,20.92,8.7,10.68,15.89,22.77,21.24,35.46,2.84,6.75,14.02,3.78,11.14-3.07-6.4-15.18-14.73-29.2-25.3-41.87-9.14-10.95-21.09-23.63-36.63-22.98-15.04.62-27.79,12.23-37.16,22.99-10.24,11.75-17.82,25.41-22.56,40.24-2.27,7.1,8.88,10.13,11.14,3.07h0Z"/>
        <path class="st1" d="M1661.22,1807.11c-49.34,25.23-94.18,67.26-109.06,122.18-7.06,26.06-7.18,54.37.59,80.3,7.9,26.37,24.01,48.72,46.48,64.6,27.08,19.14,60.06,27.85,91.72,36.05,7.2,1.86,10.27-9.27,3.07-11.14-26.58-6.88-53.69-13.95-77.68-27.71-22.55-12.93-40.41-32.1-49.66-56.59-18.64-49.36-4-103.77,29.44-143.03,19.56-22.97,44.15-40.99,70.92-54.69,6.62-3.39.78-13.35-5.83-9.97h0Z"/>
        <path class="st1" d="M1912.6,1788.31c45.91,19.19,83.67,56.03,105.46,100.6,20.45,41.83,28.3,95.94,4.76,138.27-6.63,11.93-15.78,22.28-27.1,29.95-13.5,9.15-28.86,14.81-44.21,20.02-7,2.38-4,13.54,3.07,11.14,27.6-9.37,54.22-21.03,71.84-45.28,15-20.65,21.46-46.65,22.13-71.87,1.39-53.09-22.98-105.39-59.19-143.35-20.8-21.81-45.91-38.99-73.69-50.61-6.85-2.86-9.84,8.31-3.07,11.14h0Z"/>
        <path class="st1" d="M1702.43,1718.85c-.4-28.13-.18-67.63,30.48-80.95,25.62-11.13,54.4,3.49,69.89,24.33,9.68,13.02,15.79,28.21,20.14,43.74,2,7.15,13.15,4.11,11.14-3.07-8.53-30.49-25.11-61.98-55.86-74.68-14.05-5.81-30.38-7.47-45-2.71-15.36,4.99-27.03,16.83-33.67,31.35-8.91,19.47-8.97,41.01-8.66,62,.11,7.43,11.66,7.45,11.55,0h0Z"/>
        <path class="st1" d="M1749.69,1687.15c5.83-3.21,14.81-5.26,19.84.54,4.34,5,2.69,10.79-3.21,13.35-5.61,2.44-13.48,3.27-18.88-.12-4.58-2.87-6.31-9.47-1.84-13.16,5.73-4.74-2.48-12.87-8.17-8.17-8.75,7.23-7.29,21.42.65,28.69,9.25,8.47,24.81,7.85,35.3,2.13,11.02-6,13.15-19.55,5.63-29.29-8.56-11.09-23.95-10.11-35.14-3.95-6.51,3.58-.69,13.56,5.83,9.97h0Z"/>
        <path class="st1" d="M1724.4,1679.36c-.55.13-1.29.03-1.72-.35-.39-.35-.25-.91-.49-1.21-.18-.23.2.16-.25.38,0,0,.25-.29.26-.3-.1.14-.79.52-.21.16-.19.05-.38.1-.57.15.47-.04.49-.06.08-.04-.9.09.67.16-.2,0-.33-.1-.37-.1-.12,0,.24.12.21.09-.09-.07-.29-.17-.33-.2-.11-.07.12.05.22.13.28.25.04.1.47.99.2.37-.08-.33-.1-.33-.06,0,.02.34.03.34.01,0,0-.34,0-.35-.06,0-.07.34-.07.34.01,0,.1-.32.08-.33-.04-.03-.14.29-.14.29.03,0,.55-.44-.46.45-.48.46,2.6-1.71,3.7-5.11,2.07-7.9-1.51-2.59-5.28-3.79-7.9-2.07-4.38,2.88-6.36,8.37-4.45,13.35,2.12,5.52,7.96,8.12,13.61,6.94,5.45-1.13,9.81-6.32,9.52-11.96-.32-6.29-6.32-10.68-12.39-9.21-3.03.74-4.84,4.16-4.03,7.1.85,3.09,4.06,4.77,7.1,4.03h0Z"/>
        <path class="st1" d="M1749.69,1659.68c-.57,1.72.34-1.08.07-.08-.26.34-.2.31.18-.1-.56.4-.57.43-.03.07,1.3-.56-1.05.06.36-.16,1.34-.21-.92-.11.32-.06.67.03.62.01-.15-.06.62.19.6.15-.08-.12.14.08.27.15.41.23-.53-.45-.57-.46-.11-.02-.39-.53-.47-.62-.25-.27.2.37.16.25-.12-.37.1.28.17.57.23.87-.08-.71-.11-.85-.09-.41.01.23,0,.45-.01.68.12-.78.11-.85-.03-.2-.26,1.19.2-.99-.13.26.44-.51.51-.6.23-.3-.3.29-.19.23.33-.19-.54.31-.51.31.11.02.64-.03.74-.04.3-.03-.43,0-.33.02.3.08-.63-.2-.64-.18-.04.06-.15-.08-.3-.17-.44-.25.47.42.46.41-.03-.04-.8-.59.04.42-.28-.45.22.31.31.65.26,1.03,0-.67-.01-.66-.06.05.66-3.05-.91-6.24-4.03-7.1-2.88-.79-6.44.97-7.1,4.03-1.35,6.29,2.74,12.66,9.16,13.89,6.85,1.31,12.53-3.95,12.99-10.65.41-5.97-3.69-11.33-9.66-12.14-6.1-.83-11.81,2.86-13.73,8.66-.98,2.96,1.14,6.31,4.03,7.1,3.14.86,6.12-1.06,7.1-4.03h0Z"/>
        <path class="st1" d="M1788.87,1666.39c.47-.97-.71.27.16-.33-.41.28-1.41.56-.54.42,1.16-.19-.84.44.33-.01-.55.21-.75-.3.1.07.4.13.3.09-.3-.13.47.3.52.33.16.09-.35-.36-.49-.62-.71-1.06.38.76.09.18.14-.47-.18.57-.19.68-.04.32.18-.35.12-.26-.17.28.63-.74-.3.33-.49.48.8-.6-.59.22.01-.13.56-.33.88,0,.13-.17.84.18.79.45.41-.05.84,1.08-.68-.84.15.22-.16-.2-1.06-1.19-.38-.56-.05-.17-.1-.35-.15-.52.04.65.05.62.01-.07-.26,1.02.09-.26.19-.58,1-2.95-1.15-6.31-4.03-7.1-3.16-.87-6.1,1.07-7.1,4.03-1.86,5.49.84,12.09,5.94,14.82,5.66,3.02,12.57.55,15.55-5.01,3.14-5.87.65-12.93-5.59-15.28-4.93-1.86-11.37-.02-13.75,4.92-1.35,2.81-.77,6.24,2.07,7.9,2.53,1.48,6.54.75,7.9-2.07h0Z"/>
        <path class="st1" d="M1440.99,1719.35c11.29,9.49,22.03,19.57,32.21,30.23v-8.17c-10.07,8.72-20.81,16.49-32.19,23.41-6.34,3.85-.55,13.85,5.83,9.97,12.21-7.42,23.73-15.86,34.53-25.21,2.4-2.08,2.03-6.04,0-8.17-10.18-10.66-20.93-20.74-32.21-30.23-5.65-4.75-13.87,3.38-8.17,8.17h0Z"/>
        <path class="st1" d="M1513.23,1743.28c6.88-1.97,13.55-1.04,19.66,2.69-.88-1.15-1.77-2.3-2.65-3.45.75,4.1-6.72,5.33-9.27,5.72-1.28.2-10.81.87-8.83-2.38,3.87-6.37-6.11-12.18-9.97-5.83-4.18,6.87-.44,15.45,6.61,18.55,7.76,3.42,19.93,1.43,26.64-3.62,6.5-4.9,9.68-15.66,1.27-20.16-8.18-4.37-17.65-5.2-26.52-2.66-7.13,2.04-4.1,13.19,3.07,11.14h0Z"/>
        <path class="st1" d="M1511.58,1761.06c.42,4.92,1.51,11.99-2.13,16.03-3.19,3.53-9.22,2.68-12.42-.34-9.1-8.56-1.2-21.75,6.01-28.28,5.52-5-2.66-13.14-8.17-8.17-6.99,6.32-12.36,14.55-13.19,24.12-.76,8.78,2.94,18.24,10.49,23.14,6.92,4.49,16.68,4.54,23.31-.49,8.11-6.15,8.45-16.73,7.65-26.02-.64-7.35-12.19-7.42-11.55,0h0Z"/>
        <path class="st1" d="M1517.04,1761.06c-.36,9.81,4.78,19.68,14.25,23.29,8.96,3.41,19.44.22,24.37-8.13,4.58-7.77,3.45-17.93.35-26.01-3.09-8.06-11.93-17.2-20.92-10.51-5.9,4.39-.14,14.41,5.83,9.97,2.9-2.16,5.14,6.91,5.59,8.86.87,3.78,1.22,8.38-.82,11.86-2.27,3.87-7.38,4.78-11.26,2.79-4.49-2.31-6.02-7.41-5.85-12.11.27-7.43-11.28-7.42-11.55,0h0Z"/>
        <path class="st1" d="M1575.56,1710.6c-8.31,6.59-16.62,13.19-24.94,19.78-3.59,2.85-1.2,8.5,2.55,9.65,9.91,3.05,19.66,6.58,29.18,10.71,6.75,2.93,12.64-7.02,5.83-9.97-10.44-4.53-21.06-8.52-31.94-11.87.85,3.22,1.7,6.43,2.55,9.65,8.31-6.59,16.62-13.19,24.94-19.78,5.82-4.62-2.4-12.74-8.17-8.17h0Z"/>
        <path class="st1" d="M1389.64,1769.69c-13.11-5.79-26.21-11.57-39.32-17.36-6.74-2.97-12.62,6.97-5.83,9.97,13.11,5.79,26.22,11.57,39.32,17.36,6.74,2.97,12.62-6.97,5.83-9.97h0Z"/>
        <path class="st1" d="M1379.98,1795.94h-24.22c-7.43,0-7.44,11.55,0,11.55h24.22c7.43,0,7.44-11.55,0-11.55h0Z"/>
        <path class="st1" d="M1656.02,1744.64c4.89-3.15,9.78-6.31,14.68-9.46,6.23-4.01.44-14.02-5.83-9.97-4.89,3.15-9.78,6.31-14.68,9.46-6.23,4.01-.44,14.02,5.83,9.97h0Z"/>
        <path class="st1" d="M1654.12,1776.48c3.23.32,6.46.64,9.69.97,3.11.31,5.77-2.88,5.77-5.77,0-3.38-2.66-5.46-5.77-5.77-3.23-.32-6.46-.64-9.69-.97-3.11-.31-5.77,2.88-5.77,5.77,0,3.38,2.66,5.46,5.77,5.77h0Z"/>
        <path class="st1" d="M1512.9,1653.48c.3,12.04,1.36,26.19,6.62,37.21,4.24,8.89,17.2,13.84,23.28,3.66,2.41-4.04,2.46-8.95,2.28-13.5-.26-6.54-.82-13.08-1.63-19.57-.63-5.1-.76-11-4.95-14.65-4.21-3.67-9.83-3.21-14.95-2.35-2.52.42-4.17,3.22-4.24,5.57-.44,14.34,1.76,28.59,6.57,42.11,2.27,6.39,10.57,4.88,11.34-1.54,1.59-13.21.95-26.37-1.63-39.42-1.44-7.29-12.57-4.2-11.14,3.07,2.37,12.02,2.68,24.19,1.21,36.35l11.34-1.54c-4.5-12.64-6.57-25.63-6.16-39.04-1.41,1.86-2.83,3.71-4.24,5.57,3.22-.54,4.33-.57,4.86,2.76.56,3.49.89,7.03,1.22,10.54.32,3.42.56,6.84.73,10.26.1,2.05,1.1,6.85-.24,8.66-2.63,3.56-5.65-9.76-6-11.29-1.71-7.54-2.56-15.16-2.75-22.88-.18-7.42-11.73-7.45-11.55,0h0Z"/>
        <path class="st1" d="M1490.46,1655.45c-.12,8.64,2.03,31.61,16.22,27.05,5.82-1.87,7.68-8.01,6.97-13.5-.92-7.09-2.88-14.17-4.36-21.17-.83-3.94-7.01-5.97-9.65-2.55-4.01,5.19-6.18,10.44-6.93,16.97-.84,7.37,10.71,7.31,11.55,0,.36-3.15,1.6-6.29,3.54-8.8l-9.65-2.55c.77,3.66,1.54,7.31,2.32,10.97.51,2.41.6,7.45,1.86,9.43-.17,1.34.65,1.38,2.46.14-.22-.4-.45-.8-.67-1.19-.12-1.38-1.2-3.39-1.5-4.81-.68-3.27-.66-6.65-.61-9.98.11-7.43-11.44-7.44-11.55,0h0Z"/>
        <path class="st1" d="M1553.71,1652.57c-.88,10.55,2.85,20.57,9.92,28.36,2.32,2.56,7.55,2.16,9.07-1.17,5.57-12.21,1.98-24.44-2.88-36.25-1.87-4.54-10.12-6.35-11.14,0-1.26,7.87-1.27,15.42-.03,23.28,1.15,7.32,12.28,4.21,11.14-3.07-.89-5.67-.88-11.48.03-17.14h-11.14c3.38,8.19,8.04,18.59,4.05,27.35l9.07-1.17c-5.13-5.65-7.17-12.65-6.54-20.2.62-7.41-10.93-7.37-11.55,0h0Z"/>
        <path class="st1" d="M1724.78,1872.16c-.43.42-.86.83-1.3,1.25.02.39.15.74.41,1.05.11.77.75,1.82,1,2.61.77,2.5,1.39,5.06,1.91,7.62,1.17,5.72.56,10.59.49,16.27-.14.57-.28,1.15-.42,1.72.4-.29.8-.57,1.2-.86-.35-.65-1.56-1.28-2.07-1.94-1.24-1.61-1.96-3.59-2.55-5.51-1.63-5.3-2.42-10.82-2.46-16.35-.02-2.42.08-4.84.35-7.25.17-1.58.42-3.18.77-4.74.08-.34.91-2.48.84-2.71.79-1.1.07-1.26-2.18-.47.28.45.55.9.83,1.35.26.93,1.08,1.91,1.5,2.79,1.06,2.17,1.85,4.44,2.48,6.77,2.59,9.56,1.67,19.85-2.71,28.74h9.97c-5.31-9.74-6.2-20.74-2.86-31.28h-11.14c1.84,5.55,2.38,11.07,1.22,16.84-1.46,7.26,9.67,10.36,11.14,3.07,1.56-7.77,1.28-15.43-1.22-22.98-1.8-5.42-9.38-5.54-11.14,0-4.27,13.45-2.72,27.82,4.02,40.18,1.98,3.64,8.06,3.89,9.97,0,6.69-13.62,7.62-29.47,1.82-43.59-2.36-5.74-5.96-13.87-13.4-13.25-7.85.66-10.14,9.54-11.05,15.93-1.85,13.05-1.5,33.81,9.95,42.87,5.53,4.38,14.04,4.66,17.17-2.63,3.07-7.14,2.36-15.96,1.11-23.42-1.22-7.32-2.95-18.03-10.6-21.44-6.37-2.84-15.48,1.72-14.6,9.35.84,7.3,12.4,7.38,11.55,0h0Z"/>
        <path class="st1" d="M1779.49,1877.43c2.3-.89,4.61-1.9,7.09-1.67.87.08.98-.68.19-.05-.92.72-2.38,1.3-3.41,1.75-1.87.82-4.27,1.88-6.37,1.54-1.37-.22-1.86-1.07-2.44-.89,4.93-1.57,6.03-10.22,0-11.14-10.25-1.57-18.78,4.59-22.25,14.16-3.48,9.58-3.67,24.33,2.35,32.91,5.89,8.39,16.75,10.18,24.67,3.46,9.33-7.92,8.08-20.32,6.07-31.14-1.2-6.51-11.33-4.83-11.34,1.54-.02,9.65.28,21.7,8.27,28.5,6.77,5.76,16.83,3.36,22.21-3.12,6.48-7.8,5.25-18.93,3.48-28.18-1.64-8.59-4.41-21.51-15.73-19.67-7.32,1.19-4.21,12.32,3.07,11.14-1.97.32-1.77-.27-.98,1.84.42,1.14.73,2.34,1.05,3.52.73,2.65,1.32,5.35,1.78,8.06.8,4.75,1.86,11.57-1.35,15.68-2.98,3.83-6.43,2.78-8.25-1.41-2.21-5.09-2.02-10.91-2.01-16.35-3.78.51-7.56,1.02-11.34,1.54,1.01,5.44,2.61,12.44-.71,17.4-3.19,4.76-8.19,3.96-10.39-1.17-2.59-6.02-3.11-29.3,8.33-27.55v-11.14c-7.11,2.26-10.35,10.52-6.44,17.02,4.45,7.38,14.05,7.55,21.21,4.7,6.93-2.76,15.19-7.86,11.92-16.59-3.5-9.36-14.07-8.79-21.76-5.81-6.86,2.66-3.88,13.83,3.07,11.14h0Z"/>
        <path class="st1" d="M1837.7,1862.72c-.34-2.99.04-5.11,1.66-7.65h-9.97c6.42,9.27,7.33,21.04,1.79,30.98h9.97c-7.41-10.49-8.75-23.21-3.85-35.06-3.22.85-6.43,1.7-9.65,2.55,3.3,3.77,5.39,8.46,6.03,13.43.53,4.11.45,10.98-2.39,14.4l4.08-1.69c-.39,0-.78.02-1.18.03l4.08,1.69c-4.02-3.28-4.13-13.42-3.96-18.12.11-3.09.58-6.1,1.41-9.07.08-.27,1.63-4.24,1.52-4.44-2.68-.24-3.48.18-2.39,1.26.5.6.9,1.26,1.21,1.99,2.9,5.29,4.17,11.64,4.07,17.63-.05,3.27-1.55,6.66-1.51,9.79-.18.38-.35.75-.53,1.13,2.75.92,3.33.37,1.76-1.65,0-1.64-.99-3.56-1.12-5.27-.59-7.36-12.15-7.42-11.55,0,.48,6,2.23,15.18,8.63,17.78,6.37,2.58,11.71-2.64,13.72-8.29,4.34-12.24,2.79-31.42-6.45-41.28-4.4-4.69-11.79-5.37-15.47.58-3.6,5.81-4.75,13.97-4.86,20.67-.12,7.21,1.21,14.93,4.36,21.46,3.13,6.49,10.76,7.76,14.5,1.04,7.33-13.17,3.78-30.33-5.79-41.25-3.18-3.63-8.14-1.11-9.65,2.55-5.93,14.36-3.94,31.29,5.02,43.96,2.4,3.4,7.71,4.05,9.97,0,7.43-13.33,6.95-30.02-1.79-42.64-2.49-3.6-7.53-3.83-9.97,0-2.6,4.07-3.78,8.67-3.23,13.48.83,7.3,12.39,7.39,11.55,0h0Z"/>
        <path class="st1" d="M1765.6,1791.18c.3,7.83,1.47,15.64,3.81,23.12,1.73,5.54,3.93,14.26,9.74,16.92,16.16,7.41,14.11-26,13.25-33.46-.69-5.95-1.19-12.56-5.48-17.2-4.08-4.41-10.75-4.91-15.33-.93-5.49,4.77-5.06,11.75-4.2,18.33,1.1,8.41,2.66,16.73,4.7,24.96,1.3,5.27,10.15,5.74,11.14,0,1.95-11.32,2.47-22.64,1.25-34.08-.77-7.22-11.6-7.6-11.55,0,0,.78.01,1.56.02,2.34.05,7.43,11.6,7.45,11.55,0,0-.78-.01-1.56-.02-2.34h-11.55c1.11,10.36.93,20.73-.83,31.01h11.14c-2.18-8.81-4.92-18.71-4.92-27.83,0-1.01-.16-2.83.71-3.64-.83-.26-.88-.06-.14.62.4.67.69,1.38.87,2.14,1.12,3.49,1.26,7.47,1.57,11.09.35,4.1.57,8.32.11,12.43-.07.59-1.62,7.03-1.55,7.08,1.55-.2,3.1-.41,4.65-.61-.51-.87-.95-1.78-1.33-2.71-3.8-8.56-5.68-17.91-6.04-27.23-.29-7.41-11.84-7.44-11.55,0h0Z"/>
        <path class="st1" d="M1737.23,1796.61c-.79,7.74,2.41,28.28,14.31,25.31,11.5-2.88,6.68-23.59,4.22-31.17-1.08-3.33-5.24-5.64-8.48-3.45-4.76,3.21-7.01,8.35-5.32,13.99,2.13,7.1,13.28,4.08,11.14-3.07-.35-.35-.35-.67.02-.95-2.83-1.15-5.66-2.3-8.48-3.45.97,2.97,1.76,5.98,2.11,9.09.16,1.42.24,2.85.25,4.28,0,.36-.44,4.45-.22,4.71,1.74-.11,3.49-.23,5.23-.34-.43-.65-.82-1.32-1.17-2.02-.6-1.18-1.08-2.39-1.45-3.67-.89-3.07-.93-6.09-.6-9.26.76-7.39-10.8-7.33-11.55,0h0Z"/>
        <path class="st1" d="M1800.1,1790.1c-.29,6.57.86,13.56,4.08,19.39,2.63,4.75,8.25,8.08,13.39,4.71,10.05-6.6,3.43-24.06-2.13-31.34-2.55-3.34-9.78-4.17-10.55,1.38-.77,5.52-.66,10.67.69,16.1,1.8,7.21,12.94,4.15,11.14-3.07-.82-3.28-1.16-6.59-.69-9.96l-10.55,1.38c1.7,2.22,3.18,4.54,4.13,7.18.95,2.66.54,5.58,1.34,8.11-.05.27-.1.54-.14.81,3.41,1.01,4.62.79,3.63-.66,0-.99-1.24-2.71-1.6-3.82-1.07-3.37-1.33-6.7-1.17-10.21.33-7.43-11.22-7.41-11.55,0h0Z"/>
        <path class="st1" d="M1675.13,1910.16c-7.39-1.98-14.61-4.45-21.6-7.57-6.73-3-12.61,6.95-5.83,9.97,7.92,3.53,15.99,6.48,24.36,8.73,7.19,1.93,10.25-9.21,3.07-11.14h0Z"/>
        <path class="st1" d="M1666.61,1934.13c-8.16,1.89-16.09,4.41-23.85,7.59-6.78,2.78-3.81,13.96,3.07,11.14,7.75-3.18,15.68-5.7,23.85-7.59,7.24-1.67,4.17-12.81-3.07-11.14h0Z"/>
        <path class="st1" d="M1908.48,1890.54c5.98-3.68,12.24-6.01,19.15-7.25,7.3-1.31,4.21-12.44-3.07-11.14-7.78,1.39-15.18,4.27-21.91,8.41-6.32,3.89-.52,13.88,5.83,9.97h0Z"/>
        <path class="st1" d="M1915.29,1919.46h17.34c7.43,0,7.44-11.55,0-11.55h-17.34c-7.43,0-7.44,11.55,0,11.55h0Z"/>
        <path class="st1" d="M1416.52,2026.02c-5.82,28.09-5.66,59.97,5.05,86.97,4.65,11.72,12.08,22.21,23.56,28.04,12.28,6.24,26.79,7.83,40.38,6.97,23.95-1.52,54.44-9.21,66.72-32.12,10.72-19.99,4.87-45.04-8.94-61.96-18.43-22.58-49.92-29.11-77.6-29.55-7.43-.12-7.44,11.43,0,11.55,21.35.34,44.33,4.21,61.36,18.08,14.23,11.6,23.01,31.85,17.65,50.03-6.33,21.47-31.84,28.86-51.52,31.65-11.92,1.69-24.53,1.52-36.08-2.16-11.25-3.58-18.98-11.41-23.73-22.07-11.11-24.92-11.14-56.1-5.7-82.36,1.5-7.25-9.63-10.36-11.14-3.07h0Z"/>
        <path class="st1" d="M1694.1,2120.6c1.55,33.22,11.02,70.17,42.76,86.92,13.41,7.08,29.77,9.63,44.13,3.84,7.18-2.89,13.62-7.59,17.84-14.17,4.69-7.32,5.14-16.11,4.33-24.53-2.17-22.45-6.6-44.76-12.51-66.51-1.95-7.16-13.09-4.12-11.14,3.07,4.46,16.42,7.97,33.09,10.41,49.93,2.06,14.19,5.69,30.74-8.84,39.36-24.8,14.73-53.64-6.66-64.64-28.65-7.6-15.19-10.02-32.49-10.81-49.27-.35-7.4-11.9-7.44-11.55,0h0Z"/>
        <path class="st1" d="M1846.42,2101.28c1.66,30.41-12.3,71.17,17.73,92.69,11.36,8.13,26.8,8.28,39.19,2.51,14.37-6.69,20.37-21.23,24.46-35.6,5.89-20.67,9.25-42.02,10.31-63.48.37-7.43-11.18-7.41-11.55,0-.79,16.01-2.93,31.87-6.56,47.49-2.92,12.57-5.73,29.18-16.29,37.86-8.56,7.02-21.84,8.42-31.43,2.75-10.55-6.24-15.03-19.28-16.13-30.88-1.68-17.79,2.8-35.52,1.82-53.35-.4-7.39-11.96-7.44-11.55,0h0Z"/>
        <path class="st1" d="M1471.12,2155.38c5.93,25.15,13.62,49.87,23.11,73.91,4.59,11.62,9.56,23.09,14.92,34.38,4.92,10.35,9.69,21.43,17.4,30.06,14.6,16.37,38.23,16.84,58.4,14.38,20.95-2.56,45.79-5.36,59.26-23.7,3.41-4.65,5.82-10.1,6.68-15.82.4-2.65.48-5.22.16-7.88-.14-1.19-.31-2.37-.59-3.53-.23-.94-1.68-3.38-1.5-4.31-.16-.1-.32-.21-.48-.31,1.04-.27,2.09-.51,3.14-.73,1.93-.44,3.86-.87,5.8-1.3,3.86-.87,7.73-1.73,11.59-2.6,7.73-1.73,15.46-3.47,23.19-5.2,7.25-1.62,4.18-12.76-3.07-11.14-12.88,2.89-25.76,5.77-38.65,8.66-4.31.97-8.94,1.66-11.73,5.46-3.58,4.87-.58,9.5.58,14.53,2.15,9.36-4,19.11-11.41,24.35-9.09,6.43-20.54,8.51-31.31,10.25-18,2.91-40.95,6.97-56.84-4.62-8.71-6.36-13.23-17.18-17.84-26.58-5.47-11.15-10.56-22.49-15.2-34.01-10.12-25.12-18.26-50.99-24.48-77.34-1.71-7.23-12.85-4.17-11.14,3.07h0Z"/>
        <path class="st1" d="M1690.23,2243.65c.22,12.64,7.01,23.66,17.04,31.06,12.03,8.87,27.48,10.75,41.98,8.94,12.93-1.61,29.78-4.35,36.53-17.02,7.15-13.43,8.45-31,7.09-45.86-.67-7.34-12.23-7.41-11.55,0,1.12,12.26.1,24.76-4,36.43-1.85,5.28-4.75,8.62-10.04,10.59-5.68,2.11-11.9,3.43-17.89,4.28-11.29,1.6-23.47.88-33.35-5.31-8.06-5.05-14.1-13.39-14.27-23.11-.13-7.42-11.68-7.45-11.55,0h0Z"/>
        <path class="st1" d="M1787.13,2216.2c10.12,6.81,20.23,13.62,30.35,20.42,9.12,6.14,18.97,11.82,27.42,18.88,8.33,6.97,10.33,14.88,12,25.2,1.35,8.34,3.65,16.84,10.3,22.58,11.61,10.01,29.62,7.86,41.67-.21,15.86-10.62,20.5-30.14,22.02-48.07.47-5.49.65-10.99.86-16.5.15-3.88-.25-9.82,3.88-11.77,2.52-1.19,5.95-1.18,8.65-1.59,3.17-.48,6.34-.96,9.51-1.43,6.98-1.05,13.95-2.1,20.93-3.15-2.37-1.34-4.74-2.69-7.1-4.03,3.5,15.72,12.11,32.03,27.69,38.53,13.14,5.48,30.2,2.68,38.78-9.33,5.26-7.36,5.74-16.81,5.48-25.54-.3-10.26-1.02-20.52-2.03-30.74-2.01-20.39-5.26-40.67-9.79-60.66-5.12-22.54-11.89-44.66-20.17-66.23-2.64-6.87-13.81-3.89-11.14,3.07,12.64,32.95,21.72,67.21,26.89,102.12,2.57,17.35,4.17,34.9,4.69,52.44.22,7.26.39,16.01-5.47,21.31-4.21,3.8-10.21,5.12-15.75,4.66-16.47-1.36-24.88-18.46-28.05-32.7-.73-3.3-4.15-4.48-7.1-4.03-11.41,1.72-22.86,3.3-34.25,5.16-9.24,1.51-15.1,6.68-16.55,16.07-2.86,18.53.49,37.87-10.19,54.56-6.6,10.33-24.29,18.52-35.3,9.9-6.68-5.23-6.84-15.17-8.19-22.81-1.61-9.18-5.38-17.04-12.31-23.4-8.69-7.97-19.35-14.04-29.1-20.6-10.94-7.36-21.87-14.72-32.81-22.08-6.18-4.16-11.97,5.84-5.83,9.97h0Z"/>
        <path class="st1" d="M2037.64,2151.45c20.12-9.69,31.74-30.21,36.35-51.37,2.5-11.48,3.03-23.08,2.45-34.78-.65-12.98-2.28-28.03,6.38-38.94,3.02-3.8,7.25-6.9,12.19-7.39,6.76-.68,12.81,3.68,17.24,8.31,8.71,9.09,13.94,21.69,16.84,33.77,6.57,27.41.08,56.09-13.03,80.56-12.64,23.61-33.22,49.33-61.87,52.07-7.33.7-7.41,12.26,0,11.55,27.64-2.65,49.03-22.08,63.83-44.37,16.91-25.46,27.7-56.47,24.75-87.31-1.4-14.61-5.51-28.97-12.94-41.68-6.71-11.49-17.03-22.94-31.05-24.33-13.24-1.32-24.59,8.13-29.85,19.66-6.51,14.26-4.04,29.87-3.76,45,.49,26.29-7.83,57-33.36,69.29-6.69,3.22-.84,13.19,5.83,9.97h0Z"/>
        <path class="st1" d="M1494.05,2252.44c-21.66,5.89-44.48,11.14-67.03,7.94-18-2.55-36.71-10.82-47.35-26.15-9.38-13.52-11.84-32.96-3.02-47.38,4.47-7.31,12.93-14.44,21.98-11.03,8.47,3.18,14.87,11.37,21.9,16.8,16.9,13.06,38.97,22.72,60.32,15.38,6.99-2.4,3.99-13.56-3.07-11.14-21.91,7.53-42.99-6.48-58.68-20.55-7.35-6.59-15.73-13.35-26.2-12.95-10.73.41-19.8,7.88-25.48,16.49-10.53,15.96-9.64,37.47-1.31,54.12,9.36,18.72,28.89,30.74,48.68,35.72,27.35,6.88,55.69,1.12,82.33-6.12,7.16-1.95,4.12-13.09-3.07-11.14h0Z"/>
        <path class="st1" d="M2006.02,2106.52c-10.96,3.68-21.64,8.37-31.58,14.3-7.41,4.42-16.13,12.22-11.83,21.79,4.14,9.21,15.46,10.42,24.21,8.82,11.89-2.17,23.64-7.26,35.1-11.03,7.03-2.31,4.02-13.46-3.07-11.14-8.22,2.7-16.45,5.41-24.67,8.1-4.59,1.5-16,6.39-20.13,1.61-3.76-4.35,9.79-10.28,12.66-11.79,7.2-3.8,14.66-6.93,22.38-9.53,7.01-2.36,4-13.51-3.07-11.14h0Z"/>
        <path class="st1" d="M1997.33,2075.09c-7.92,1.01-16.61,2.22-22.54,8.16-4.58,4.58-6.59,11.85-4.59,18.08,5.78,18.04,31.3,6.63,41.28-.75,5.91-4.37.16-14.4-5.83-9.97-3.76,2.78-7.77,5.17-12.19,6.71-2.68.93-10.3,4.01-12.17.74-1.48-2.59.86-6.19,2.87-7.62,3.7-2.65,8.79-3.23,13.18-3.79,7.27-.93,7.37-12.49,0-11.55h0Z"/>
        <path class="st1" d="M2010.35,2154.42c-7.65,4.72-22.61,19.3-12.48,28.37,8.69,7.79,25.58,2.08,33.91-3.36,2.25-1.47,3.23-3.91,2.65-6.52-1.14-5.16-1.96-10.54-3.44-15.61-.88-3-2.18-5.86-5.17-7.27-7.24-3.4-15.73,4.88-19.69,10.15-4.57,6.08-3.41,14.64,5.5,15.12,7.89.42,14.77-4.04,19.21-10.23,4.15-5.78-4.38-10.7-9.07-7-6.86,5.43-14.16,10.23-21.77,14.56-6.46,3.68-.65,13.66,5.83,9.97,8.48-4.82,16.45-10.32,24.1-16.37-3.02-2.33-6.05-4.67-9.07-7-2.06,2.86-4.36,3.09-7.23,4.48-1.95-.29-2,.42-.13,2.12.66,2.48,1.39,2.71,2.21.69,1.19-.91,2.12-2.36,3.31-3.33l1.33-.99c2.12-.73,1.84-1.75-.82-3.05-.09.04,1.13,4.86,1.18,5.11.86,3.9,1.72,7.8,2.58,11.71l2.65-6.52c-5.77,3.77-11.51,5.16-18.34,5.08-.66,0-1.3-.11-1.93-.33.24.25.47.49.71.74.46-1.32,1.64-2.98,2.48-4.09,1.98-2.66,4.51-4.73,7.31-6.45,6.31-3.9.52-13.89-5.83-9.97h0Z"/>
        <path class="st1" d="M1983.07,2137.06c5.17-2.5,10.35-4.99,15.52-7.49,2.3-1.11,4.6-2.22,6.9-3.33,1.44-.69,2.87-1.39,4.31-2.08.57-.28,1.15-.55,1.72-.83,1.71-.47,1.49-1.57-.66-3.31.95-1.66,1.91-3.32,2.86-4.99-13.98,7.89-28.26,15.21-42.84,21.95-5.72,2.64-2.17,10.3,2.91,10.76,16.58,1.51,31.94-5.36,46.58-12.25,6.72-3.16.86-13.12-5.83-9.97-12.89,6.06-26.18,12-40.75,10.67.97,3.59,1.94,7.17,2.91,10.76,8.74-4.04,17.39-8.27,25.92-12.74,4.55-2.38,9.07-4.82,13.55-7.33,3.66-2.04,6.97-3.97,6.13-8.77-.6-3.4-3.37-6.21-6.76-6.96-4.18-.92-7.97,1.28-11.59,3.03-8.91,4.3-17.82,8.6-26.73,12.9-6.69,3.23-.84,13.19,5.83,9.97h0Z"/>
        <path class="st1" d="M1991.6,2091.69c3.38-3.53,8.19-5.7,13.16-4.98-.85-3.22-1.7-6.43-2.55-9.65-5.15,5.47-10.86,10.1-17.31,13.95-5.45,3.25-1.91,12.76,4.45,10.55,3.2-1.11,5.93-1.34,9.28-.91l-4.08-9.86c-.79.88-1.32,1.3-2.48,1.01,1.34,1.34,2.69,2.69,4.03,4.03-.58-1.39-1.16-2.78-1.74-4.17-1.2-2.87-3.83-4.95-7.1-4.03-2.71.76-5.25,4.2-4.03,7.1,1.9,4.54,3.12,8.41,8.78,8.7,4.07.21,8-1.45,10.71-4.48,3.6-4.03.83-9.22-4.08-9.86-4.18-.54-8.37-.06-12.35,1.32,1.48,3.52,2.97,7.04,4.45,10.55,7.25-4.33,13.87-9.61,19.65-15.76,2.66-2.83,2-8.98-2.55-9.65-9.12-1.34-17.94,1.18-24.4,7.95-5.13,5.38,3.02,13.55,8.17,8.17h0Z"/>
        <path class="st1" d="M1436.3,1654.75c-4.33.99-8.67,1.97-13,2.96-1.24.28-2.48.56-3.71.84-1.67-.07-1.98.14-.92.63-.56-.66-.3-2.31-.21-3.15.78-7.27,4.68-16.59,8.67-22.63,4.77-7.21,10.1,1.3,13.27,5.77,3.8,5.36,8.51,13.54,1.88,18.69-5.86,4.55,2.36,12.67,8.17,8.17,11.14-8.66,6.33-23.79-.55-33.36-6.76-9.39-18.42-20.41-29.38-9.44-4.56,4.56-7.03,11.24-9.32,17.14-2.26,5.83-4.78,12.3-4.21,18.66.5,5.56,3.8,10.35,9.59,11.11,3.32.44,6.58-.58,9.8-1.31,4.33-.99,8.67-1.97,13-2.96,7.24-1.65,4.18-12.78-3.07-11.14h0Z"/>
        <path class="st1" d="M1632.61,1632.17c-4.48.01-9.25,2.24-13.64,1.68-2.34-.3-2.4-.47-2.27-2.51.13-2.08,1.5-4.6,2.2-6.55.89-2.51,1.82-5.01,2.79-7.49.4-1.02,1.27-4.43,2.41-4.87,2.36-.91,10.2,6.45,11.56,8.15,2.73,3.43,3.4,7.78-.89,10.13-2.8,1.54-8.36,2.84-9.99-.95-1.31-3.05,2.08-6.97,5.22-4.91.8.53.88,1.73.99,1.92,1.79,1.14,1.91,1.91.37,2.31-1.17.24-1.3.54-.41.89.38.67,2.38,1.42,2.96,1.69,6.7,3.11,12.57-6.84,5.83-9.97-3.79-1.76-6.88-4.68-11.42-3.58-3.93.96-6.6,4.54-7.27,8.38-1.6,9.19,8.44,14.61,16,10.1,8.2-4.89,6.78-16.43-.65-21.29-7.47-4.9-18-1.84-21.98,6.08-4.21,8.37.51,18.74,9.28,21.55,8.23,2.64,19.62-1.14,23.88-8.9,5.12-9.35-.55-19.69-8.05-25.6-6.94-5.47-17.08-11.99-24.33-3.35-3.46,4.12-5.03,9.98-6.83,14.96-1.88,5.19-4.56,10.9-2.88,16.47,1.35,4.45,5.57,7.42,9.95,8.43,5.88,1.36,11.35-1.21,17.18-1.23,7.43-.02,7.44-11.57,0-11.55h0Z"/>
        <path class="st1" d="M1431.11,1643.58c3.64,1.28,3.98,6.27.32,7.78-.38.11-.77.21-1.15.32-1.07-.03-1.14-.04-.2-.01.91.24,1.14-.23.69-1.41.05-.43.1-.87.14-1.3.46-2.78,1.66-5.46,3.43-7.64-3.22-.85-6.43-1.7-9.65-2.55.14.47.12.37-.66.29l5.57,4.24c-.31-1.37-.04-3.12.91-1.45,1.58,2.79-1.19,6.88-2.48,9.27-3.52,6.54,6.45,12.38,9.97,5.83,2.51-4.66,4.89-9.65,4.34-15.08-.5-4.93-3.55-9.69-8.23-11.59-10.27-4.15-17.74,6.88-15.64,16.09.6,2.65,3.09,4,5.57,4.24,7.96.77,14.05-7.49,11.79-14.91-1.16-3.8-6.78-6.09-9.65-2.55-4.78,5.88-8.18,13.75-6.72,21.5,1.37,7.27,8.3,9.9,15.05,7.85,6.22-1.89,11.08-7.96,11.17-14.52.09-7.31-4.82-13.19-11.49-15.53-7.03-2.47-10.05,8.69-3.07,11.14h0Z"/>
      </g>
      <g>
        <path class="st1" d="M1040.11,276.98c3.53-15.74,9.55-30.68,18.15-44.34,7.8-12.39,17.87-25.44,31.39-31.9,13.2-6.31,27.81-3.76,36.14,8.65,9.11,13.56,15.01,29.54,18.82,45.33,1.74,7.22,12.88,4.16,11.14-3.07-3.53-14.63-8.98-28.8-16.3-41.95-6.33-11.36-14.85-21.06-28.29-23.27-28.55-4.71-50.32,19.92-63.77,41.85-8.62,14.05-14.81,29.57-18.41,45.65-1.62,7.24,9.51,10.33,11.14,3.07h0Z"/>
        <path class="st1" d="M1147.34,265.49c22.37-5.16,45.18-7.25,68.12-6.38,7.43.28,7.42-11.27,0-11.55-23.93-.92-47.86,1.41-71.19,6.79-7.24,1.67-4.18,12.81,3.07,11.14h0Z"/>
        <path class="st1" d="M1206.56,242.52c5.87-13.96,12.04-28.63,22.88-39.54,9.04-9.09,22.94-15.85,35.93-12.38,12.75,3.4,20.52,15.44,25.62,26.78,6.26,13.93,9.69,28.93,18.18,41.82,4.07,6.18,14.08.4,9.97-5.83-16.46-24.98-18.31-69.55-55.13-74.75-15.81-2.24-31.74,5.12-42.75,16.19-12.32,12.39-19.19,28.79-25.85,44.63-2.88,6.84,8.3,9.83,11.14,3.07h0Z"/>
        <path class="st1" d="M1019.63,287.11c-40.35,28.83-84.42,61.63-97.27,112.28-6.84,26.95-6.08,57.19.42,84.17,5.94,24.62,18.75,46.86,39.78,61.48,23.5,16.34,52.74,21.71,80.37,26.49,7.27,1.26,10.39-9.87,3.07-11.14-22.85-3.96-46.52-8.08-67.23-19.03-21.47-11.35-35.71-30.08-42.76-53.17-7.38-24.18-8.88-51.85-4.45-76.72,4.3-24.12,16.14-45.24,32.51-63.26,17.99-19.79,39.72-35.66,61.39-51.14,6-4.28.23-14.31-5.83-9.97h0Z"/>
        <path class="st1" d="M1316.33,266.6c44.2,22.24,84.13,58.89,99.39,107.16,7.54,23.84,8.92,49.78,2.98,74.13-5.95,24.4-19.29,45.46-38.5,61.59-22.6,18.97-50.64,30.45-77.68,41.51-6.79,2.78-3.82,13.95,3.07,11.14,25.63-10.48,51.73-21.15,74.16-37.71,21.86-16.15,38.51-37.32,47.15-63.24,17.28-51.85,1.39-108.04-32.95-148.99-19.58-23.34-44.66-41.9-71.79-55.55-6.62-3.33-12.48,6.63-5.83,9.97h0Z"/>
        <path class="st1" d="M1041.28,580.65c-4.12,51.89-4.19,104.98,2.52,156.67,2.32,17.88,6.77,37.23,19.48,50.79,13.08,13.95,33.99,17.13,50.59,7.52,3.82-2.21,7.37-5.1,10.22-8.47,3.49-4.13,5.48-9.21,8.82-13.42,3.35-4.22,8.31-5.23,13.3-6.35,6.54-1.45,13.12-2.72,19.72-3.82,12.7-2.12,25.52-3.52,38.38-4.27,5.38-.32,10.93-1.43,14.09,3.79,2.48,4.09,3.75,8.73,6.51,12.69,10.68,15.31,31.52,22.46,49.09,15.45,20.99-8.37,30.98-30.63,34.18-51.64,2.08-13.66,2.6-27.55,3.55-41.31,1.05-15.29,2.11-30.57,3.16-45.86,2.11-30.57,4.22-61.15,6.33-91.72.51-7.42-11.04-7.39-11.55,0-3.53,51.18-7.06,102.35-10.59,153.53-1.45,20.94-2.72,45.18-19.53,60.19-13.3,11.87-34.78,10.06-45.05-5.02-4.9-7.2-6.07-16.59-14.96-20.36-4.83-2.05-10.11-1.59-15.23-1.29-6.37.37-12.72.91-19.06,1.6-12.24,1.34-24.43,3.22-36.49,5.7-10.43,2.14-19.82,4.27-26.24,13.45-2.63,3.76-4.44,8.09-7.51,11.53-2.91,3.26-6.63,5.82-10.68,7.46-8.25,3.35-17.54,2.97-25.3-1.48-14.55-8.35-19.81-26.72-22.62-42.14-4.67-25.68-5.38-52.62-5.99-78.66-.66-28.21.18-56.44,2.41-84.58.59-7.41-10.96-7.37-11.55,0h0Z"/>
        <path class="st1" d="M1101.43,601.12c9.34,5.91,17.66,13.23,24.62,21.83,5.97,7.39,12.67,16.76,13.21,26.6.61,11.27-10.14,12.59-19.01,11.32-11.5-1.64-22.18-6.27-31.61-12.97-6.07-4.32-11.84,5.7-5.83,9.97,11.69,8.31,25.47,13.56,39.78,14.83,12.43,1.11,25.63-4.1,27.85-17.67,2.1-12.81-4.98-25.27-12.3-35.19-8.45-11.46-18.85-21.1-30.88-28.71-6.3-3.99-12.1,6.01-5.83,9.97h0Z"/>
        <path class="st1" d="M1231.25,605.33c-10.11,10.87-17.59,24.02-21.26,38.44-3.05,11.99-4.73,28.16,5.94,37.05,11.4,9.49,26.29,2.86,36.12-5.51,11.5-9.79,20.59-23.53,27.51-36.81,3.43-6.58-6.53-12.43-9.97-5.83-5.59,10.71-12.39,20.69-20.63,29.53-5.36,5.75-17.78,16.91-25.88,9.57-7.12-6.45-3.38-20.39-1.07-28.13,3.36-11.28,9.4-21.55,17.4-30.15,5.06-5.44-3.09-13.62-8.17-8.17h0Z"/>
        <path class="st1" d="M1076.73,396.06c14.38-6.95,28.75-13.9,43.13-20.85,6.69-3.23.84-13.2-5.83-9.97-14.38,6.95-28.75,13.9-43.13,20.85-6.69,3.23-.84,13.2,5.83,9.97h0Z"/>
        <path class="st1" d="M1245.37,373.73c12.75,4.7,24.72,11.45,35.3,19.98,5.73,4.62,13.96-3.5,8.17-8.17-12.23-9.86-25.65-17.51-40.4-22.95-6.98-2.57-10,8.58-3.07,11.14h0Z"/>
        <path class="st1" d="M1153.8,391.14c12.38,1.08,24.83-4.16,32.66-13.83-2.33.3-4.67.6-7,.9,12.04,8.55,26.55,16.28,40.98,8.35,6.52-3.58.7-13.56-5.83-9.97-10.21,5.61-21.22-2.59-29.32-8.35-1.89-1.34-5.5-.94-7,.9-6.14,7.58-14.77,11.29-24.49,10.45-7.4-.64-7.36,10.91,0,11.55h0Z"/>
        <path class="st1" d="M1429.24,374.22c3.3-2.53,6.88-4.71,10.79-6.18,2.92-1.09,4.91-3.9,4.03-7.1-.77-2.8-4.17-5.13-7.1-4.03-4.87,1.83-9.41,4.16-13.55,7.34-2.47,1.9-3.79,4.97-2.07,7.9,1.42,2.43,5.41,3.98,7.9,2.07h0Z"/>
        <path class="st1" d="M1431.54,418.12c6.76.93,13.51,1.86,20.27,2.78,3.11.43,6.16-.75,7.1-4.03.77-2.69-.95-6.68-4.03-7.1-6.76-.93-13.51-1.86-20.27-2.78-3.11-.43-6.16.75-7.1,4.03-.77,2.69.95,6.68,4.03,7.1h0Z"/>
        <path class="st1" d="M922.29,404.2c-9.89-2.79-19.78-5.58-29.66-8.38-7.16-2.02-10.22,9.12-3.07,11.14l29.66,8.38c7.16,2.02,10.22-9.12,3.07-11.14h0Z"/>
        <path class="st1" d="M917.83,456.85c-6.31,1.8-12.62,3.6-18.93,5.4-7.14,2.03-4.1,13.18,3.07,11.14,6.31-1.8,12.62-3.6,18.93-5.4,7.14-2.03,4.1-13.18-3.07-11.14h0Z"/>
        <path class="st1" d="M1036.82,699.57c-17.54,8.06-37.86,3.67-56.16,1.25-17.21-2.27-36.74-3.36-45.42,14.94-3.52,7.41-4.68,15.99-3.54,24.09,1.3,9.15,6.52,15.86,14.28,20.65,15.14,9.34,33.96,13.5,51.62,12.88,9.78-.34,19.63-2.09,28.84-5.41,8.73-3.15,18.04-7.27,22.55-15.89,3.44-6.58-6.52-12.42-9.97-5.83-3.28,6.27-10.85,8.98-17.2,11.12-7.03,2.38-14.35,3.87-21.76,4.33-15.08.93-30.5-1.88-43.98-8.81-7.05-3.62-12.49-7.81-13.18-16.22-.54-6.57.73-13.96,4.76-19.32,4.63-6.16,12.16-6.83,19.32-6.44,8.08.44,16.1,1.83,24.11,2.89,17.56,2.33,35.07,3.32,51.55-4.26,6.75-3.1.88-13.06-5.83-9.97h0Z"/>
        <path class="st1" d="M1181.54,365.78c1.97-.76,3.9-1.32,6.03-1.26.88.03,5.76,1.82,5.96,1.7.21-1.47.41-2.94.62-4.41-.6.24-1.19.48-1.79.72-1.08.12-2.22.7-3.3.94-2.56.56-5.23.7-7.84.45-1.61-.15-4.89-1.79-6.25-1.56-.79-.71-.99-.23-.61,1.44-.64,1.7-.44,2.16.62,1.38.62.07,2.35-.9,3.04-1.09,4.58-1.22,8.99-.54,13.33,1.22,6.88,2.8,9.88-8.37,3.07-11.14-8.25-3.35-22.7-3.82-29.06,3.82-3.11,3.74-2.36,8.87.97,12.22,3.61,3.63,9.14,4.71,14.04,5.18,7.05.69,26.02-1.06,24.6-11.87-1.43-10.93-18.73-11.89-26.5-8.89-6.86,2.64-3.88,13.82,3.07,11.14h0Z"/>
      </g>
      <g>
        <path class="st1" d="M1901.83,908.14c18.29-23.81,38.72-62.92,74.54-59.2,29.56,3.07,37.23,39.55,41.39,63.3,1.28,7.31,12.41,4.21,11.14-3.07-4.05-23.1-10.36-49.69-30.7-64.02-24.4-17.18-55.65-3.77-74.27,15.43-12.25,12.63-21.41,27.83-32.08,41.73-4.52,5.89,5.5,11.65,9.97,5.83h0Z"/>
        <path class="st1" d="M2018.13,917.11c23.79,5.21,47.82,9.11,72.02,11.79,7.38.82,7.32-10.74,0-11.55-23.18-2.57-46.18-6.39-68.95-11.38-7.24-1.59-10.34,9.55-3.07,11.14h0Z"/>
        <path class="st1" d="M2088.55,914.3c13-20.37,34.59-47.2,62.18-40,30.21,7.88,39.66,42.53,46.51,68.86,1.87,7.19,13.01,4.14,11.14-3.07-8-30.79-20.48-69.31-56-77.27-32.87-7.36-57.95,20.83-73.8,45.66-4.01,6.28,5.98,12.08,9.97,5.83h0Z"/>
        <path class="st1" d="M1892.49,904.34c-57.01,9.22-111.87,37.22-146.41,84.48-33.32,45.58-44.21,105.9-21.37,158.44,11.88,27.33,32.38,50.92,58.68,65.17,6.54,3.54,12.37-6.43,5.83-9.97-45.07-24.42-69.23-76.4-64.84-126.65,4.73-54.23,39.55-101.79,85.27-129.56,26.25-15.94,55.65-25.88,85.9-30.77,7.32-1.18,4.21-12.32-3.07-11.14h0Z"/>
        <path class="st1" d="M2215.48,959.96c43.54,22.85,75.51,63.56,91.16,109.85,16.59,49.06,17.26,110.41-12.35,154.83-16.4,24.6-42.35,41.98-71.05,48.63-7.24,1.68-4.17,12.81,3.07,11.14,27.06-6.26,52.02-21.52,69.74-42.95,19.87-24.03,29.27-54.22,32.32-84.89,5.2-52.3-10.12-106.86-41.22-149.16-17.45-23.74-39.7-43.69-65.84-57.41-6.58-3.45-12.42,6.51-5.83,9.97h0Z"/>
        <path class="st1" d="M1768.44,1197.51c-13.12-6.22-27.39-10.93-42.08-8.95-11.93,1.61-23.22,8.27-29.58,18.65-6.41,10.47-5.79,23.56.89,33.74,6.75,10.28,17.52,17.25,28.55,22.22,15.42,6.95,31.59,11.22,48.38,13.1,7.38.82,7.32-10.73,0-11.55-14.9-1.66-29.73-5.63-43.36-11.89-10.46-4.8-22.8-12.02-26.54-23.68-3.79-11.82,4.8-22.71,15.38-27.13,13.83-5.78,29.76-.6,42.55,5.46,6.68,3.16,12.55-6.79,5.83-9.97h0Z"/>
        <path class="st1" d="M2233.14,1285.74c14.73,2.51,30.17,1.68,44.56,5.99,11.03,3.3,23.22,11.14,24.55,23.63,1.46,13.67-9.3,25.11-20.67,30.77-13.2,6.57-29.03,8.05-43.53,9.09-18.32,1.31-36.79.68-54.96-1.98-7.27-1.06-10.41,10.06-3.07,11.14,18.92,2.77,37.99,3.75,57.08,2.46,16.96-1.15,34.9-3.07,50.31-10.74,13.82-6.87,24.82-19.86,26.33-35.58,1.43-14.96-8.12-27.75-20.7-34.78-17.47-9.76-37.74-7.88-56.83-11.13-7.27-1.24-10.39,9.89-3.07,11.14h0Z"/>
        <path class="st1" d="M1768.06,1281.34c-6.86,18.48-13.73,36.96-20.59,55.44-3.35,9.02-6.63,18.06-10.06,27.05-2.79,7.32-6.16,15.43-12.63,20.29-7.06,5.3-13.82,4.39-20.73-.4-6.08-4.23-11.9-8.09-19.58-8.21-13.75-.21-25.96,10.32-30.67,22.71-5.37,14.12.62,29.71,9.97,40.6,10.88,12.68,26.79,19.16,42.66,23.05,17.86,4.37,36.05,7.21,53.88,11.77,18.23,4.67,36.25,10.16,54.07,16.2,40.52,13.74,79.99,30.32,119.41,46.89,6.84,2.88,9.83-8.3,3.07-11.14-66.77-28.06-134.17-56.32-205.56-70.36-16.48-3.24-34.07-5.74-48.46-15.02-11.11-7.17-22.08-20.97-19.08-35.08,2.54-11.94,16.28-22.6,28.07-15.82,6.55,3.77,11.7,9.03,19.55,10.02,7.36.92,14.65-1.73,20.46-6.17,14.24-10.88,18.77-31.79,24.71-47.76,7.55-20.33,15.1-40.65,22.65-60.98,2.59-6.98-8.57-9.99-11.14-3.07h0Z"/>
        <path class="st1" d="M1935.73,1486.3c-.3-14.52-.29-29.82,5.84-43.31,5.2-11.46,15.1-21.56,28.32-22.22,32.78-1.65,27.66,46.39,28.09,67.24.15,7.42,11.7,7.45,11.55,0-.36-17.46,1.53-37.3-4.8-53.91-5.66-14.85-18.36-25.68-34.85-24.88-15.87.77-29.01,10.8-36.51,24.43-8.85,16.09-9.56,34.72-9.19,52.65.15,7.42,11.7,7.45,11.55,0h0Z"/>
        <path class="st1" d="M1957.53,1536.37c35.67,18.32,77.31,6.22,107.64-16.85,15.65-11.91,29.12-26.25,41.82-41.19,13.38-15.75,26.01-32.16,37.83-49.12,13.6-19.53,26.07-39.83,37.41-60.75,3.54-6.54-6.42-12.37-9.97-5.83-18.72,34.52-40.51,67.37-65.34,97.81-22.68,27.81-48.76,57.8-84.15,68.95-19.43,6.12-40.97,6.48-59.4-2.98-6.6-3.39-12.45,6.57-5.83,9.97h0Z"/>
        <path class="st1" d="M2003.4,1035.82c4.95-3.26,9.89-6.51,14.84-9.77,2.75-1.81,5.5-3.62,8.24-5.43,1.62-1.07,4.88-4.14,6.79-4.06,1.82.08,4.41,3.77,5.63,5.06,1.91,1.99,3.78,4.01,5.64,6.05,3.91,4.31,7.69,8.74,11.36,13.25,4.7,5.76,12.83-2.45,8.17-8.17-4.64-5.7-9.45-11.26-14.47-16.63-4-4.28-8.72-10.88-15.04-11.45-6.41-.58-12.2,4.86-17.2,8.15-6.59,4.34-13.19,8.68-19.79,13.03-6.18,4.07-.4,14.08,5.83,9.97h0Z"/>
        <path class="st1" d="M1974.77,971.98c3.26,3.26,6.52,6.52,9.78,9.77,1.63,1.63,3.26,3.26,4.89,4.89.7.7,1.4,1.4,2.1,2.09,1.62,2.33,2.17,1.75,1.64-1.73-.38-.31-11.13,5.37-11.94,5.7-3.99,1.61-8.06,2.97-12.19,4.18-7.11,2.09-4.09,13.24,3.07,11.14,6.08-1.79,12.01-3.98,17.8-6.56,4.72-2.1,11.79-4.39,13.87-9.59,2.17-5.42-1.98-9.18-5.49-12.69-5.12-5.12-10.25-10.24-15.37-15.36-5.26-5.26-13.43,2.9-8.17,8.17h0Z"/>
        <path class="st1" d="M2102.58,992c-8.83,1.21-17.66,2.41-26.49,3.62-2.95.4-4.98,4.46-4.03,7.1,4.41,12.37,11.88,23.21,22.28,31.3,5.8,4.51,14.03-3.61,8.17-8.17-8.8-6.85-15.54-15.66-19.31-26.21-1.34,2.37-2.69,4.74-4.03,7.1,8.83-1.21,17.66-2.41,26.49-3.62,7.33-1,4.21-12.13-3.07-11.14h0Z"/>
        <path class="st1" d="M2170.04,1047.79c9.34-1.11,18.68-2.23,28.01-3.34,7.29-.87,7.38-12.43,0-11.55-9.34,1.11-18.68,2.23-28.01,3.34-7.29.87-7.38,12.43,0,11.55h0Z"/>
        <path class="st1" d="M2172.07,1076.72c4.94,2.75,9.89,5.49,14.83,8.24,6.5,3.61,12.33-6.36,5.83-9.97-4.94-2.75-9.89-5.49-14.83-8.24-6.5-3.61-12.33,6.36-5.83,9.97h0Z"/>
        <path class="st1" d="M1884.05,988.54c-4.4-4.4-8.79-8.79-13.19-13.19-5.26-5.26-13.43,2.9-8.17,8.17l13.19,13.19c5.26,5.26,13.43-2.9,8.17-8.17h0Z"/>
        <path class="st1" d="M1876.57,1028.16c-7.69-1.13-15.37-2.27-23.06-3.4-3.11-.46-6.17.78-7.1,4.03-.78,2.71.95,6.65,4.03,7.1,7.69,1.13,15.37,2.27,23.06,3.4,3.11.46,6.17-.78,7.1-4.03.78-2.71-.95-6.65-4.03-7.1h0Z"/>
        <path class="st1" d="M2041.08,1004.34c-.61.27-1.25.38-1.92.33-.94-.34-1.42-1.08-1.43-2.22.22-.34.19-.35-.1-.04-.17.04-.35.09-.52.13-1.06-.2-2.11-.2-3.13-.66-.61-.27-1.57-1.29-1.23-.15.38,1.27-.31-.08.79-.38.44-.12.75-.21,1.22-.23,2.4-.08,5,1.98,6.88,3.23,6.21,4.13,12-5.87,5.83-9.97-6.9-4.59-16.17-7.42-22.71-.57-6.3,6.6-2.85,15.53,4.93,18.71,7.79,3.18,19.08.7,19.57-9.37.39-8.14-10.84-13.85-16.33-6.96-1.94,2.44-2.38,5.79,0,8.17,2.01,2.01,6.21,2.45,8.17,0h0Z"/>
        <path class="st1" d="M1955.96,903.33c1.05-.18,1.41-.46,1.08-.85-.05-.08-.12-.14-.21-.17.06-.17-.2-1.82-.12-2.29.43-2.65,2.1-5.19,3.4-7.49,1.44-2.53,2.99-5.01,4.65-7.4,1.03-1.49,2.31-2.91,3.29-4.43.37-.45.74-.9,1.11-1.35-3.88-1.2-5.02-1.1-3.44.32.31.98,2.12,2.63,2.67,3.52.75,1.21,1.38,2.48,1.86,3.81.93,2.57,1.35,5.32.88,8.03-.84,4.87-5.23,8.62-10.2,7.13,1.34,2.37,2.69,4.74,4.03,7.1,1.06-6.65,3.25-12.65,6.82-18.37-3.52-1.48-7.04-2.97-10.55-4.45-.54,2.91-1.08,5.82-1.62,8.73-1.37,7.38,8.44,9.97,11.14,3.07-1.78-.67-3.56-1.35-5.34-2.02.19-1.48.39-2.97.58-4.45-.12.27-.23.54-.35.81-2.92,6.75,7.03,12.64,9.97,5.83,2-4.62.4-9.9-4.96-11.28-5.73-1.48-9.24,3.44-11.04,8.04,3.71,1.02,7.42,2.05,11.14,3.07.54-2.91,1.08-5.82,1.62-8.73,1.17-6.28-6.94-10.23-10.55-4.45-4.05,6.48-6.78,13.57-7.99,21.12-.5,3.14.77,6.13,4.03,7.1,11.95,3.59,23.33-5.64,24.78-17.48.75-6.14-.82-12.37-3.86-17.72-2.68-4.71-7.41-11.49-13.67-9.59-5.38,1.64-9.41,9.25-12.26,13.71-3.37,5.26-7.29,11.38-7.76,17.78-.85,11.49,13.44,19.55,20.84,9.17,4.32-6.06-5.69-11.84-9.97-5.83h0Z"/>
        <path class="st1" d="M2140.28,926.59c-3.56-.74-2.26-5.21-.78-7.39,1.41-2.08,3.5-3.86,5.41-5.46,2.04-1.71,2.34-2.69,3.32.19.83,2.46,1.32,5.08,1.49,7.66.09,1.36-.86,6.69-.33,7.48-.31.94.04.81,1.07-.39,1.43-.67,1.63-1,.58-.99-.52-.51-2.73-.55-3.6-.82-2.52-.8-4.74-2.05-6.92-3.52l2.65,6.52c1.26-4.36,3.95-7.28,7.97-9.27-2.83-1.15-5.66-2.3-8.48-3.45.61,3.19-.43,5.74-2.3,8.29-4.41,5.99,5.61,11.76,9.97,5.83,3.75-5.11,4.64-11.05,3.47-17.18-.74-3.9-5.41-4.97-8.48-3.45-6.64,3.29-11.24,9.09-13.28,16.17-.75,2.59.53,5.09,2.65,6.52,6.68,4.51,22.37,11.06,25.73-.65,2.49-8.68,1.45-25.68-7.14-31.01-9.21-5.72-20.96,5.92-24.85,13.67-4.16,8.28-1.29,20.32,8.79,22.41,7.25,1.5,10.35-9.63,3.07-11.14h0Z"/>
      </g>
      <g>
        <path class="st1" d="M1669,324.38c3.78-32.41,14-71.09,48.02-83.76,14.96-5.57,30.34-3.67,42.98,6.23,12.52,9.8,21.39,23.47,33.22,34.02,5.53,4.93,13.73-3.21,8.17-8.17-20.56-18.33-35.32-46.27-66.29-46.88-29.33-.59-53.73,21.14-65.05,46.71-7.28,16.46-10.53,34.06-12.6,51.84-.86,7.37,10.7,7.31,11.55,0h0Z"/>
        <path class="st1" d="M1772.59,295.79c23.59-9.83,47.18-19.66,70.77-29.49,6.76-2.82,3.79-14-3.07-11.14-23.59,9.83-47.18,19.66-70.77,29.49-6.76,2.82-3.79,14,3.07,11.14h0Z"/>
        <path class="st1" d="M1832.41,255.47c-2.31-29.01,7.86-62.78,38.4-72.57,31.14-9.99,59.06,19.69,74.52,43.29,4.06,6.19,14.06.41,9.97-5.83-7.92-12.1-17.42-23.13-28.51-32.44-11.03-9.25-23.41-17.04-38.03-18.53-26.22-2.68-50.49,15.73-60.68,38.91-6.51,14.82-8.5,31.11-7.22,47.17.58,7.36,12.14,7.42,11.55,0h0Z"/>
        <path class="st1" d="M1659.96,329.73c-33.84,38.13-58.1,88.97-52.54,141.02,5.06,47.36,32.95,90.78,78.42,108,27.66,10.48,58.07,10.66,86.99,6.51,7.33-1.05,4.21-12.18-3.07-11.14-46.17,6.63-96.94-1.5-126.51-40.94-27.05-36.07-30.81-83.45-16.73-125.41,8.69-25.91,23.54-49.51,41.62-69.88,4.92-5.54-3.22-13.74-8.17-8.17h0Z"/>
        <path class="st1" d="M1962.09,239.23c35.63-1.96,73.02,6.96,100.06,31.29,28.5,25.64,41,65,38.36,102.65-1.54,21.95-8.53,43.26-20.32,61.82-4,6.29,5.99,12.09,9.97,5.83,22.55-35.5,28.18-80.82,15.86-120.97-11.96-38.99-40.38-68.88-78.58-83-20.78-7.68-43.3-10.38-65.35-9.16-7.39.41-7.44,11.96,0,11.55h0Z"/>
        <path class="st1" d="M1830.22,345.1c3.76-.16,7.11-1.34,10.76-2.02,1.71-.32,2.72-.43,4.32.18.72.76.84.6.35-.48-.41.48-.87.9-1.38,1.26-3.01,1.67-6.04,4.87-9.79,4.66-1.12-.06-1.54-.15-2.37-.96-.88-.87-.35-1.35-.54-1.15,5.2-5.31-2.96-13.49-8.17-8.17-5.24,5.35-3.89,13.48,1.41,18.3,7.12,6.47,17.21,2.84,24.16-1.91,6.39-4.37,11.77-12.38,5.09-19.26-2.52-2.59-6.2-4.08-9.78-4.29-4.87-.29-9.29,2.09-14.07,2.29-7.41.31-7.44,11.86,0,11.55h0Z"/>
        <path class="st1" d="M1838.45,361.7c3.9,6.93,7.8,13.87,11.69,20.81,3.64,6.48,13.62.66,9.97-5.83-3.9-6.93-7.8-13.87-11.69-20.81-3.64-6.48-13.62-.66-9.97,5.83h0Z"/>
        <path class="st1" d="M1892.82,314.05c-.41-2.26,2.5-2.78,3.84-1.96,2.54,1.58,3.76,7.61,4.49,10.29.27.99,2.94,9.61,1.55,10.44-.61.36-6.51-4.67-7.16-5.34-2.28-2.31-4.14-5.12-5.32-8.15-.51-1.3-.91-2.71-1.2-4.08-.31-1.51.16-4.21-.41-5.5.43-1.19.21-1.48-.68-.87-1.18.2-1.06.65.35,1.35.96,1.68,2.78,3.09,3.86,4.79,1.96,3.08,3.16,6.36,3.97,9.9,1.66,7.24,12.8,4.18,11.14-3.07-1.8-7.85-5.84-15.45-11.91-20.84-6.45-5.72-15.57-4.59-17.79,4.51-3.54,14.5,6.6,31.24,19.73,37.03,7.37,3.25,15.25.59,16.76-7.83,1.43-7.93-1.82-17.81-5.21-24.88-3.29-6.84-9.78-11.74-17.58-9.22-7.12,2.3-10.86,9.37-9.57,16.49,1.33,7.3,12.46,4.21,11.14-3.07h0Z"/>
        <path class="st1" d="M1889.77,323.26c.47,1.82.93,3.64,1.4,5.46,3.52-1.48,7.04-2.97,10.55-4.45-2.06-2.83-3.02-5.15-3.59-8.6-2.37,2.37-4.74,4.74-7.1,7.1,1.92.47,3.84.94,5.76,1.42,3.03.74,6.26-.97,7.1-4.03.81-2.95-.99-6.36-4.03-7.1-1.92-.47-3.84-.94-5.76-1.42-4.59-1.13-7.81,2.8-7.1,7.1.67,4.07,2.33,8.02,4.76,11.36,1.69,2.32,4.41,3.6,7.21,2.36,2.64-1.16,4.07-3.96,3.34-6.81-.47-1.82-.93-3.64-1.4-5.46-.77-3.02-4.14-4.85-7.1-4.03-3.06.84-4.81,4.07-4.03,7.1h0Z"/>
        <path class="st1" d="M2075.7,275.61c5.43-5.92,10.86-11.83,16.29-17.75,5.02-5.47-3.13-13.66-8.17-8.17-5.43,5.92-10.86,11.83-16.29,17.75-5.02,5.47,3.13,13.66,8.17,8.17h0Z"/>
        <path class="st1" d="M2089.1,308.76c9.02-4.13,18.05-8.26,27.07-12.38,6.75-3.09.89-13.05-5.83-9.97-9.02,4.13-18.05,8.26-27.07,12.38-6.75,3.09-.89,13.05,5.83,9.97h0Z"/>
        <path class="st1" d="M1612.64,466.98c-10.6.91-21.02,2.8-31.22,5.82-7.11,2.1-4.08,13.25,3.07,11.14,9.22-2.73,18.57-4.58,28.15-5.4,7.35-.63,7.42-12.19,0-11.55h0Z"/>
        <path class="st1" d="M1618.61,507.7c-7.41,4.43-14.82,8.85-22.23,13.28-6.37,3.81-.57,13.8,5.83,9.97,7.41-4.43,14.82-8.85,22.23-13.28,6.37-3.81.57-13.8-5.83-9.97h0Z"/>
        <path class="st1" d="M1762.07,580.39c-16.64,3.85-33.72,8.17-47.33,19.03-11.29,9.01-19.24,23.97-17.89,38.68,3.45,37.79,51.76,35.52,78.39,28.58,21.02-5.47,40.69-15.14,60.07-24.73-2.63-.69-5.27-1.38-7.9-2.07,14.22,27,28.44,54.01,42.66,81.01,10.17,19.31,22.36,43.38,45.21,49.76,16.88,4.71,40.07-2.65,45.06-21.09,1.36-5.02.88-10.13-.03-15.17-.96-5.3-3.92-12.22-1.97-17.61,1.84-5.05,9.22-7.5,13.63-9.8,6-3.13,12.04-6.19,18.06-9.27,25.86-13.21,51.73-27.1,72.6-47.66h-8.17c10.27,13.29,22.82,26.68,39.77,30.79,15.54,3.76,32.36-.57,41.31-14.5,9.53-14.84,6.86-33.59.51-49.03-7.47-18.17-17.62-35.49-27.19-52.62-11.08-19.82-22.75-39.31-34.94-58.47-.69,2.63-1.38,5.27-2.07,7.9,10.67-7.63,21.64-14.97,31.92-23.13,7.99-6.35,16.36-14.47,19.56-24.47,1.59-4.97,1.25-10.67-.56-15.53-7.1-19.04-29.59-16.7-45.03-10.53-22.15,8.85-41.58,23.97-59.77,39.08-5.72,4.75,2.49,12.88,8.17,8.17,15.08-12.52,30.98-24.68,48.65-33.36,8.58-4.22,18.1-7.97,27.32-6.93-1.27-.14,1.09.21,1.4.29.67.18,1.33.37,1.98.58,1.3.43-.62-.42.8.34.66.35,1.29.73,1.92,1.13,1.06.68-.56-.62.5.4.45.43.88.87,1.31,1.32,1.09,1.14-.37-.69.32.4.35.55.68,1.11,1.01,1.67.24.4.93,2.23.29.52.16.43.34.85.45,1.29.24.95.71,3.81.57,2.19.09.99.1,1.96.12,2.95,0,.44-.06.88-.09,1.31.08-1.07.25-.76-.08.22-2.59,7.7-8.39,13.66-14.52,18.8-10.09,8.47-21.36,15.69-32.06,23.34-2.46,1.76-3.87,5.07-2.07,7.9,18.8,29.54,36.32,59.87,52.44,90.95,7.09,13.67,15.84,29.04,13.62,45.05-2.02,14.56-12.98,23.72-27.68,22.49-17.31-1.44-29.79-15.82-39.71-28.66-1.92-2.48-6.17-1.97-8.17,0-17.51,17.25-38.82,29.54-60.48,40.81-10.75,5.6-21.63,10.96-32.33,16.67-4.71,2.51-9.41,5.14-12.35,9.77-3.09,4.87-3.35,10.56-2.57,16.11,1.2,8.55,5.91,18.53-.03,26.32-4.93,6.47-13.89,9.13-21.72,8.94-21.33-.52-33.74-24.23-42.4-40.58-15.15-28.59-30.15-57.25-45.23-85.88-1.52-2.89-5.2-3.41-7.9-2.07-27.86,13.78-58.22,29.09-90.2,27.46-11.67-.59-25.79-4.75-29.89-17.05-3.82-11.47,2.17-24.52,10.6-32.33,12.13-11.25,29.56-14.93,45.17-18.54,7.24-1.68,4.17-12.81-3.07-11.14h0Z"/>
        <path class="st1" d="M1751.47,369.65c6.4-.84,12.81-1.67,19.21-2.51,3.2-.42,6.4-.85,9.6-1.25,1.06-.13,5.5-1.27,6.45-.34-.86-.84-.37.58-.59,1.23-.53,1.56-.75,3.37-1.18,4.97-.66,2.47-1.43,4.9-2.29,7.3-2.05,5.69-4.81,11.04-7.99,16.17-3.92,6.34,6.07,12.15,9.97,5.83,4.14-6.7,7.52-13.86,9.99-21.34,2.07-6.29,5.34-14.97,1.24-21.02-3.99-5.88-11.45-4.89-17.53-4.1-8.96,1.17-17.93,2.34-26.89,3.51-3.12.41-5.74,2.36-5.77,5.77-.03,2.81,2.68,6.18,5.77,5.77h0Z"/>
        <path class="st1" d="M1759.69,393.27c10.56-10.08,21.13-20.16,31.69-30.24,5.39-5.14-2.79-13.3-8.17-8.17-10.56,10.08-21.13,20.16-31.69,30.24-5.39,5.14,2.79,13.3,8.17,8.17h0Z"/>
      </g>
      <g>
        <path class="st1" d="M281.74,1097.54c5.99-13.99,13.68-27.3,23.18-39.2,9.29-11.64,20.26-23.39,33.6-30.37,13.93-7.29,27.7-4.7,40.13,4.24,12.61,9.07,23.24,21.73,32.04,34.42,4.21,6.07,14.22.3,9.97-5.83-17.75-25.6-47.47-59.57-82.27-45.42-15.59,6.34-28.3,18.86-38.97,31.54-11.38,13.52-20.7,28.55-27.66,44.79-2.9,6.76,7.05,12.65,9.97,5.83h0Z"/>
        <path class="st1" d="M404.14,1080.07c22.97-1.66,46.07-.93,68.85,2.46,7.27,1.08,10.41-10.04,3.07-11.14-23.85-3.55-47.87-4.61-71.92-2.87-7.37.53-7.43,12.09,0,11.55h0Z"/>
        <path class="st1" d="M464.07,1066.74c8.26-12.52,18.59-23.71,30.61-32.72,12.2-9.15,25.41-17.28,41.05-12.49,26.3,8.07,47.61,31.87,58.54,56.32,3.03,6.77,12.98.91,9.97-5.83-6.5-14.54-15.97-27.78-27.69-38.58-11.4-10.51-25.72-20.43-41.05-23.94-17.61-4.03-32.87,4.28-46.64,14.54-13.7,10.21-25.34,22.6-34.75,36.87-4.1,6.22,5.89,12.01,9.97,5.83h0Z"/>
        <path class="st1" d="M262.72,1106.32c-36.51,14.32-66.31,43.13-81.59,79.3-15.43,36.54-16.58,86.76,17.19,113.78,16.58,13.27,39.51,19.41,59.82,11.46,2.51-.98,4.1-2.81,4.24-5.57.69-13.57,9.81-25.11,21.34-31.64,14.51-8.21,32.43-7.99,48.28-4.45,10.75,2.4,28.7,7.58,29.68,21.07,1.27,17.48-22.42,21.52-35.03,22.26-19.41,1.15-38.59-2.22-56.6-9.48-6.89-2.78-9.89,8.39-3.07,11.14,19.95,8.05,41.81,11.5,63.27,9.63,17.84-1.55,39.71-8.53,42.7-29.13,2.62-18.07-14.11-29.46-29.21-34.32-19.08-6.14-41.25-7.5-59.98.46-18.06,7.67-31.91,24.52-32.93,44.46,1.41-1.86,2.83-3.71,4.24-5.57-15.71,6.15-32.64,2.56-46.29-6.84-15.05-10.36-23.34-27.57-25.79-45.33-4.89-35.38,10.91-72.05,34.93-97.46,13.38-14.16,29.71-25.51,47.88-32.64,6.84-2.68,3.86-13.86-3.07-11.14h0Z"/>
        <path class="st1" d="M373.37,1308.48c26.38-1.45,52.75-2.9,79.13-4.35,7.39-.41,7.44-11.96,0-11.55-26.38,1.45-52.75,2.9-79.13,4.35-7.39.41-7.44,11.96,0,11.55h0Z"/>
        <path class="st1" d="M464.56,1291.04c11.46-9.9,26.12-16.23,41.24-17.51,14.24-1.21,30.88,1.19,41.39,11.79,8.75,8.82,11.26,25.72-.56,33.21-6.02,3.82-13.61,4.56-20.56,5.03-8.36.57-16.79.85-25.14.08-16.49-1.52-34.84-9.21-40.63-26.07-2.4-6.99-13.56-3.99-11.14,3.07,6.22,18.12,23.08,29.4,41.34,33.07,10.58,2.12,21.39,2.19,32.13,1.61,9.07-.49,18.31-1.25,26.65-5.13,16.8-7.8,20.77-28.05,12.9-43.76-8.4-16.76-28.48-23.75-46.06-24.64-21.81-1.1-43.29,6.87-59.73,21.07-5.63,4.87,2.57,13.01,8.17,8.17h0Z"/>
        <path class="st1" d="M611.44,1091.69c41.5,12.14,85.47,19.89,123.03,42.4,31.13,18.65,59.13,51.94,59.04,89.91-.09,37.2-29.11,67.19-61.83,80.8-20.51,8.53-43.04,11.33-65.1,11.38-11.77.03-23.52-.72-35.23-1.88-10.48-1.04-21.52-1.71-31.57-5.06-8.94-2.97-20.42-11.9-16.54-22.78,3.43-9.64,16.38-13.71,24.97-16.97,24.16-9.16,49.51-15.13,75.23-17.66,7.33-.72,7.4-12.28,0-11.55-25.55,2.51-50.72,7.98-74.85,16.79-17.34,6.33-44.27,17.48-36.28,41.17,7.98,23.65,36.3,25.26,57.2,27.42,25.62,2.65,51.67,3.31,77.08-1.54,40.62-7.76,80.75-33.24,94.28-74.08,13.6-41.05-8.04-83.53-38.99-110.26-41.1-35.49-96.86-44.44-147.37-59.22-7.15-2.09-10.2,9.05-3.07,11.14h0Z"/>
        <path class="st1" d="M789.78,1152.61c22.31-21.11,15.86-54.53,4.31-79.29-6.96-14.91-16-29-20.92-44.79-4.51-14.47-6.14-31.66,2.78-44.87,9.49-14.07,27.29-8.91,38.56.07,10.53,8.39,17.56,20.59,22.44,32.96,5.66,14.38,9.23,29.7,11.88,44.89,3.11,17.86,4.32,36.33,1.93,54.36-4.24,32.05-21.33,63.42-51.23,77.92-6.69,3.24-.84,13.2,5.83,9.97,27.85-13.5,46.46-41.25,53.85-70.75,8.94-35.67,3.39-75.05-7.66-109.65-4.53-14.16-10.74-27.97-20.37-39.44-9.73-11.59-24.71-21.39-40.37-20.76-16.99.68-28.04,14.92-31.46,30.56-3.64,16.65.4,33.91,6.97,49.29,7.86,18.41,19.75,35.33,24.79,54.87,4.09,15.86,3.02,34.64-9.5,46.49-5.41,5.12,2.77,13.28,8.17,8.17h0Z"/>
        <path class="st1" d="M315.41,1185.71c15.87-6.17,29.97-15.59,41.45-28.21,4.99-5.49-3.15-13.68-8.17-8.17-10.07,11.08-22.36,19.8-36.35,25.24-6.85,2.66-3.87,13.84,3.07,11.14h0Z"/>
        <path class="st1" d="M395.88,1163.99c1.89,2.2,3.79,4.41,5.68,6.61v-8.17c-1.1,1.21-1.81,1.34-3.03,2.21-.56-.22-.92.02-1.07.72-.68,1.48-1.64,1.19-2.91-.88-.52.22-.2,9.36-.21,10.02-.18,7.53-.35,15.05-.53,22.58-.17,7.43,11.38,7.43,11.55,0,.24-10.43.96-20.98.74-31.41-.16-7.37-5.59-13.09-13.28-10.29-7.45,2.72-8.3,12.13-2.96,17.36,5.92,5.8,14.81,3.46,19.87-2.15,2.21-2.45,2.12-5.69,0-8.17-1.89-2.2-3.79-4.41-5.68-6.61-4.85-5.65-12.99,2.55-8.17,8.17h0Z"/>
        <path class="st1" d="M424.59,1158.79c13.59,11.13,30.02,17.35,47.63,17.59,7.43.1,7.44-11.45,0-11.55-14.36-.2-28.31-5.08-39.46-14.21-5.7-4.67-13.92,3.45-8.17,8.17h0Z"/>
        <path class="st1" d="M268.26,1186.67c-5.06-1.08-10.12-2.15-15.19-3.23-7.25-1.54-10.35,9.59-3.07,11.14,5.06,1.08,10.12,2.15,15.19,3.23,7.25,1.54,10.35-9.59,3.07-11.14h0Z"/>
        <path class="st1" d="M258.46,1211.62l-10.11,3.36c-2.96.98-4.89,3.98-4.03,7.1.79,2.89,4.13,5.02,7.1,4.03,3.37-1.12,6.74-2.24,10.11-3.36,2.96-.98,4.89-3.98,4.03-7.1-.79-2.89-4.13-5.02-7.1-4.03h0Z"/>
        <path class="st1" d="M520.92,1204.36c8.39-3.43,16.79-6.87,25.18-10.3,6.79-2.78,3.82-13.96-3.07-11.14-8.39,3.43-16.79,6.87-25.18,10.3-6.79,2.78-3.82,13.96,3.07,11.14h0Z"/>
        <path class="st1" d="M526.24,1224.66c6.73,1.15,13.46,2.31,20.19,3.46,7.27,1.25,10.39-9.88,3.07-11.14-6.73-1.15-13.46-2.31-20.19-3.46-7.27-1.25-10.39,9.88-3.07,11.14h0Z"/>
        <path class="st1" d="M566.68,1307.07c4.8,1.67,9.95,2.33,15.01,1.89,3.11-.27,5.77-2.46,5.77-5.77,0-2.92-2.65-6.04-5.77-5.77-4.18.36-7.98-.1-11.94-1.48-2.95-1.02-6.32,1.17-7.1,4.03-.87,3.18,1.08,6.08,4.03,7.1h0Z"/>
        <path class="st1" d="M419.55,1084.42c-2.39,9.94-1.56,27.97,9.58,32.79,13.85,5.99,17.25-17.74,18.39-26.26.75-5.62,1.07-11.7-2.67-16.4-3.21-4.04-9.02-6.09-13.89-3.86-5.85,2.68-6.55,9.31-6.82,15.02-.35,7.36.59,14.75,2.42,21.87,1.39,5.41,9.85,5.59,11.14,0,2.07-8.97,4.13-17.93,6.2-26.9,1.67-7.23-9.47-10.32-11.14-3.07-2.07,8.97-4.13,17.93-6.2,26.9h11.14c-.88-3.43-1.58-6.87-1.86-10.41-.28-3.41.25-6.89-.02-10.26.05-.59.11-1.19.16-1.78-.93-.81-1.07-.99-.42-.56.61.78.83,1.52.95,2.56.32,2.9-.39,6.14-.92,8.97-.55,2.91-1.25,5.79-2.1,8.63-.37,1.21-1.39,2.94-1.39,4.22-1,1.18-.82,1.51.55.98,1.47.12,1.57-.34.28-1.39-.47-2.63-2.31-5.12-2.75-7.93-.53-3.39-.27-6.73.53-10.05,1.74-7.22-9.4-10.31-11.14-3.07h0Z"/>
        <path class="st1" d="M457.13,1087.89c-1.4,9.85,1.38,19.31,8.85,26.13,2.47,2.26,7.48,2.41,9.07-1.17,5.22-11.74,6.38-24.28,2.81-36.69-1.23-4.28-6.47-5.5-9.65-2.55-5.08,4.72-7.64,10.57-8.39,17.39-.82,7.38,10.74,7.32,11.55,0,.42-3.77,2.29-6.7,5.01-9.22-3.22-.85-6.43-1.7-9.65-2.55,2.66,9.24,2.29,18.94-1.64,27.79,3.02-.39,6.05-.78,9.07-1.17-4.17-3.81-6.7-9.14-5.88-14.89,1.03-7.27-10.09-10.41-11.14-3.07h0Z"/>
        <path class="st1" d="M391.1,1081.11c-2.05,8.2-1.77,16.51,1.19,24.46,1.51,4.05,6.31,5.72,9.65,2.55,8.93-8.48,12.36-21.2,9.02-33.03-1.21-4.3-6.48-5.48-9.65-2.55-4.77,4.4-7.24,10.3-7.21,16.77.03,7.43,11.58,7.44,11.55,0-.01-3.6,1.2-6.17,3.83-8.6-3.22-.85-6.43-1.7-9.65-2.55,2.25,8-.04,16.09-6.05,21.79,3.22.85,6.43,1.7,9.65,2.55-2.26-6.07-2.77-12.01-1.19-18.32,1.8-7.21-9.33-10.29-11.14-3.07h0Z"/>
        <path class="st1" d="M659.35,1110.05c-7.6,12.49-14.24,29.05-13.38,43.98.34,5.91,2.85,12.8,9.14,14.55,6.99,1.94,12.9-3.94,17.12-8.71,9.59-10.84,15.93-25.43,19.58-39.34,1.8-6.83.89-14.7-6.02-18.25-5.84-3-13.13-1.3-17.9,2.9-6.22,5.49-9.58,14.51-12.8,21.94-3.87,8.92-6.68,18.1-6.45,27.91.05,2.3,1.74,5.17,4.24,5.57,6.2.98,10.58-1.91,14.05-6.94,4.17-6.03,7.52-12.86,10.75-19.43,2.77-5.62,7.35-12.79,7.9-19.13.51-5.93-4.7-11.74-10.88-9.39-6.88,2.61-3.9,13.78,3.07,11.14-2.4-3.41-3.83-3.78-4.3-1.1l-.83,1.96c-.72,1.66-1.45,3.32-2.21,4.97-1.64,3.57-3.37,7.09-5.18,10.58-1.67,3.21-3.42,6.39-5.24,9.52-.87,1.5-1.69,3.06-2.68,4.47-.62.88-2.41,2.05-1.38,2.21,1.41,1.86,2.83,3.71,4.24,5.57-.17-7.32,1.66-14.22,4.41-20.96,2.34-5.75,4.97-12.04,8.44-17.21,1.28-1.91,3.49-4.91,6.22-4.55,3.06.4,1.82,3.74,1.21,5.91-1.64,5.87-3.88,11.78-6.42,17.31-2.53,5.52-5.53,10.95-9.47,15.59-.93,1.09-5.02,6.46-6.67,6.29.95.1.55.09.15-.82-.44-1-.51-2.11-.57-3.18-.71-12.73,5.36-26.92,11.82-37.53,3.87-6.37-6.11-12.18-9.97-5.83h0Z"/>
        <path class="st1" d="M696.42,1126.86c-3.68,8.22-6.61,16.67-8.3,25.52-1.21,6.32-3.03,15.36,4.29,18.7,7.81,3.57,14.03-4.01,18.01-9.63,4.41-6.23,7.79-13.26,10.08-20.53,2.03-6.43,4.47-14.9,2.41-21.56-2.22-7.17-10.56-9.57-16.82-6.04-6.27,3.53-8.65,11.56-10.68,17.99-2.66,8.41-4.09,17.15-4.6,25.95-.32,5.39,6.34,7.09,9.86,4.08,11.06-9.46,17.13-23.71,16.43-38.23-.36-7.4-11.91-7.44-11.55,0,.57,11.76-4.11,22.42-13.05,30.06,3.29,1.36,6.57,2.72,9.86,4.08.58-9.81,2.57-19.62,6.26-28.75.63-1.56,1.37-3.88,2.84-4.86,1.63-1.08.61.6.5,2.12-.35,4.61-1.61,9.28-3.1,13.64-1.44,4.22-3.38,8.25-5.69,12.06-1.13,1.88-2.35,3.74-3.68,5.48-.62.81-1.62,1.62-2.11,2.5-.39.3-.78.61-1.17.91.74.48,1.48.96,2.22,1.44.27-.12.72-5.74.84-6.36.51-2.67,1.13-5.33,1.85-7.95,1.38-5.07,3.14-10.02,5.29-14.81,3.02-6.73-6.93-12.61-9.97-5.83h0Z"/>
        <path class="st1" d="M731.15,1140.01c-2.51,8.39-10.5,40.96,7.43,38.72,7.4-.92,11.36-9.85,13.91-15.84,3.39-7.95,4.98-16.4,4.92-25.04-.03-4.53-4.84-6.99-8.69-4.99-11.89,6.19-17.68,19.31-15.49,32.31,1.23,7.31,12.36,4.21,11.14-3.07-1.35-8,3.2-15.62,10.18-19.26-2.9-1.66-5.79-3.32-8.69-4.99.04,5.06-.53,9.95-1.93,14.83-.66,2.32-1.47,4.59-2.47,6.78-.94,2.06-3.37,4.73-3.82,6.85-.24.29-.49.59-.73.88.79.36,1.58.72,2.37,1.08,0,0-.3-1.86-.32-2.09-.2-2.33.03-4.8.2-7.13.4-5.44,1.56-10.74,3.13-15.96,2.14-7.13-9.01-10.18-11.14-3.07h0Z"/>
        <path class="st1" d="M335.94,1079.08c-.05.09,1.71-1.22,1.42-.79.29-.42.2-1.9.33-2.43.55-2.24,1.73-4.37,2.69-6.46.83-1.81,3.71-10.91,5.57-11.25,3.39-.62,3.78,6.7,3.68,8.34-.28,4.86-1.45,9.53-1.08,14.43.56,7.36,12.11,7.43,11.55,0-.75-9.97,4.04-19.96-3.19-28.61-6.25-7.47-16.73-7.51-21.82,1.2-2.69,4.6-4.71,9.86-6.82,14.74-1.98,4.59-3.51,9.78-1.44,14.63,3.26,7.66,14.66,9.72,19.08,2.02,3.7-6.46-6.27-12.28-9.97-5.83h0Z"/>
        <path class="st1" d="M529.36,1073.79c-5.86-.81-6.76-6.88-5.54-11.81.46-1.86,1.15-3.64,1.92-5.39.5-1.13,1.88-2.84,1.97-4.09.97-1.04.8-1.41-.51-1.09-1.37-.32-1.51.09-.4,1.24.26,1.44,1.71,3.67,2.24,5.03,2.27,5.82,4.08,12.16,4.61,18.4-.14-1.61,3.27,1.17.13-.48-.91-.48-2.56-.77-3.54-1.04-2.43-.67-4.92-1.17-7.45-.97-7.36.6-7.42,12.16,0,11.55,4.59-.38,8.75,2.6,13.43,2.14,5.21-.51,8.7-4.77,8.99-9.9.32-5.77-1.59-12.37-3.29-17.82-1.74-5.56-3.83-12.62-8.07-16.83-10.98-10.89-19.52,8.76-21.39,17.02-2.32,10.21,2.06,23.53,13.83,25.15,7.27,1,10.41-10.13,3.07-11.14h0Z"/>
      </g>
      <g>
        <path class="st1" d="M1085.98,1031.17c1.42-11.97,5.17-23.7,10.92-34.28,5.46-10.05,12.73-20.4,22.78-26.3,11.54-6.78,22.82-2.25,33.43,4.05,11.08,6.58,21.21,14.45,30.46,23.42,5.34,5.18,13.51-2.98,8.17-8.17-10.74-10.42-22.76-19.67-35.83-26.98-12.97-7.25-27.02-10.36-40.7-3.06-12.19,6.51-21.31,18.6-27.89,30.47-7.03,12.68-11.19,26.48-12.89,40.85-.88,7.37,10.68,7.3,11.55,0h0Z"/>
        <path class="st1" d="M1175.68,1009.77c22.69-5.51,45.6-10.05,68.67-13.63,7.32-1.14,4.21-12.27-3.07-11.14-23.08,3.58-45.98,8.13-68.67,13.63-7.22,1.75-4.16,12.89,3.07,11.14h0Z"/>
        <path class="st1" d="M1221.31,989.14c4.65-20.74,12.22-51.58,38.42-53.34,25.58-1.72,42.08,22.22,53.33,41.65,3.72,6.43,13.71.62,9.97-5.83-13.57-23.45-34.32-50.24-64.88-47.25-31.41,3.07-42.11,35.5-47.97,61.69-1.62,7.24,9.51,10.33,11.14,3.07h0Z"/>
        <path class="st1" d="M1070.3,1036.04c-43.8,30.92-70.39,82.99-70.86,136.54-.23,25.72,5.37,53.08,19.53,74.89,12.97,19.98,32.44,33.95,54.15,43.13,29.13,12.32,60.83,17.95,92.36,18.75,7.43.19,7.43-11.36,0-11.55-26.38-.67-52.77-4.88-77.67-13.79-20.51-7.33-39.79-18.15-53.71-35.25-15.17-18.64-21.8-43.63-22.94-67.27-1.21-25.14,3.76-50.61,14.26-73.49,11.29-24.59,28.54-46.35,50.7-62,6.02-4.25.26-14.27-5.83-9.97h0Z"/>
        <path class="st1" d="M1331.74,985.11c77.25-19.57,167.92-2.75,217.57,64.09,22.22,29.91,34.94,67.02,31.52,104.47-1.96,21.4-9.72,40.56-26.75,54.21-7.99,6.4-17.01,11.49-25.89,16.53-9.46,5.38-19.1,10.67-29.63,13.64-18,5.08-45.11.56-47.38-22.24-2.4-24.15,20.62-39.43,39.11-49.31,6.56-3.5.73-13.48-5.83-9.97-19.22,10.27-39.49,24.38-43.98,47.26-4.11,20.93,7.39,39.24,27.54,45.62,22.59,7.15,45.06-3.2,64.48-14.15,19.46-10.98,39.67-23.03,50.02-43.74,9.94-19.88,11.98-43.76,9.62-65.62-2.25-20.79-8.59-40.88-18.29-59.39-20.12-38.39-53.69-67.77-93.57-84.29-47.71-19.77-101.91-20.82-151.59-8.24-7.2,1.82-4.15,12.97,3.07,11.14h0Z"/>
        <path class="st1" d="M1214.07,1309.11c3.96,2.29,4.8,7.01,3.86,11.24-1.22,5.5-5.99,9.24-10.7,11.82-12.04,6.59-27.28,9.28-40.81,10.43-12.15,1.03-26.59,1.46-37-6.01-7.53-5.4-12.19-17.85-4.86-25.29,5.22-5.3-2.94-13.48-8.17-8.17-8.36,8.5-8.62,21.08-3.54,31.4,5.73,11.65,18.36,17.46,30.65,19.24,14.71,2.13,30.17.34,44.58-2.97,13.1-3,28.27-7.3,36.72-18.56,7.61-10.14,6.75-26.35-4.9-33.11-6.44-3.74-12.26,6.24-5.83,9.97h0Z"/>
        <path class="st1" d="M1342.84,1208.87c20.19,4.83,34.75,22.58,34.42,43.55-.36,23.24-18.85,38.26-37.03,49.49-18.26,11.28-40.57,21.76-62.65,18.34-8.42-1.31-17.97-5.15-21.52-13.55-4.02-9.52,1.63-20.5,8.48-27.07,17.17-16.43,43.57-18.61,58.83-37.84,4.57-5.76-3.55-13.99-8.17-8.17-16,20.18-45.46,21.57-62.02,41.24-7.6,9.03-12.28,21.79-8.74,33.51,3.22,10.66,12.33,17.66,22.53,21.15,24.68,8.45,52.5-2.17,73.87-14.52,21.7-12.54,43.94-29.43,47.43-56,3.7-28.16-14.82-54.67-42.37-61.27-7.22-1.73-10.31,9.4-3.07,11.14h0Z"/>
        <path class="st1" d="M1396.64,1261.31c19.87-3.13,39.01-9.04,57.32-17.36,6.76-3.07.89-13.03-5.83-9.97-17.36,7.89-35.73,13.23-54.56,16.19-7.32,1.15-4.21,12.28,3.07,11.14h0Z"/>
        <path class="st1" d="M1202.19,1305.45c13.5-1.94,26.97-4.09,40.46-6.03,7.33-1.05,4.21-12.18-3.07-11.14-13.5,1.94-26.97,4.09-40.46,6.03-7.33,1.05-4.21,12.18,3.07,11.14h0Z"/>
        <path class="st1" d="M1062.88,1179.26c18.03-8.36,35.06-18.59,50.92-30.56,5.86-4.42.11-14.46-5.83-9.97-15.86,11.97-32.89,22.2-50.92,30.56-6.74,3.12-.88,13.08,5.83,9.97h0Z"/>
        <path class="st1" d="M1211.32,1142.39c19.09,8.95,39.49,13.94,60.58,14.62,7.43.24,7.43-11.31,0-11.55-18.96-.61-37.57-4.98-54.75-13.04-6.69-3.14-12.56,6.82-5.83,9.97h0Z"/>
        <path class="st1" d="M1152.1,1147.33c2.17-.67,4.32-1.13,6.61-.89.58.06,2.81.95,3.25.75.32-1.06.65-2.12.97-3.19-.86.26-1.73.48-2.61.66-5.18,1.14-10.48.98-15.64-.14,1.15,2.83,2.3,5.66,3.45,8.48,1.41-2.04,3.54-3.39,6.02-3.64,7.32-.74,7.4-12.3,0-11.55-6.86.69-12.06,3.68-15.99,9.36-2.06,2.98-.02,7.73,3.45,8.48,6.36,1.38,12.69,1.69,19.13.65,5.02-.81,11.13-2.23,12.68-7.82,3.67-13.26-16.36-14.78-24.4-12.3-7.08,2.19-4.06,13.34,3.07,11.14h0Z"/>
        <path class="st1" d="M1148.8,1161.24c2.94,12.1,5.88,24.19,8.82,36.29,1.75,7.22,12.89,4.16,11.14-3.07-2.94-12.1-5.88-24.19-8.82-36.29-1.75-7.22-12.89-4.16-11.14,3.07h0Z"/>
        <path class="st1" d="M1307.44,1181.04c7.25-4.83,14.49-9.66,21.74-14.49,6.15-4.1.38-14.11-5.83-9.97-7.25,4.83-14.49,9.66-21.74,14.49-6.15,4.1-.38,14.11,5.83,9.97h0Z"/>
        <path class="st1" d="M1315.39,1203.57h5.43c3.02,0,5.91-2.66,5.77-5.77-.14-3.13-2.54-5.77-5.77-5.77h-5.43c-3.02,0-5.91,2.66-5.77,5.77.14,3.13,2.54,5.77,5.77,5.77h0Z"/>
        <path class="st1" d="M1033,1222.87l-32.59,10.92c-7.01,2.35-4.01,13.51,3.07,11.14,10.86-3.64,21.73-7.28,32.59-10.92,7.01-2.35,4.01-13.51-3.07-11.14h0Z"/>
        <path class="st1" d="M1042.45,1260.23c-6.03,7.86-12.06,15.72-18.09,23.57-1.91,2.49-.36,6.44,2.07,7.9,2.96,1.77,6.01.39,7.9-2.07,6.03-7.86,12.06-15.72,18.09-23.57,1.91-2.49.36-6.44-2.07-7.9-2.96-1.77-6.01-.39-7.9,2.07h0Z"/>
        <path class="st1" d="M1577.64,1061c11.34-3.66,18.91-13.13,21.93-24.47,3.4-12.76.73-25.49-5.04-37.12-6.87-13.85-17.43-25.5-25.68-38.5-4.35-6.86-8.33-13.96-11.89-21.27-3.4-6.98-6.78-14.51-6.99-22.4-.16-6.18,1.92-13.24,7.39-16.77,5.86-3.78,12.82-1.63,18.34,1.67,12.8,7.64,21.79,21.76,29.58,34.08,16.81,26.57,30.6,58.54,29.63,90.53-.89,29.2-19.64,61.82-51.49,64.51-7.35.62-7.42,12.18,0,11.55,28.98-2.45,51.88-25.66,59.6-52.92,9.51-33.61-1.52-69.65-16.66-99.83-7.62-15.19-16.94-29.58-27.74-42.7-9.2-11.17-23.46-22.87-38.96-20-15.27,2.83-22.57,19.07-20.99,33.29,1.85,16.67,11.8,32.99,20.68,46.86,9.9,15.45,24.14,29.66,29.03,47.77,3.34,12.36-.09,30.16-13.81,34.59-7.04,2.27-4.03,13.43,3.07,11.14h0Z"/>
        <path class="st1" d="M1407.66,985c-6.74,17.19-13.49,34.38-20.23,51.58-3.12,7.94-7.3,16.09-9.16,24.44-1.49,6.69-.36,14.22,5.76,18.27,11.74,7.77,25.65-3.51,33.58-11.57,10.2-10.37,18.06-22.89,24.27-35.98,7.28-15.33,12.6-31.47,17.73-47.62.91-2.86-1.07-6.46-4.03-7.1-5.89-1.28-11.77-2.56-17.66-3.84-4.59-1-10.27-3.2-14.74-.78-4.19,2.27-5.48,6.67-6.6,10.99-1.49,5.72-3.04,11.41-4.74,17.06-6.78,22.46-15.58,44.21-26.22,65.11-2.57,5.05,2.69,10.85,7.9,7.9,32.15-18.23,34.28-57.74,49.04-87.75-3.52-1.48-7.04-2.97-10.55-4.45-4.63,28.73-15.14,55.94-31.1,80.28-3.64,5.56,4.49,11.56,9.07,7,9.85-9.82,18.39-21,25.07-33.22,6.07-11.1,12.27-24.02,12.93-36.86.27-5.21-.62-10.82-3.63-15.2-3-4.37-8.67-8.55-14.17-6.28-5.97,2.47-8.23,12.19-10.68,17.52-3.54,7.71-7.08,15.42-10.63,23.13-3.08,6.71,6.87,12.58,9.97,5.83,5.18-11.27,10.3-22.56,15.53-33.81.61-1.3,2.51-3.59-.02-2.3-2.16,1.1-.87.66.2,1.99,1.07,1.34,1.59,3.27,1.82,4.94.53,3.89-.27,7.96-1.33,11.69-5.82,20.53-18.24,39.44-33.24,54.4,3.02,2.33,6.05,4.67,9.07,7,16.44-25.07,27.49-53.43,32.26-83.04.95-5.92-7.42-10.82-10.55-4.45-13.49,27.42-15.66,67.03-44.9,83.61,2.63,2.63,5.27,5.27,7.9,7.9,9.25-18.17,17.22-36.99,23.7-56.32,3.16-9.43,5.94-18.98,8.42-28.61.26-.99.4-2.11.8-3.06.46-1.11.65-.84-.17-.5,1.5-.64,6.56,1.43,8.36,1.82,5.27,1.15,10.53,2.29,15.8,3.44-1.34-2.37-2.69-4.74-4.03-7.1-9.42,29.6-19.63,61.49-43.56,82.81-2.55,2.27-12.57,10.19-15.49,4.61-1.48-2.82.91-7.72,1.92-10.4,1.86-4.94,3.85-9.83,5.78-14.74,7.23-18.42,14.45-36.84,21.68-55.26,2.72-6.92-8.45-9.92-11.14-3.07h0Z"/>
        <path class="st1" d="M1475.04,1007.99c-3.73,9.76-7.47,19.52-11.2,29.29-1.87,4.88-3.73,9.76-5.6,14.64-1.64,4.28-3.55,8.6-2.03,13.2,2.61,7.91,13.08,8.44,19.72,6.09,8.41-2.97,14.77-9.73,20.25-16.49,5.61-6.91,10.57-14.32,14.65-22.25,1.89-3.68,3.57-7.47,5.12-11.31,1.64-4.07,3.8-8.66,2.92-13.16-1.68-8.63-13.51-11.26-20.41-14.17-3.76-1.59-7.79-2.75-11.64-.69-3.84,2.06-5.12,6.54-6.54,10.32-4.09,10.94-8.18,21.88-12.28,32.82-2.8,7.49-8.12,18.3.88,23.75,2.86,1.73,6.09.43,7.9-2.07,11.9-16.44,19.45-35.33,26.89-54.08-3.71-1.02-7.42-2.05-11.14-3.07-5.48,17.9-12.21,35.33-20.28,52.22-2.36,4.94,2.62,11.08,7.9,7.9,19.06-11.48,31.21-31.28,33.33-53.35.71-7.39-10.85-7.35-11.55,0-1.72,17.9-12.27,34.14-27.61,43.38l7.9,7.9c8.49-17.78,15.68-36.13,21.44-54.98,2.22-7.26-8.46-9.81-11.14-3.07-7.08,17.85-14.4,35.67-25.73,51.32,2.63-.69,5.27-1.38,7.9-2.07,1.17.71.88-1.07,1.36-2.51.61-1.84,1.37-3.66,2.05-5.47,1.59-4.26,3.18-8.51,4.77-12.76,3.14-8.4,5.68-17.45,9.55-25.53.17-.33.33-.67.5-1-.8,1.15-.31,1.74,1.45,1.76,1.62,1.22,4.29,1.85,6.16,2.66,1.7.74,4.17,1.29,5.62,2.45,1.55,1.24,1.22,1.04.72,2.92-1.99,7.46-6.15,14.83-10.12,21.39-3.93,6.52-8.46,12.69-13.67,18.25-2.41,2.57-4.99,5.08-8.1,6.79-1.78.98-3.71,1.84-5.78,1.9-.73.09-1.43.03-2.12-.18-.86-.35-.85-.1.01.73-.22-1.81,1.64-4.86,2.26-6.49.7-1.83,1.4-3.66,2.1-5.49l4.9-12.81c3.27-8.54,6.53-17.08,9.8-25.63,2.66-6.95-8.5-9.95-11.14-3.07h0Z"/>
        <path class="st1" d="M1352.53,982.88c-5.09,13.38-10.19,26.76-15.28,40.13-2.01,5.29-4.73,11.21-.54,16.21,3.27,3.89,9,4.64,13.5,2.66,4.9-2.16,7.96-6.93,11.05-11.09,3.72-5.01,7.23-10.18,10.51-15.5,6.83-11.08,12.53-22.74,17.41-34.79.75-1.86-.17-4.28-1.49-5.62-10.41-10.58-24.55-1.88-30.58,8.63-7.76,13.52-12.72,29.07-15.73,44.3-1,5.06,5.69,10.51,9.65,5.62,13.04-16.11,23.32-33.86,30.79-53.19,2.38-6.15-7.45-10.1-10.55-4.45-4.87,8.86-9.74,17.73-14.61,26.59-3.58,6.52,6.39,12.35,9.97,5.83l14.61-26.59c-3.52-1.48-7.04-2.97-10.55-4.45-6.7,17.34-16.12,33.64-27.82,48.1,3.22,1.87,6.43,3.75,9.65,5.62,2.2-11.1,5.43-22.02,10.04-32.36,1.94-4.35,9.7-22.86,16.97-15.47-.5-1.87-.99-3.75-1.49-5.62-7.05,17.42-16.44,34-27.82,48.96-1.08,1.42-2.52,2.72-3.52,4.17-.41.48-.91.78-1.49.9.82,1.38,1.29,1.14,1.4-.72,1.4-1.7,2.05-5.39,2.84-7.47.95-2.49,1.89-4.98,2.84-7.47,3.79-9.96,7.58-19.91,11.37-29.87,2.65-6.95-8.51-9.96-11.14-3.07h0Z"/>
        <path class="st1" d="M1188.07,1009.37c-3.4,33.53-31.97,59.24-59.66,74.88-30.24,17.08-66.14,24.83-100.52,18.37,1.15,2.83,2.3,5.66,3.45,8.48,8.78-13.79,18.55-26.89,29.4-39.12,10.37-11.69,23.75-21.73,32.08-35.05,8.12-12.98,8.7-28.98,16.28-42.15,6.86-11.91,18.25-20.5,31.44-24.18-1.87-3.22-3.75-6.43-5.62-9.65-37.13,44.46-61.14,98.45-100.37,141.26l8.17,8.17c38.81-44.04,75.17-90.21,108.93-138.23-3.32-1.94-6.65-3.89-9.97-5.83-30.03,48.02-60.16,96.2-95.86,140.28-4.61,5.69,2.57,13.28,8.17,8.17,43.54-39.8,81.94-85.03,114.25-134.38,1.66-2.53.58-6.49-2.07-7.9-13-6.91-22.91,9.37-29.74,17.89-9.18,11.45-18.11,23.1-26.76,34.95-17.46,23.91-33.75,48.65-48.88,74.09-3.45,5.8,4.29,11.29,9.07,7,39.44-35.39,72.54-76.9,105.4-118.27-3.02-2.33-6.05-4.67-9.07-7-23.37,44.8-57.23,82.53-90.88,119.77-4.18,4.63,1.28,12.9,7,9.07,44.74-30.01,81.03-71.79,104.1-120.5-3.52-1.48-7.04-2.97-10.55-4.45-8.97,22.66-21.27,44.14-36.35,63.3-7.51,9.54-15.72,18.55-24.51,26.94-7.45,7.1-19.05,14.14-18.71,25.74.13,4.42,4.79,7.14,8.69,4.99,39.47-21.84,71.21-56.8,88.86-98.34-3.52-1.48-7.04-2.97-10.55-4.45-9.26,29.01-33.11,49.87-56.1,68.35l8.17,8.17c16.14-19.64,32.27-39.29,48.41-58.93,4.63-5.63-2.85-13.57-8.17-8.17-16.51,16.8-34.09,32.47-52.66,46.94l8.17,8.17c13.85-12.03,26.05-25.65,36.67-40.6,3.36-4.73-3.22-10.97-7.9-7.9-5.46,3.58-10.92,7.16-16.39,10.74-.44.29-4.84,2.75-4.92,3.22.71.78,1.42,1.55,2.14,2.33.01-.22.03-.44.04-.66.98-1.06,1.78-4.55,2.5-5.94,3.75-7.26,9.25-17.02,18.35-17.9-1.86-2.44-3.71-4.87-5.57-7.31-3.77,24.05-13.68,46.73-29.28,65.47-4.72,5.67,3.41,13.89,8.17,8.17,16.86-20.26,28.16-44.49,32.25-70.57.52-3.32-1.45-7.71-5.57-7.31-15.54,1.5-26.77,16.32-31.46,30.35-2.18,6.53-.15,15.65,8.24,15.44,4.65-.12,8.86-3.96,12.57-6.39l14.75-9.66-7.9-7.9c-10.04,14.13-21.77,26.9-34.86,38.26-5.72,4.97,2.45,12.62,8.17,8.17,18.57-14.48,36.15-30.15,52.66-46.94l-8.17-8.17c-16.14,19.64-32.27,39.29-48.41,58.93-4.76,5.79,2.37,12.83,8.17,8.17,24.72-19.86,49.15-42.36,59.07-73.45,1.95-6.11-7.97-10.54-10.55-4.45-16.95,39.88-46.78,73.21-84.72,94.2,2.9,1.66,5.79,3.32,8.69,4.99-.15-5.17,5.77-8.86,9.24-11.95,4.32-3.86,8.51-7.88,12.57-12.03,8.26-8.46,15.89-17.49,22.97-26.95,14.24-19.01,25.64-39.9,34.38-61.97,2.39-6.04-7.76-10.35-10.55-4.45-22.23,46.93-56.81,87.41-99.96,116.35,2.33,3.02,4.67,6.05,7,9.07,34.27-37.93,68.89-76.48,92.69-122.11,2.86-5.48-4.79-12.39-9.07-7-32.86,41.37-65.96,82.88-105.4,118.27,3.02,2.33,6.05,4.67,9.07,7,13.24-22.26,27.37-43.98,42.39-65.09,7.4-10.4,15.01-20.65,22.85-30.73,3.97-5.11,8-10.18,12.09-15.2,1.54-1.9,9.19-13.39,12.26-11.76-.69-2.63-1.38-5.27-2.07-7.9-31.79,48.55-69.61,92.89-112.45,132.04l8.17,8.17c36.34-44.86,67.1-93.74,97.67-142.61,4-6.39-5.76-11.82-9.97-5.83-33.2,47.23-68.96,92.58-107.12,135.89-4.88,5.54,3.11,13.68,8.17,8.17,39.28-42.86,63.24-96.79,100.37-141.26,3.52-4.21.31-11.31-5.62-9.65-13.93,3.89-26.1,12.29-34.69,23.93-9.63,13.05-10.62,29.03-17.48,43.25-3.65,7.57-9.47,13.35-15.41,19.14-5.97,5.82-11.79,11.79-17.33,18.03-11.49,12.95-21.91,26.85-31.2,41.46-1.88,2.96-.16,7.8,3.45,8.48,57.25,10.76,122.52-13.58,157.44-60.7,9.55-12.89,15.73-27.69,17.36-43.68.75-7.39-10.81-7.34-11.55,0h0Z"/>
      </g>
      <g>
        <path class="st1" d="M355.39,303.36c5.56-17.49,13.24-34.16,22.99-49.71,8.52-13.58,18.87-30.65,36.12-33.22,15.38-2.3,30.74,5.41,41.29,16.11,12.07,12.23,19.6,28.12,26.99,43.41,3.23,6.69,13.19.84,9.97-5.83-12.52-25.93-27.53-54.27-57.13-63.18-12.9-3.88-27.56-3.3-39.15,4.05-13,8.25-22.1,22.92-29.92,35.82-9.39,15.51-16.81,32.19-22.3,49.46-2.26,7.1,8.89,10.14,11.14,3.07h0Z"/>
        <path class="st1" d="M470.77,290.8c25.31-6.92,51.3-10.1,77.53-9.53,7.43.16,7.43-11.39,0-11.55-27.2-.59-54.36,2.78-80.6,9.95-7.16,1.96-4.12,13.1,3.07,11.14h0Z"/>
        <path class="st1" d="M535.88,269.04c6.3-14.18,12.72-28.88,22.62-40.98,9.2-11.25,23.34-22.35,38.82-20.35,7.68.99,14.49,5.59,20.58,10.07,6.02,4.43,11.57,9.52,16.66,14.99,10.54,11.34,18.86,24.76,24.38,39.22,2.62,6.88,13.79,3.89,11.14-3.07-9.78-25.64-26.9-47.94-49.63-63.44-11.79-8.04-25.05-11.84-39.06-7.58-13.17,4-24.15,13.18-32.55,23.85-9.84,12.53-16.5,26.98-22.94,41.46-2.99,6.73,6.96,12.62,9.97,5.83h0Z"/>
        <path class="st1" d="M423.62,570.61c-6.37,36.68-10.87,74.91-9.24,112.2.66,15.01,3.06,30.63,10.89,43.72,8.48,14.19,22.59,22.46,37.84,27.79,19.2,6.71,40.31,8.99,60.01,3.09,7.1-2.13,4.08-13.28-3.07-11.14-16.05,4.8-32.8,3.39-48.69-1.4-14.19-4.28-28.26-11.01-36.12-24.17-6.91-11.56-8.82-25.42-9.34-38.66-.64-16.32.29-32.78,1.5-49.05,1.48-19.88,3.95-39.66,7.36-59.3,1.26-7.27-9.86-10.39-11.14-3.07h0Z"/>
        <path class="st1" d="M657.97,561.79c8.54,33.46,15.42,67.34,20.49,101.5,2.26,15.22,4.76,30.81-2.98,44.95-4.21,7.7-10.91,12.81-19.28,15.28-7.91,2.33-16.14,2.43-24.22,3.81-7.31,1.25-4.21,12.38,3.07,11.14,7.08-1.21,15.44-1.44,22.91-3.44,9.76-2.62,18.29-7.92,24.35-16.07,9.14-12.3,11.18-28.04,9.47-42.89-2.12-18.41-5.36-36.77-8.8-54.98-3.96-20.93-8.61-41.72-13.88-62.36-1.84-7.2-12.98-4.15-11.14,3.07h0Z"/>
        <path class="st1" d="M488.44,691.88c13.87,22.45,16.68,62.66,50.57,64.43,12.98.68,23.36-8.01,28.39-19.41,6.56-14.85,3.66-31.15,5.23-46.83.74-7.39-10.81-7.34-11.55,0-1.3,12.91,1.11,26.56-3.01,39.07-3.19,9.7-11.04,17.61-21.92,15.16-11.46-2.58-18.27-13.08-22.73-23.13-5.18-11.68-8.24-24.16-15.02-35.13-3.9-6.31-13.89-.52-9.97,5.83h0Z"/>
        <path class="st1" d="M566.25,690.25c5.15,14.65,11.02,29.5,18.69,43.03,5.84,10.31,15.47,20.75,28.48,18.68,14.02-2.23,20.78-16.09,23.1-28.69,2.94-15.96,3.74-32.38,3.02-48.57-.33-7.4-11.88-7.44-11.55,0,.56,12.66.15,25.36-1.46,37.93-1.2,9.37-2.96,25.87-14.75,27.96-9.42,1.66-15.56-10.34-19.01-17.15-5.95-11.73-11.03-23.85-15.39-36.26-2.45-6.97-13.61-3.97-11.14,3.07h0Z"/>
        <path class="st1" d="M569.08,742.84c7.09-.72,14.17-1.44,21.26-2.17,7.32-.75,7.4-12.3,0-11.55-7.09.72-14.17,1.44-21.26,2.17-7.32.75-7.4,12.3,0,11.55h0Z"/>
        <path class="st1" d="M523.94,371.95c3.77.92,6.94.16,10.7.08.76-.18,1.49-.14,2.2.12.87.56,1.02-.1.45-1.96-.1-.06-2.86,1.55-3.34,1.71-1.35.45-2.71.66-4.13.62-1.34-.04-2.74-.78-3.99-.78-1.69-.79-1.52.52.51,3.91.79-.53,1.6-1.02,2.44-1.47,1.71-.87,3.45-1.4,5.3-1.85,7.22-1.76,4.16-12.9-3.07-11.14-6.5,1.58-19.14,6.86-15.8,15.69,2.78,7.33,14.16,7.99,20.57,6.49,6.66-1.56,15.04-7.12,12.29-15.05-1.18-3.41-4.28-5.96-7.64-7.1-4.55-1.54-8.97.68-13.43-.41-7.22-1.77-10.3,9.37-3.07,11.14h0Z"/>
        <path class="st1" d="M529.06,380.67c.61,10.41,1.97,20.75,4.06,30.97,1.49,7.28,12.62,4.2,11.14-3.07-1.89-9.23-3.1-18.49-3.65-27.9-.43-7.39-11.98-7.44-11.55,0h0Z"/>
        <path class="st1" d="M482.66,364.52s1.38-3.3,1.47-3.1c-.9.02-1.8.04-2.7.06.21.68.37,1.38.49,2.08.64,3.15.75,6.44.51,9.64-.21,2.8-.66,6.01-1.77,8.62-.16.54-.41,1.04-.74,1.5-.71.81-.22.96,1.49.47.07-.38-1.15-2.25-1.31-2.7-1.04-2.79-1.59-5.88-1.85-8.83-.25-2.98.55-6.01.41-8.85.13-.23.25-.46.38-.68-3-1.33-4.03-1.25-3.09.26-.06,1.04,1,2.69,1.2,3.85.58,3.37.21,6.95-1.14,10.1,3.52.46,7.04.92,10.55,1.38-1.6-4.03-1.67-7.26-.16-11.33,2.6-6.97-8.56-9.99-11.14-3.07-2.12,5.7-2.09,11.81.16,17.47,1.58,3.96,8.37,6.48,10.55,1.38,3.05-7.13,4-14.71,1.42-22.19-2.09-6.07-7.83-11.74-14.52-7.65-6.12,3.74-6.63,12.09-6.25,18.45.41,6.87,1.69,16.06,7.08,20.95,5.34,4.85,12.59,2.6,16.14-3.09,3.81-6.11,4.63-15.08,4.12-22.08-.46-6.32-1.6-14.81-8.91-16.64-7.21-1.8-11.7,5.05-13.52,10.94-2.2,7.12,8.94,10.16,11.14,3.07h0Z"/>
        <path class="st1" d="M577.32,354.18c.24-2.19-.99-2.82-3.7-1.9.55.99,1.01,2.03,1.39,3.1.76,2.04,1.31,4.25,1.56,6.41.18,1.6.21,3.28.13,4.89-.03,1.12-.16,2.23-.39,3.32,3.56-.34,4.44-1.33,2.64-2.98-.44-1.82-1.86-3.48-2.31-5.42-.34-1.44-.5-2.88-.47-4.36.04-1.94.33-3.93,1.07-5.75.34-.92.8-1.78,1.39-2.57-1.08.42-1.25.92-.49,1.5.23,1.42,2.17,3.51,2.73,4.98.77,2.01,1.25,4.17,1.4,6.31.16,2.26.37,9.03-2.46,9.88,1.04-.32-.93-3.25-1.32-4.38-.54-1.55-.97-3.17-1.24-4.78-.76-4.48-.33-8.89.88-13.23,2-7.17-9.14-10.23-11.14-3.07-2.19,7.87-2.28,16.36.36,24.15,2.2,6.49,6.44,14.33,14.6,12.72,7.55-1.49,11.06-9.62,11.74-16.49.78-7.89-1.35-16.19-6.03-22.62-4.62-6.33-12.56-8.61-18.11-2-4.73,5.63-5.68,14.35-4.33,21.33,1.2,6.23,5.17,14.96,11.98,16.67,9.14,2.29,11.12-8.18,11.11-14.83-.01-7.21-2.07-20.46-9.9-23.4-3.49-1.31-7.53,0-10.01,2.7-3.32,3.61-2.94,8.43-2.18,12.9,1.24,7.31,12.37,4.21,11.14-3.07h0Z"/>
        <path class="st1" d="M656.92,380.94c5.11-3.54,10.22-7.08,15.34-10.62,2.56-1.77,3.73-5.06,2.07-7.9-1.48-2.54-5.32-3.86-7.9-2.07-5.11,3.54-10.22,7.08-15.34,10.62-2.56,1.77-3.73,5.06-2.07,7.9,1.48,2.54,5.32,3.86,7.9,2.07h0Z"/>
        <path class="st1" d="M659.54,413.41c6.31,1.06,12.62,2.12,18.94,3.18,7.27,1.22,10.4-9.91,3.07-11.14-6.31-1.06-12.62-2.12-18.94-3.18-7.27-1.22-10.4,9.91-3.07,11.14h0Z"/>
        <path class="st1" d="M419.26,400.65c-10.22-1.22-20.44-2.43-30.66-3.65-7.37-.88-7.3,10.68,0,11.55,10.22,1.22,20.44,2.43,30.66,3.65,7.37.88,7.3-10.68,0-11.55h0Z"/>
        <path class="st1" d="M412.98,430.55c-8.68,1.54-16.89,4.17-24.97,7.66-6.81,2.94-.93,12.89,5.83,9.97,7.12-3.07,14.59-5.14,22.22-6.5,7.31-1.3,4.21-12.43-3.07-11.14h0Z"/>
        <path class="st1" d="M508.7,290.02c27.58,21.59,59.6,37.55,94.68,41.73,33,3.93,67.99-3.82,94.57-24.23,5.81-4.46.07-14.5-5.83-9.97-24.75,19.01-56.34,26.18-87.13,22.83-32.31-3.52-62.76-18.69-88.12-38.53-5.79-4.53-14.02,3.59-8.17,8.17h0Z"/>
        <path class="st1" d="M522.46,287.8c4.4-2.05,7.65-5.1,10.52-8.95-3.59-.97-7.17-1.94-10.76-2.91-.69,6.07-.8,12.09-.33,18.18.4,5.1,8.18,8.63,10.76,2.91,1.91-4.23,3.82-8.46,5.72-12.69-3.02.39-6.05.78-9.07,1.17,1.6,1.91,1.26,3.96.43,6.09,3.78.51,7.56,1.02,11.34,1.54,1.51-20.94,6.75-41.52,15.51-60.61-3.59-.97-7.17-1.94-10.76-2.91-3.21,24.25-6.42,48.5-9.62,72.75-.85,6.42,10.08,7.89,11.34,1.54,6.03-30.23,12.09-60.85,24.35-89.29-3.52-1.48-7.04-2.97-10.55-4.45-4.9,32.77-9.8,65.54-14.7,98.31-1.07,7.17,9.62,10.48,11.14,3.07,7.24-35.28,14.58-71.07,30.53-103.63-3.52-1.48-7.04-2.97-10.55-4.45-5.87,34.48-11.74,68.96-17.61,103.43-1.22,7.19,9.4,10.42,11.14,3.07,8.43-35.67,18.83-70.85,31.15-105.37-3.71-1.02-7.42-2.05-11.14-3.07-8.57,37.36-16.34,74.9-23.29,112.6-1.33,7.21,9.09,10.33,11.14,3.07,10.18-36.17,21.76-71.92,34.73-107.18-3.71-1.02-7.42-2.05-11.14-3.07-6.78,34.44-13.56,68.88-20.34,103.31-1.42,7.23,9.01,10.28,11.14,3.07,9.54-32.31,19.7-64.44,30.5-96.35-3.71-1.02-7.42-2.05-11.14-3.07-7.46,34.99-14.92,69.98-22.38,104.97-1.55,7.25,8.89,10.19,11.14,3.07,9.86-31.24,19.73-62.49,29.59-93.73-3.71-1.02-7.42-2.05-11.14-3.07-7.39,31.37-14.78,62.74-22.16,94.12-1.2,5.12,3.97,8.72,8.48,6.52,12.25-5.97,14.41-23.26,17.85-34.9,4.8-16.28,9.6-32.56,14.4-48.84-3.78-.51-7.56-1.02-11.34-1.54-1.13,26.13-7.08,51.61-13.07,76.97,3.71,1.02,7.42,2.05,11.14,3.07,5.38-29.59,10.76-59.19,16.15-88.78-2.83,1.15-5.66,2.3-8.48,3.45,4.63,3.16,4.36,9.99,3.95,14.94-.6,7.26-2.37,14.51-3.66,21.68-2.95,16.41-5.89,32.81-8.84,49.22-1.3,7.22,8.92,10.28,11.14,3.07,6.72-21.82,13.44-43.65,20.16-65.47-3.78-.51-7.56-1.02-11.34-1.54-2.04,19.44-4.07,38.88-6.11,58.32-.58,5.56,8.49,8.07,10.76,2.91,6.87-15.65,12.65-31.69,17.17-48.18l-11.34-1.54c-1.83,14.44-3.65,28.87-5.48,43.31-.82,6.51,9.8,7.74,11.34,1.54,2.27-9.1,5.29-17.92,9.24-26.43-3.59-.97-7.17-1.94-10.76-2.91.19,8.46-1.37,16.38-4.59,24.2,3.71,1.02,7.42,2.05,11.14,3.07,1.86-6.67,4.65-12.74,8.44-18.54-3.59-.97-7.17-1.94-10.76-2.91.73,6.11.46,11.97-1.03,17.95-1.35,5.41,5.59,9.96,9.65,5.62l11.77-12.59c-3.29-1.36-6.57-2.72-9.86-4.08.37,3.89-.15,7-2.12,10.4,3.32,1.94,6.65,3.89,9.97,5.83,1.3-2.36,2.61-4.72,3.91-7.09,3.28-5.94-4.16-11.17-9.07-7-7.66,6.52-18.73,7.31-28.29,8.51-10.61,1.32-21.25,2.46-31.94,2.79-20.93.66-42.05-1.97-59.78-13.9-1.48,3.52-2.97,7.04-4.45,10.55,38.31,8.63,77.81,10.95,116.85,6.63,7.31-.81,7.39-12.37,0-11.55-38.03,4.21-76.44,2.2-113.78-6.21-6.48-1.46-9.9,6.89-4.45,10.55,19.78,13.31,43.91,16.32,67.25,15.41,11.99-.46,23.94-1.87,35.83-3.44,11.24-1.48,22.05-3.64,30.93-11.18-3.02-2.33-6.05-4.67-9.07-7-1.3,2.36-2.61,4.72-3.91,7.09-3.59,6.51,6.24,12.28,9.97,5.83,2.89-4.99,4.24-10.47,3.7-16.23-.44-4.66-6.17-8.03-9.86-4.08l-11.77,12.59c3.22,1.87,6.43,3.75,9.65,5.62,1.73-6.93,2.29-13.92,1.45-21.02-.66-5.55-7.42-8.03-10.76-2.91-4.3,6.58-7.49,13.73-9.6,21.3-2.06,7.36,8.39,9.74,11.14,3.07,3.58-8.68,5.21-17.89,5-27.27-.12-5.33-8.22-8.38-10.76-2.91-4.37,9.41-7.89,19.12-10.4,29.19,3.78.51,7.56,1.02,11.34,1.54,1.83-14.44,3.65-28.87,5.48-43.31.83-6.57-9.67-7.65-11.34-1.54-4.25,15.5-9.54,30.7-16.01,45.42,3.59.97,7.17,1.94,10.76,2.91,2.04-19.44,4.07-38.88,6.11-58.32.7-6.69-9.5-7.52-11.34-1.54-6.72,21.82-13.44,43.65-20.16,65.47,3.71,1.02,7.42,2.05,11.14,3.07,3.52-19.62,7.05-39.25,10.57-58.87,2.45-13.65,6.14-30.81-7.33-40-2.9-1.98-7.84-.08-8.48,3.45-5.38,29.59-10.76,59.19-16.15,88.78-1.31,7.2,9.41,10.4,11.14,3.07,6.23-26.36,12.31-52.88,13.48-80.04.29-6.63-9.53-7.67-11.34-1.54-4.25,14.4-8.49,28.81-12.74,43.21-2.03,6.89-4.02,13.79-6.09,20.67-1.51,5.03-3.06,10.51-8.11,12.97,2.83,2.17,5.66,4.35,8.48,6.52,7.39-31.37,14.78-62.74,22.16-94.12,1.71-7.25-8.9-10.16-11.14-3.07-9.86,31.24-19.73,62.49-29.59,93.73,3.71,1.02,7.42,2.05,11.14,3.07,7.46-34.99,14.92-69.98,22.38-104.97,1.55-7.28-8.75-10.12-11.14-3.07-10.79,31.92-20.96,64.04-30.5,96.35,3.71,1.02,7.42,2.05,11.14,3.07,6.78-34.44,13.56-68.88,20.34-103.31,1.44-7.33-8.57-10.04-11.14-3.07-12.97,35.26-24.55,71.02-34.73,107.18,3.71,1.02,7.42,2.05,11.14,3.07,6.96-37.7,14.72-75.24,23.29-112.6,1.68-7.31-8.65-10.03-11.14-3.07-12.32,34.52-22.72,69.7-31.15,105.37,3.71,1.02,7.42,2.05,11.14,3.07,5.87-34.48,11.74-68.96,17.61-103.43,1.01-5.94-7.45-10.79-10.55-4.45-16.43,33.53-24.24,70.04-31.7,106.39,3.71,1.02,7.42,2.05,11.14,3.07,4.9-32.77,9.8-65.54,14.7-98.31.87-5.79-7.72-11.03-10.55-4.45-12.7,29.46-19.26,60.72-25.52,92.05,3.78.51,7.56,1.02,11.34,1.54,3.21-24.25,6.42-48.5,9.62-72.75.74-5.63-8.45-7.95-10.76-2.91-9.66,21.05-15.42,43.34-17.09,66.44-.5,6.98,9.15,7.15,11.34,1.54,2.41-6.17.73-12.39-3.4-17.32-2.23-2.67-7.61-2.06-9.07,1.17-1.91,4.23-3.82,8.46-5.72,12.69,3.59.97,7.17,1.94,10.76,2.91-.47-6.09-.36-12.11.33-18.18.72-6.37-7.8-6.89-10.76-2.91-1.68,2.26-3.88,3.64-6.38,4.81-6.73,3.14-.87,13.1,5.83,9.97h0Z"/>
        <path class="st1" d="M523.06,359.55c-33.21,3.99-32.67,64.41,3.35,60.03,7.28-.89,7.37-12.45,0-11.55-9.36,1.14-15.93-5.17-16.3-14.41-.34-8.47,2.71-21.29,12.94-22.52,7.29-.87,7.38-12.43,0-11.55h0Z"/>
        <path class="st1" d="M545.13,372.13c7.22,4.23,14.07,11.17,14.74,19.96.56,7.35-5.77,16.9-14.03,15.6-7.27-1.14-10.4,9.99-3.07,11.14,14.12,2.21,26.81-8.48,28.47-22.54,1.71-14.46-8.43-27.21-20.28-34.13-6.43-3.76-12.25,6.22-5.83,9.97h0Z"/>
        <path class="st1" d="M348.06,301.89c-10.54,8.61-16.54,23.93-21.5,36.11-8.09,19.85-13.55,40.88-16.55,62.09-6.73,47.55-1.33,101.27,34.49,136.72,24.63,24.37,58.62,34.85,92.36,38.25,7.39.74,7.34-10.81,0-11.55-28.1-2.83-57.01-11.1-78.78-29.86-17.37-14.97-28.61-35.15-34.25-57.24-10.73-42.08-3.6-88.75,11.37-128.93,3.08-8.27,6.41-16,10.98-24.05,1.68-2.95,3.48-5.82,5.49-8.56.9-1.23-.59.62.69-.87.44-.51.87-1.03,1.33-1.53.8-.86,1.63-1.67,2.54-2.41,5.76-4.71-2.46-12.83-8.17-8.17h0Z"/>
        <path class="st1" d="M666.31,276.82c26.05,28.59,47.88,62.47,60.31,99.23,13.36,39.48,14.31,82.84-7.2,119.69-15.09,25.83-38.54,45.35-63.99,60.47-6.38,3.79-.58,13.78,5.83,9.97,24.43-14.52,46.88-32.84,62.99-56.47,12.87-18.88,20.64-40.63,23.02-63.32,4.53-43.22-11.01-86.63-32.63-123.4-11.43-19.43-24.97-37.68-40.15-54.34-5.02-5.51-13.17,2.68-8.17,8.17h0Z"/>
        <path class="st1" d="M407.13,678.43c-25.47,2.1-50.95,9.63-71.27,25.6-20.66,16.23-36.92,43.99-25.23,70.16,12.12,27.14,45.15,36.96,72.68,33.71,13.84-1.63,29.06-5.84,39.42-15.69,9.22-8.77,13.5-24,5.71-35.09-4.11-5.85-10.41-8.99-16.94-11.45-6.22-2.34-13.48-3.9-18.01-9.18-4.95-5.77-.26-11.46,5.86-13.52,8.18-2.76,17.58-.21,26.04-.7,7.39-.43,7.44-11.98,0-11.55-13.06.76-26.74-3.05-37.95,5.76-9.22,7.25-10.05,19.57-2.11,28.18,8.12,8.8,20.02,9.06,29.54,15.24,12.32,7.99,3.69,22.67-5.99,28.35-22.05,12.95-56.6,12.48-76.61-4.33-9.33-7.83-15.43-19.68-14.02-32.04,1.44-12.64,9.34-24.29,18.2-33.03,18.57-18.32,45.19-26.76,70.69-28.87,7.35-.61,7.42-12.16,0-11.55h0Z"/>
      </g>
    </g>
  </g>
</svg>