<?xml version="1.0" encoding="UTF-8"?>
<svg id="Layer_1" xmlns="http://www.w3.org/2000/svg" version="1.1" viewBox="0 0 2000 2000">
  <!-- Generator: Adobe Illustrator 29.5.0, SVG Export Plug-In . SVG Version: 2.1.0 Build 137)  -->
  <defs>
    <style>
      .st0 {
        fill: none;
      }

      .st1 {
        fill: #3f3f3f;
      }

      .st2 {
        fill: #fffae3;
      }

      .st3 {
        fill: #ff734d;
      }

      .st4 {
        fill: #7c7c7c;
      }

      .st5 {
        fill: #707070;
      }

      .st6 {
        fill: #706159;
      }

      .st7 {
        fill: #1d1d1b;
      }

      .st8 {
        fill: #b4bdc1;
      }

      .st9 {
        fill: #f39f94;
      }

      .st10 {
        fill: #c0eae6;
      }

      .st11 {
        fill: #184054;
      }

      .st12 {
        fill: #ffe0e0;
      }

      .st13 {
        fill: #3b6b89;
      }

      .st14 {
        fill: #ffe85f;
      }

      .st15 {
        fill: #ff9773;
      }

      .st16 {
        fill: #fcc0c0;
      }

      .st17 {
        fill: #ecc1b9;
      }

      .st18 {
        fill: #d7d3bc;
      }

      .st19 {
        fill: #83ccc3;
      }

      .st20 {
        fill: #adadad;
      }

      .st21 {
        fill: #ffa95c;
      }
    </style>
  </defs>
  <g>
    <path class="st9" d="M1898.05,1473.3c-18.41,16.77-30.22,40.63-32.38,65.46-2.88,33.05,10.59,65.14,15.29,97.99,4.55,31.79.4,65.64-16.49,92.95-7.92,12.81-18.9,23.93-31.63,31.99-14.42,9.13-31.09,14.35-48.13,13.71l-.17-33.92c32.85-4.2,60.09-35.14,60.1-68.26.01-20.31-8.73-38.96-17.61-57.55-.01-.02-.02-.05-.04-.06-3.23-6.75-6.48-13.51-9.32-20.33-9.37-22.45-14.44-46.85-14.58-71.16-.02-4.98.16-9.95.54-14.89.86-10.83,2.71-21.55,5.64-31.99,1.4-4.97,3.03-9.86,4.91-14.69.19-.48.39-.96.58-1.45,8.13-20.22,21.13-39.35,40.15-49.97,19.03-10.62,44.74-10.91,61.33,3.21,5.03,4.29,9.18,9.96,10.3,16.46,3.06,17.65-15.28,30.43-28.51,42.5Z"/>
    <path class="st17" d="M1644.49,1453.85c11.34-20.87,28.38-38.59,48.79-50.74,3.91-2.33,8.56-4.51,12.84-2.97,6.27,2.25,7.37,10.5,7.43,17.16.16,19.39.29,38.99-4.11,57.88-4.4,18.88-13.84,37.27-29.49,48.71l-35.45-70.04Z"/>
    <path class="st17" d="M1486.29,1482.01c-16.87-25.75-25.29-56.92-23.7-87.66,4.71-2.19,10.25-.72,15.15,1.04,27.86,10.03,52.55,28.7,69.78,52.79l-61.22,33.83Z"/>
    <path class="st17" d="M1832.84,1761.7c-6.2,12.63-14.16,24.36-23.74,34.69-27.69,29.82-65.94,46.71-105.94,56.38-5.49,1.33-11.01,2.52-16.55,3.59-1.82.35-3.65.69-5.47,1.01-4.37.78-8.73,1.5-13.08,2.15-.12.01-.23.04-.35.05-37.56,5.55-75.11,5.96-112.98,6.19-19.48.12-36.47-4.44-54.54-8.21-5.03-1.04-10.14-2.03-15.41-2.83-1.03-.17-2.05-.31-3.09-.46l-.25-.04c-4.76-.66-9.53-1.52-14.28-2.57-53.89-11.85-104.98-47.82-118.41-103.2-8.57-35.37-5.21-72.4,4.66-107.14,20.39-71.77,66.25-136.36,117.9-189.33.76-.8,1.53-1.59,2.32-2.39,5.63-5.73,11.18-11.26,16.8-16.5t.01-.01c1.64-1.53,3.27-3.03,4.92-4.51.01,0,.01-.01.01-.01,5.84-5.21,11.77-10.06,18-14.43,8.35-5.91,17.21-10.96,26.96-14.87,4.24-1.71,8.66-3.2,13.28-4.44,1.05-.29,2.1-.57,3.17-.82,1.63-.4,3.29-.76,4.99-1.1,1.23-.25,2.47-.47,3.73-.69,2.59-.43,5.15-.8,7.68-1.09,3.86-.45,7.63-.72,11.35-.83,2.59-.08,5.16-.08,7.69-.01.81.01,1.62.04,2.41.08,4.17.19,8.26.59,12.25,1.19.16.01.31.04.46.06,2.75.41,5.45.92,8.12,1.52,4.43.98,8.76,2.21,12.98,3.65,15.18,5.17,29.17,13.19,42.33,23.24,3.87,2.95,7.65,6.07,11.37,9.35h.01c2.98,2.63,5.91,5.34,8.8,8.14h.01c5.44,5.26,10.73,10.81,15.94,16.59,1.74,1.93,3.46,3.86,5.17,5.8,34.91,39.31,67.04,81.11,96.05,124.96,6.63,10.02,13.12,20.21,18.88,30.75.04.06.06.11.08.17.01.02.02.04.04.06,6.05,11.05,11.3,22.5,15.05,34.51,11.38,36.46,7.48,77.12-9.33,111.33Z"/>
    <path class="st7" d="M1564.13,1460.29c-14.12,5.37-10.43,25.04,2.39,29.55,16.8,5.91,30.2-10.46,28.87-26.22-.46-5.37-8.87-5.46-8.46,0,.88,11.86,3.79,26.85,17.76,29.38,11.54,2.09,19.49-9.42,21.88-19.28,1.14-4.72-5.86-8.16-8.16-3.44-2.43,4.98-4.67,14.45-11.89,13.73-9.15-.91-10.44-13.43-11.13-20.39h-8.46c1.02,9.4-3.95,20.2-14.82,19.67-10.96-.53-14.43-13.48-6.49-20.46,1.11-.98-.06-3.09-1.48-2.55h0Z"/>
    <path class="st7" d="M1642.41,1429.13c-.8.94-1.8,1.68-2.5,2.7-.79,1.17-1.26,2.61-1.64,3.98-.73,2.66-1.03,5.49-.83,8.24.25,3.52,2.98,6.27,6.66,5.77,3.3-.45,6.04-3.94,4.89-7.34-.59-1.75-1.1-3.53-1.19-5.39-.04-.86.08-1.73.04-2.58-.05-1.14-.47-2.18-.42-3.32.12-2.45-3.37-4.01-5.02-2.08h0Z"/>
    <path class="st7" d="M1543.46,1428.4c-.12.23-.24.47-.36.7l1.61-1.24c-2.65.99-3.5,2.55-4.51,5.08-.79,1.96-1.52,3.94-2.23,5.93-1.25,3.5,1.71,7.16,5.08,7.62,3.5.47,7.04-2.28,6.92-6-.06-1.96-.14-3.9-.28-5.85-.07-.94-.08-1.96-.28-2.88-.14-.6-.35-1.18-.63-1.74-.24-.4-.53-.75-.87-1.05-.32-2.06-3.55-2.35-4.44-.58h0Z"/>
    <path class="st17" d="M1468.79,1800.22c-.57,2.42-1.13,4.84-1.7,7.27-.2.85,1.08,1.21,1.31.36.64-2.4,1.28-4.8,1.92-7.21.26-.99-1.29-1.41-1.53-.42h0Z"/>
    <path class="st9" d="M1458.38,1803.36c-1.18,5.59.14,11.25,1.07,16.81,1.17,7.03,2.72,13.95,4.58,20.83,1.75,6.47,3.73,12.88,5.93,19.22,1.76,5.04,3.45,11.26,8.4,14.18,12.4,7.32,19.15-12.17,23.4-19.98,7.13-13.11,14.45-26.11,20.8-39.62,3.96-8.44-7.79-15.69-12.69-7.42-5.61,9.47-10.64,19.21-15.67,28.99-2.51,4.89-5.03,9.78-7.54,14.67-1.26,2.44-2.51,4.89-3.77,7.33-.54,1.05-1.08,2.1-1.62,3.14,3.65,1.08,4.68.64,3.07-1.32.05-1.56-2.2-4.45-2.94-6.01-1.27-2.68-2.51-5.38-3.69-8.1-2.19-5.04-4.21-10.15-6.08-15.31-1.79-4.93-3.58-9.86-5.21-14.84-1.46-4.46-2.48-9.01-5.14-12.94-.71-1.05-2.59-1.04-2.89.38h0Z"/>
    <path class="st9" d="M1649.59,1805.78c1.5,13.2,6.55,25.75,11.6,37.95,2.63,6.35,5.35,12.74,8.34,18.92,2.25,4.66,5.74,9.21,10.68,11.25,12.28,5.07,18.3-7.5,21.46-16.84,4.64-13.73,10.87-27.81,13.42-42.1,1.28-7.19-8.97-12.95-12.71-5.36-4.71,9.58-7.38,20.12-10.6,30.27-1.64,5.17-3.27,10.35-4.92,15.52-.24.74-1.15,5.29-2.02,5.72-.35.68-.36.74-.02.19-.88-.64-1.65-1.39-2.32-2.24-6.45-7.41-10.84-17.7-15.35-26.36-4.84-9.27-9.14-18.89-14.93-27.62-.7-1.05-2.8-.79-2.63.71h0Z"/>
    <path class="st7" d="M1628.42,1396.8c-1.11,9.77-4.27,19.7-10.87,27.1-4.72,5.28-15.41,1.31-14.64-6.05.57-5.41.68-10.82,1.56-16.21.1-.62.19-1.27.3-1.92-.11-1.19.06-2.44.54-3.69.06-.16.12-.31.19-.47.31-1.41.75-2.76,1.36-3.99.16.01.31.04.46.06,2.75.41,5.45.92,8.12,1.52,4.43.98,8.76,2.21,12.98,3.65Z"/>
    <path class="st7" d="M1592.82,1412.73c-3.57,5.35-11.91,6.13-15.32,0-3.26-5.85-4.72-12.98-4.45-19.66.02-.65.06-1.3.11-1.94,3.86-.45,7.63-.72,11.35-.83,2.59-.08,5.16-.08,7.69-.01.81.01,1.62.04,2.41.08.63,1.75,1.06,3.53,1.35,5.1,1.12,6.01.29,12.12-3.15,17.26Z"/>
    <path class="st7" d="M1565.33,1418.13c-5.34,5.34-12.66,2.23-17.06-2.47-4.22-4.51-7.09-10.07-7.92-16.2-.01-.07-.02-.13-.02-.21,4.24-1.71,8.66-3.2,13.28-4.44,1.05-.29,2.1-.57,3.17-.82,1.63-.4,3.29-.76,4.99-1.1,1.72,2.64,2.91,6.03,3.73,8.19,1.94,5.15,4.37,12.52-.16,17.04Z"/>
    <path class="st7" d="M1832.36,1493.23c-9.38-1.09-16.29-8.16-22.25-15.04-.25-.3-.53-.61-.82-.94,1.4-4.97,3.03-9.86,4.91-14.69,2.53,1.15,5.27,1.92,7.84,2.92,8.01,3.14,17.12,6.45,19.42,15.8,1.31,5.35-2.74,12.69-9.09,11.95Z"/>
    <path class="st7" d="M1832.6,1522.25c-.88,6.52-6.56,9.18-12.48,8.32-6.32-.92-12.19-2.93-17.02-6.44-.02-4.98.16-9.95.54-14.89,6.36.89,12.81,1.83,19.13,1.68,6.09-.14,10.61,5.56,9.83,11.34Z"/>
    <path class="st9" d="M1693.58,1430.38c1.45-.92,2.47-2.16,3.71-3.32.51-.48,1.05-.93,1.59-1.38-.09.08,1.28-.54.34-.27-3.16-3.16-6.32-6.32-9.49-9.49-.92,2.38-.61,5.15-.6,7.67,0,.94.01,1.87.01,2.81.01.51,0,1.01-.02,1.52.03-1.29.51-2.44,1.45-3.44,1.23-.72,2.46-1.43,3.69-2.15.35-.07.69-.14,1.04-.21,1.4.38,2.8.76,4.2,1.14-.76-.42-.84-.44-.26-.05-.48-.39-.96-.78-1.43-1.17-.96-.78-1.91-1.56-2.87-2.35-3.27-2.67-8.28-3.44-11.43,0-2.86,3.12-3.32,8.37,0,11.43,2.26,2.08,4.59,4.82,7.29,6.32,4.54,2.52,10.51,1.45,13.3-3.15,1.69-2.78,1.93-5.67,1.69-8.84-.29-3.89-.23-7.82-1.96-11.39-1.32-2.74-4.87-4.06-7.68-3.68-3.16.42-5.37,2.57-6.41,5.52.37-1.04-.61.91-.71,1.11-.53.98-.97,1.99-1.41,3.02-.83,1.94-1.66,3.85-1.58,6,.13,3.64,4.22,6.46,7.55,4.33h0Z"/>
    <path class="st9" d="M1485.08,1434.89c2.04-2.98,1.35-7.2,1.2-10.67-.2-4.55-.48-9.1-.56-13.65-3.94,1.07-7.87,2.13-11.81,3.2,1.71,2.25,3.54,4.17,5.57,6.13,1.65,1.6,4,3.2,5.15,5.18-.32-1.16-.63-2.33-.95-3.49.02.38.05.75.07,1.13.32-1.17.63-2.34.95-3.51-.67,1.31-2.4,2.21-3.34,3.38-1.56,1.94-2.05,3.61-2.09,6.09-.05,3.19,2.78,6.06,5.99,5.99,6.21-.13,13.42-7.49,12.13-14-.72-3.62-3.27-5.74-5.89-8.09-2.89-2.6-5.67-5.35-8.93-7.47-4.4-2.87-11.29,1.97-9.31,7.16,1.76,4.62,3.26,9.33,4.95,13.97,1.19,3.26,2.09,7.14,5.08,9.13.62.41,1.4.09,1.78-.47h0Z"/>
    <path class="st9" d="M1655.75,1495.04c7.65,4.48,24.98,8.24,29.87-1.9,2.63-5.45-.49-11.25-5.61-13.71-5.02-2.42-11.41-1.47-16.45.44-3.82,1.45-6.72,4.53-6.72,8.83,0,3.7,2.81,8.22,6.72,8.83,3.67.57,6.74.38,10.4-.19,8.63-1.35,8.2-15.31,0-17.01-2.67-.55-5.24-1.08-7.97-.79,1.54,5.69,3.08,11.38,4.62,17.06.91-.55,2.88-1.02,3.58-1.62,1.09-.93.84.84-.81-1.03-.66-1.13-1.32-2.27-1.98-3.4,0-.1-.02-.19-.03-.29.34-1.25.68-2.5,1.02-3.75.3-.62,1.83-.71-1.01,0-1.46.36-2.9.59-4.4.71-3.05.25-6.01-.16-9.04-.29-4.39-.19-5.82,5.99-2.2,8.11h0Z"/>
    <path class="st9" d="M1504.57,1474.26c-6.03,1.91-7.78,8.62-5.43,14.07,2.75,6.4,10.42,8.69,16.73,6.45,3.38-1.2,6.78-3.33,8.65-6.48,2.48-4.16,1.8-9.16-1.31-12.78-2.9-3.39-7.55-4.66-11.84-3.84-3.75.72-6.68,2.97-9.49,5.43-3.61,3.17-3.48,9.75,0,12.95,3.31,3.04,9.77,4.01,12.95,0,.69-.87,1.44-1.66,2.19-2.48.64-.69-.72.49-1.1.62-1.06.36-2.63.02-3.58-.49-1.29-.69-1.38-7.34-1.38-7.34.31-.33.31-.33,0,0-.22.26-.46.5-.72.73.53-.52.33-.33-.13.06-.2.11-.4.22-.6.34.6-.23.66-.26.17-.1-.15.04-1.4.47-.69.21.91-.33-1.4.11.13.02.48-.03.49.5-.03-.02.1.1,1.14,1.1.6.52-.46-.5.45.26-.07-.04-.11-.42-.12-.34-.05.23,0-.17-.01-.35-.02-.52-.24.35-.18.52.05-.03.55-1.32-.56.63.32-.53,2.53-3.36-1.66-8.15-5.36-6.98h0Z"/>
    <path class="st7" d="M1596.45,1457.7c-.03-1.96-1.11-3.09-2.79-3.91-2.59-1.27-5.18-.42-7.21,1.45-2.11,1.94-2.5,5.21-1.57,7.8,1.06,2.95,3.3,5.11,5.92,6.74,3.61,2.24,7.75-.02,9.87-3.18,1.61-2.41,2.15-5.77,1.15-8.52-2.34-6.45-11.42-9.19-16.39-3.87-1.86,1.99-2.35,4.92-.95,7.33,1.57,2.67,5.57,4.06,8.27,2.17.3-.21.61-.38.93-.55-.92.34-1.08.41-.46.21-1.01.09-1.19.12-.53.08,1.27-.06-1.38-.34-.15,0-.84-.39-.99-.43-.44-.13-.47-.25-.82-.62-1.06-1.09.73.97-.32-1.21-.03-.05-.1-.93-.14-1.08-.13-.44.15-.9.15-1.05,0-.43.1-.22.2-.44.3-.66-.3.51-.21.44.28-.21-.16.18-.33.35-.5.52.65-.47.72-.56.21-.26,1.39-.18,2.77-.36,4.16-.54-1.37-.47.97.5-.38-.13-.21-.1-1.68-1.1-.84-.42-.22-.19-.42-.39-.62-.6.32.44.34.43.04-.03.2.51.22.5.06-.03-.14-.61-.13-.55.02.21,0,.2-.53,1.5-.14.79-.48.87.15-.1.34-.32.68-.88.79-1.02.34-.44.5-.47.15-.35-1.04.34-.46-.06-.3-.04.49.07-.61-.24-.72-.25-.33-.03,1.35.87,3.2-.27,3.17-1.82h0Z"/>
  </g>
  <g>
    <path class="st19" d="M1167.25,1650.61c13.12-10.44,29.78-13.76,45.9-15.58,17.34-1.96,35.94-2.22,50.89,7.62,12.9,8.49,21.12,23.25,28.53,37.62,3.94,7.64,7.85,15.54,9.07,24.21,1.44,10.21-.98,20.6-4.28,30.27-5.91,17.28-15.46,36.31-29.25,47.56-8.82,7.2-29.41,18.91-39.63,9.88-18.52-16.37,10.33-45.74,16.89-59.64,5.31-11.25,7.83-24.06,7.24-36.71-.41-8.71-3.17-18.55-10.5-21.92-2.75-1.26-5.8-1.42-8.78-1.46-16.56-.2-33.14,2.9-48.7,9.12-9.85,3.94-19.88,9.21-30.29,7.84l12.92-38.83Z"/>
    <path class="st10" d="M1057.58,1472.22c-.03.16-.05.31-.08.47,1.3-1.08,2.59-2.17,3.89-3.25-.21.01-.43.03-.64.04.99.45,1.97.9,2.96,1.35-.13-.18-.25-.36-.38-.54.23,1.92.45,3.84.68,5.75.21-.32.42-.64.63-.96-.91.77-1.82,1.54-2.73,2.31,7-2.59,13.96-5.14,20.86-8.21,7.06-3.14,14.1-6.36,21.25-9.24,10.46-4.22,26.46-11.94,37.12-4.89l-1.75-14.88c-20.61,23.24-42.08,45.57-64.3,66.94,4.97,3.18,9.95,6.35,14.92,9.53,4.27-12.55,13.47-22.1,22.49-30.67,9.92-9.43,20.46-18.13,29.18-28.96,6.87-8.54-1.64-20.45-10.91-15.51-20.76,11.07-41.18,22.89-61.22,35.46-10.16,6.37-1.12,23.23,9.15,17.18,15.15-8.92,29.32-19.47,42.69-31.32,8.32-7.38-2.29-20.84-11.04-15.7-14.87,8.73-29.75,17.46-44.62,26.2l11.1,15.78c7.53-7.01,15.06-14.02,22.59-21.03,3.45-3.21,3.36-9.6.72-13.23-2.98-4.11-7.61-4.84-11.85-2.6-9.67,5.13-17.5,13.01-23.63,22.63-2.59,4.07-1.03,10.22,2.37,13.01,3.9,3.2,8.42,2.48,12.07-.79,8.01-7.17,16.31-16.82,26.02-21.2,3.98-1.8,7.75-1.35,11.95-1.3,6.37.07,11.32-1.49,16.36-5.81,5.23-4.48,2.38-15.63-4.04-16.81-14.31-2.62-24.61,10.02-33.94,20.14-9.23,10-17.58,20.86-25.33,32.27-2.69,3.96-.94,10.24,2.35,12.94,3.69,3.03,8.61,2.71,12-.78,10.53-10.85,19.57-23.41,26.78-37.15,5.02-9.56-7.39-20.99-14.33-12.13-6.29,8.02-12.58,16.05-18.87,24.07,5.08,1.47,10.16,2.94,15.23,4.41-2.84-11.01-14.41-15.46-23.5-10.71-8.12,4.24-16.8,17.57-11.95,27.31,4.3,8.63,17.89,2.77,14.75-6.83-.12-.37-.24-.73-.36-1.1v4.76c.27-1.87,2.97-4.09,4.33-5.43,2.2-2.17.02.71-.85-2.69,1.75,6.82,10.64,10.27,15.23,4.41,6.29-8.02,12.59-16.03,18.88-24.05-4.78-4.04-9.55-8.09-14.33-12.13-6.5,12.35-14.47,23.32-23.95,33.07,4.79,4.05,9.57,8.1,14.36,12.16,5.84-8.59,12.25-16.72,19.06-24.4,3.4-3.83,6.9-7.54,10.5-11.14,1.77-1.76,3.52-3.68,5.44-5.24.64-.52,1.33-1.04,2.03-1.46.88-.53,2.26-.78,1.58-.91-1.35-5.6-2.7-11.21-4.04-16.81,1.44-1.24.06-.12-.67-.13-.91-.01-1.82.05-2.73.04-2.54-.03-5.07-.27-7.62-.05-5.77.49-11.13,2.48-16.18,5.54-9.88,5.98-18.45,15.1-27.16,22.88,4.81,4.07,9.62,8.15,14.43,12.22,4.35-6.81,10.26-11.79,17.03-15.4-3.71-5.28-7.42-10.55-11.13-15.83-7.52,7.02-15.04,14.05-22.55,21.07-8.17,7.64,2.26,20.99,11.1,15.78,14.86-8.76,29.71-17.52,44.57-26.28-3.68-5.23-7.36-10.47-11.04-15.7-12.12,10.79-25.23,20.15-38.96,28.28,3.05,5.73,6.1,11.45,9.15,17.18,20.02-12.6,40.41-24.47,61.16-35.58-3.64-5.17-7.27-10.34-10.91-15.51-18.74,23.36-45.79,37.76-56.16,68.4-3.35,9.89,8.83,15.41,14.92,9.53,22.2-21.43,43.49-43.91,63.89-67.4,3.65-4.2,3.34-12.02-1.75-14.88-15.97-9-33.79-1.36-49.03,5.86-8.3,3.93-16.42,8.33-24.55,12.67-4.19,2.24-8.46,4.43-12.56,6.88-3.11,1.86-6.97,4.1-7.6,8.27-.3,1.96.17,4.39,1.99,5.36,1.94,1.03,3.43,1.14,5.34-.06,1.53-.96,2.34-3.13,1.85-5-.04-.16-.08-.31-.12-.47-1-3.85-6.85-4.36-7.58,0h0Z"/>
    <path class="st10" d="M901.48,1461.98c-2.21-2.16-2.97-4.53-4.66-7.07-1.51-2.29-3.35-4.36-4.9-6.64-3.08-4.51-5.71-9.31-8.22-14.22-2.27-4.45-4.09-9.01-5.49-13.87-.76-2.65-1.45-5.32-1.96-8.04-.2-1.05-.41-2.11-.54-3.18-.05-.55-.1-1.11-.16-1.66-.2-1.29-.15-1.55.16-.78-.77,1.44-1.53,2.88-2.3,4.32.24-.24.49-.48.73-.72-1.32.84-2.63,1.68-3.95,2.52.47-.07.94-.14,1.4-.21h-4.76c12.09,3.6,24.04,10.8,34.29,18.55,10.12,7.66,18.86,17.4,25.21,28.97,4.97-4.21,9.94-8.42,14.91-12.62-21.65-19.16-45.42-34.17-71.39-45.11-9.11-3.84-16.31,10.89-9.42,17.75,11.93,11.89,19.85,27.09,27.72,42.32,6.21,12.02,22.22,1.44,16.74-10.74-4.38-9.72-8.75-19.44-13.13-29.16-4.42,4.85-8.85,9.71-13.27,14.56,8.37,6.2,16.75,12.4,25.12,18.6,2.49-6.49,4.99-12.98,7.48-19.46-4.52-1.87-8.74-4.42-12.79-7.3-9.32-6.63-19.57,8.32-11.77,16.73,6.19,6.67,12.7,13.09,19.87,18.49,8.83,6.65,19.66-8.6,11.51-16.37-5.95-5.67-12.01-11.12-17.65-17.19-3.92,5.58-7.84,11.15-11.77,16.73,5.49,3.9,11.31,6.92,17.43,9.44,4.46,1.85,9.79-1.65,11.45-6.17,1.87-5.1.14-10.26-3.97-13.3-8.37-6.2-16.75-12.39-25.12-18.59-8.65-6.4-17.23,5.77-13.27,14.56,4.38,9.72,8.76,19.44,13.14,29.15,5.58-3.58,11.16-7.16,16.74-10.74-8.64-16.71-17.67-33.57-30.77-46.61-3.14,5.92-6.28,11.84-9.42,17.75,22.58,9.5,44.11,22.93,63.11,39.36,3.72,3.21,8.48,4.3,12.46.81,3.59-3.14,4.98-8.94,2.44-13.44-15.16-26.89-41.11-45.73-68.33-55.1-9.74-3.35-17.66,3.23-16.41,14.61.92,8.37,3.18,16.28,6.51,23.86,3.41,7.74,7.92,14.7,13.37,20.87,2.59,2.93,5.32,5.59,8.27,8.08,3.49,2.94,7.26,4,10.89,6.54,3.47,2.44,7.58-3.26,4.45-6.32h0Z"/>
    <path class="st10" d="M1095.75,1479.34c-69.57-50.13-195.4-55.95-259.68,8.59-40,40.16-61.23,101.74-55.48,160.9,2.23,23,8.38,45.68,19.13,65.57,29.26,54.17,88.52,80.77,145.59,87.34,33.78,3.89,68.11,2.04,101.39-5.45,45.17-10.17,91.06-33.35,114.58-76.87,20.42-37.79,20.63-85.6,9.02-127.64-12.5-45.27-38.52-86.48-74.55-112.44Z"/>
    <path class="st19" d="M1103.9,1580.89c-4.42-16.65-21.81-27.31-37.06-21.99-9.37,3.27-15.4,12.72-12.07,23.51,3.21,10.39,12.82,15.04,22.02,16.63,9.45,1.63,23.23,4.75,30.24-4.43,6.94-9.09,3.1-21.76-4.78-28.31-8.16-6.78-20.8-9.21-28.61-.47-7.13,7.98-5.65,22.87,4.95,26.18,4.75,1.48,10.35.16,13.76-3.87,4.4-5.19,3.86-13.12-1.85-16.85-5.12-3.34-12.09-1.7-15.15,4.03-2.99,5.61-1.22,14,4.47,16.65,9.46,4.4,16.2-8.18,8.02-15.05l-.73-.61c.96,1.06,1.93,2.11,2.89,3.17-.3,1.88-.6,3.77-.89,5.65l-3.6,2.3c-1.31-.36-2.62-.71-3.93-1.07l-2.09-8.68c.26-.96,1.91-3.07,3.26-2.8,2.64.52,1.34,1.97,2.41,2.7-.2,1-.28,1.27-.21.8,0-.1.02-.19.07-.27-.23-.12,1.41-.55,1.49-.57,2.66-.55,8.16,2.6,8.62,5.75.17,1.17-.22.53-.48.63-2.3.89-5.95.16-8.39.07-4.85-.18-10.43-.3-14.91-2.63-2.75-1.43-6.1-5.2-3.71-8.49,2.28-3.14,7.39-3.85,10.76-3.75,8.55.27,16.02,6.04,19.36,14.59,1.52,3.88,7.2,1.1,6.15-2.85h0Z"/>
    <path class="st19" d="M872.72,1528.71c-4.04-13.53-22.32-13.83-29.75-3.92-1.83,2.44-2.57,6.58,0,8.92,11.55,10.52,27.69,17.46,42.74,12.88,7.2-2.19,14.49-7.68,13.98-16.84-.44-8-6.57-14.32-12.88-17.35-11.04-5.31-35.16-8.55-38.95,8.68-4.16,18.92,24.22,26.04,36.19,21.67,9.35-3.41,10.79-16,4.75-23.58-6.96-8.72-17.34-5.54-25.54-1.08-9.4,5.11-1.14,20.62,8.24,15.46,1.25-.69,4.6-1.31,5.47-2.2.75-.78-.52.29-.33-.38-.08-.41-.17-.82-.25-1.22.74-1.24,1.48-2.49,2.22-3.73-.18-.31-5-.09-5.73-.18-2.34-.29-4.69-.92-6.93-1.74-1.75-.64-3.9-2.92-3.14.27.65,2.76-.52.69,1.5,1.04.76.13,1.65-.04,2.42-.04,3.79.02,7.66.15,11.37,1.09,1.72.44,6.8,2.19,7.18,3.82,0,.01.73-.83-.43.21-.78.7-1.89,1.03-2.83,1.37-1.99.73-4.03,1.12-6.12,1.2-9.37.36-17.98-4.38-25.95-9.26.69,2.88,1.37,5.75,2.06,8.63,3.48-6.92,11.85-5.51,16.46-1.01,1.78,1.74,5.1.1,4.26-2.72h0Z"/>
    <path class="st19" d="M871.33,1731.55c-.52,11.35.05,22.78.37,34.13.22,7.55-1.46,20.21,5.42,25.08,7.87,5.56,14.56-5.63,18.82-11.28,6.42-8.51,12.54-17.31,17.43-26.98,3.32-6.55-5.2-11.74-9.02-5.79-4.23,6.59-8.28,13.32-12.64,19.81-2.24,3.34-4.57,6.62-6.98,9.82-1.12,1.5-2.2,3.28-3.52,4.58.26.22.52.44.78.66-.4-.66-.68-1.38-.83-2.15-2.08-7.29-2.14-15.95-3.08-23.51-1.04-8.3-2.05-16.64-3.7-24.82-.39-1.95-2.97-1.4-3.05.45h0Z"/>
    <path class="st19" d="M1023.31,1754.91c1.83,12.91,7.1,26.1,11.33,38.27,2.56,7.36,6.77,26.19,17.55,19.7,3.76-2.27,5.3-7.07,6.51-11.28,1.49-5.18,2.57-10.48,3.68-15.76,2.19-10.36,4.48-21.36,10.95-29.65,4.73-6.05-3.08-14.85-8.06-8.84-11.32,13.67-12.32,31.81-16.53,48.85-.24.99-1.87,4.75-1.59,5.57.23.66,1.27,1.02,1.38.13.1-.8-1.51-3-1.94-3.88-2.34-4.78-4.58-9.62-6.72-14.51-4.4-10.04-7.24-20.89-11.75-30.82-1.44-3.16-5.24-.76-4.81,2.23h0Z"/>
    <path class="st7" d="M941.65,1534.97c-4.56,9.73,3.56,19.85,12.63,20.27,12.88.6,21.11-13.01,25.76-24.33-3.03-1.4-6.06-2.8-9.09-4.2-3.37,13.24,3.79,28.78,16.49,31.72,13.08,3.03,25.85-8.72,26.5-23.01.29-6.5-8.45-6.23-9.07,0-.79,8.03-8.73,15.01-16.08,12.69-7.03-2.21-10.67-11.26-8.25-18.51,1.92-5.78-6.58-9.73-9.09-4.2-3.04,6.73-5.7,14.55-11.84,18.66-5.93,3.98-16.76,2.17-15.36-7.89.22-1.61-1.8-2.92-2.6-1.2h0Z"/>
    <path class="st7" d="M1065.11,1497.66c-.94,1.14-1.81,2.28-2.62,3.54-.32.5-.65,1.01-.97,1.51-.22.34-.43.67-.65,1.01-.41.63-.43.67-.07.14-2.06,1.13-2.64,4.33-1.53,6.41,1.11,2.09,3.91,3.09,5.84,1.68,2.74-1.99,4.77-5.05,6.94-7.72,2.19-2.7,2.16-6.75-.56-9.05-2.55-2.16-6.49-1.49-8.12,1.7-1.59,3.11-3.7,6.31-4.53,9.78,2.79.42,5.59.83,8.38,1.25-.25.68-.23.66.07-.07.16-.37.32-.74.48-1.11.24-.56.48-1.11.72-1.67.6-1.39,1.08-2.79,1.52-4.25.91-3.03-2.96-5.5-4.91-3.13h0Z"/>
    <path class="st7" d="M912.14,1480.9c-1.68,1.57-1.9,3.7-2.24,5.95-.36,2.41-.66,4.83-.96,7.25-.35,2.9,2.34,5.56,4.72,5.87,2.74.36,5.13-1.39,5.98-4.28.64-2.17.74-4.44.94-6.7.17-1.97.48-3.99.42-5.97-.11-3.64-2.84-7.14-6.35-6.96-3.68.18-6.04,3.07-6.35,6.96-.15,1.96.06,4,.13,5.97.09,2.27.15,4.49.69,6.7,3.5-1.06,7.01-2.12,10.51-3.18-.48-2.01-.94-4.04-1.36-6.07-.44-2.11-.71-4.08-2.3-5.55-1.19-1.1-2.65-1.12-3.85,0h0Z"/>
    <path class="st19" d="M1101.16,1484.93c-.05-.99-.11-1.99-.2-2.98-.4,1.05-.79,2.1-1.19,3.14,8.32-9.51,17.05-18.23,28.28-23.37-2.65-3.78-5.3-7.56-7.94-11.34-2.37,5.36-5.41,9.99-9.48,13.96-4.01,3.9-9.51,5.86-13.22,10-3.72,4.14-.78,10.43,4.09,10.84,6.61.56,13.66-5.15,18.43-9.57,5.14-4.75,9.35-10.83,12.33-17.43,3.15-6.96-3.21-14.18-9.63-10.56-12.26,6.92-23.74,18-29.23,32.09-.82,2.1-.69,4.9,1.45,6.08.88.5,1.77.97,2.66,1.43,1.53.8,3.76-.12,3.64-2.29h0Z"/>
    <path class="st19" d="M898.97,1446.12c-.21-7.36-4.54-14.53-8.16-20.5-4.08-6.72-8.58-13.17-13.43-19.25-5-6.27-15.63.34-12.99,8.3,4.26,12.85,10.99,25.1,21.08,33.39,7.12,5.85,14.35-6.3,9.05-12.87-6.26-7.76-11.86-15.17-15.14-25.06-4.33,2.77-8.66,5.53-12.99,8.3,5.06,4.95,9.91,10.1,14.41,15.66,4.12,5.09,7.98,11.6,13.43,15.01,2.02,1.26,4.82-.32,4.74-2.99h0Z"/>
    <path class="st7" d="M979.43,1520.96c-3.98-3.93-11.72-2.47-14.98,1.75-1.57,2.04-1.88,3.9-.81,6.28,1.84,4.1,6.01,7.01,10.59,6.76,5.24-.29,9.23-4.77,9.61-9.87.38-5.18-3.56-9.12-8.53-9.58-5.27-.49-9.17,3.75-9.56,8.71-.27,3.49,3.13,6.42,6.42,6.42,3.71,0,6.15-2.93,6.42-6.42-.12,1.54-.67,2.6-1.89,3.4-.24.16-2.49.45-1.39.46-2.25-.02-4.31-2.03-3.34-4.21-.44.98.23-.07.57-.34-.8.61.45-.25,1.03-.13.9.2-.47-.3-.67-.43-.55-.35-.65-.42-.31-.2-.29-.27-.56-.56-.81-.86.44,1.68.89,3.36,1.33,5.04.71-1.89,2.12-3.06,4.87-3.27,1.73-.13,2.82-2.18,1.46-3.52h0Z"/>
  </g>
  <g>
    <path class="st3" d="M1466.96,835.42c9.82-19.78,16.36-56.83,35.07-70.11,35.94-25.51,24.16,58.01,21.64,81.69l-56.71-11.57Z"/>
    <path class="st3" d="M1355.71,970.11c-18.14-12.59-53.85-24.44-64.27-44.89-20.01-39.26,60.91-15.48,83.97-9.54l-19.69,54.43Z"/>
    <path class="st3" d="M1904.59,963.25c-.06,7.49-.91,14.99-2.49,22.34-3.88,18.04-12.1,35.27-23.63,49.74-4.81,6.05-10.21,11.63-16.1,16.58-10.96,9.22-23.65,16.3-37.56,20.3-26.51,7.64-54.77,5.17-82.15,1.8l44.61-27.05c17.23-2.82,32.62-12.11,44.26-24.96,3.48-3.83,6.63-7.98,9.38-12.37,7.76-12.3,12.51-26.49,13.16-40.84.24-5.65-.14-11.33-1.22-16.93-.3-1.52-.65-3.04-1.05-4.54-4.41-16.64-13.84-30.99-24.09-44.99-2.82-3.84-5.7-7.66-8.54-11.51-4.74-6.36-9.39-12.75-13.6-19.37-15.97-25.16-24.27-60.96-4.09-82.86,11.26-12.23,28.77-16.75,45.39-16.99,14.41-.2,32,5.27,34.55,19.45,1.84,10.25-5.25,19.65-9.17,29.3-5.53,13.6-4.7,28.67-.89,43.06,1.41,5.36,3.24,10.61,5.31,15.67.63,1.54,1.27,3.06,1.96,4.58,7.4,16.93,16.88,33.04,22.05,50.79,2.74,9.43,4,19.13,3.91,28.82Z"/>
    <path class="st15" d="M1804.88,1011.6c-2.38,38.66-15.61,78.12-43.9,104.59-53.81,50.39-150.29,51.89-219.54,43.14-70.12-8.84-145.68-36.26-187.87-96.25-34.25-48.7-30.01-109.55-10.12-162.98,8.94-24.01,18.92-48.88,37.5-67.18,24.68-24.31,39.99-20.45,67.66-22.44,23.81-1.76,47.73-2.21,71.59-1.38,11.93.41,23.83,1.14,35.72,2.18,12.25,1.08,24.46,2.51,36.63,4.26,13.13,1.88,26.2,4.16,39.2,6.83,7.67,1.57,15.34,3.28,22.96,5.12,4.82,1.16,9.66,2.31,14.52,3.47,12.21,2.92,24.44,5.92,36.28,9.55,9.21,2.81,18.19,5.98,26.76,9.77,11.59,5.11,22.43,11.35,32.06,19.31,12.66,10.45,23.24,23.88,30.72,41.64,11.75,27.92,11.65,70.63,9.83,100.37Z"/>
    <path class="st3" d="M1460.37,1105.3c13.74-32.67-19.95-49.53-43.65-27.75-20.15,18.52-21.61,37.47-53.59,24.68-2.02-.81-4.25-1.71-6.31-1.02-2.94.98-4,4.9-2.92,7.81,1.08,2.91,3.62,4.99,6.12,6.83,35.17,25.85,80.2,37.35,100.35-10.54Z"/>
    <path class="st3" d="M1742.11,1192.38c21.27-7.81-9.53-30.27-15.04-39.11-7.71-12.39-7.89-35.3-21.79-42.7-14.74-7.85-38.71-4.61-47.46,11.01-19.69,35.17,41.5,64.6,66.74,71.47,3.2.87,6.53,1.65,9.81,1.17,3.11-.46,5.67-1.08,7.73-1.83Z"/>
    <path class="st3" d="M1764.33,869.59c-3.36,11.79-8.47,23.09-15.18,33.35-2.19,3.37-5.71,7.06-9.55,5.85-2.88-.89-4.23-4.12-5.09-7.01-3.37-11.35-4.74-23.3-4-35.13.34-5.46,1.13-10.92,1.76-16.37,11.59,5.11,22.43,11.35,32.06,19.31Z"/>
    <path class="st3" d="M1631.75,822.37c-4.62,20.08-11.69,44.69-25.51,52.46-9.59,5.38-14.16-8.13-15.71-15.05-1.6-7.18-.9-14.64-.18-21.95.74-7.43,1.47-14.86,2.19-22.3,13.14,1.89,26.2,4.16,39.2,6.83Z"/>
    <path class="st3" d="M1705.51,840.51c-2.19,10.94-5.33,21.55-10.09,30.23-3.22,5.88-15.66,14.61-22.9,11.05-7.08-3.48-6.43-21.29-6.47-28.98-.05-7.4,1.28-14.68,3.18-21.86,12.21,2.92,24.44,5.93,36.28,9.55Z"/>
    <path class="st15" d="M1878.47,1035.33c-4.81,6.05-10.21,11.63-16.1,16.58-4.72-3.64-9.29-7.51-13.68-11.59-5.98-5.56-12.03-11.65-17.16-18.33,3.48-3.83,6.63-7.98,9.38-12.37,6.88,5.17,13.59,10.7,20.74,15.44,5.46,3.62,11.08,7.05,16.82,10.27Z"/>
    <path class="st15" d="M1904.59,963.25c-.06,7.49-.91,14.99-2.49,22.34-9.18-.98-18.26-3.3-26.76-6.52-6.82-2.59-14.49-5.94-21.28-10.29.24-5.65-.14-11.33-1.22-16.93,3.61,1.54,7.14,3.31,10.79,4.59,5.75,2.04,11.67,3.53,17.64,4.77,7.71,1.59,15.5,2.09,23.31,2.05Z"/>
    <path class="st15" d="M1878.63,883.65c-12.52,2.76-24.85,6.25-36.57,11.58-4.59,2.08-9.39,5.08-14.34,7.1-2.82-3.84-5.7-7.66-8.54-11.51,1.75-1.25,3.47-2.63,5.28-3.99,5.56-4.2,11.6-7.77,17.74-11.03,9.29-4.95,19.07-9.27,29.17-12.4,1.41,5.36,3.24,10.61,5.31,15.67.63,1.54,1.27,3.06,1.96,4.58Z"/>
    <path class="st7" d="M1392.7,932.2c11.09,10.81,28.35,10.03,40.07.68,10.99-8.77,15.75-31.78,3.88-41.73-2.6-2.18-7-.19-5.95,3.47,1.54,5.42,3.63,10.23,3.65,15.98.01,5.73-2.31,11.58-5.94,15.96-8.26,9.97-24.02,10.29-34.56,4.17-.92-.53-1.91.72-1.14,1.47h0Z"/>
    <path class="st7" d="M1477.4,881.51c5.53,10.83-11.1,16.47-18.74,16.99-8.37.58-15.69-2.34-19.52-10.01-2.88-5.78-11.23-.72-8.58,5.02,5.8,12.53,22.17,14.83,34.25,12.15,6.76-1.5,13.19-5.07,16.84-11.07,3.02-4.96,1.5-11.04-3.1-14.23-.74-.52-1.51.46-1.15,1.15h0Z"/>
    <path class="st7" d="M1430.53,884.69c.51-4.4-5.29-6.38-8.65-4.59-2.5,1.33-3.62,3.89-3.78,6.6-.18,3.07,1.97,5.74,4.26,7.44,2.55,1.89,6.33,1.45,9,.14,2.7-1.33,4.91-4.03,5.51-7.01.33-1.63.36-3.42-.28-4.97-.84-2.07-2.53-4.53-4.99-4.89-2.17-.32-4.26-.35-6.16.97-2.05,1.42-3.7,3.8-3.41,6.42.2,1.77.57,3.23,1.88,4.54,1.62,1.62,4.04,2.26,6.25,1.65,1.61-.44,3-1.52,3.84-2.95,1.26-2.16.95-4.31,0-6.48-.05-.11-.1-.22-.14-.33.29,1.07.58,2.14.87,3.21l-.09,1.01c-.54.92-1.07,1.84-1.61,2.76.68-.8.2-.53-1.43.82h-3.2c-1.23-.48-2.07-1.34-2.54-2.56-.09-.31.18-2.03-.12-.9.28-.61.27-.64-.04-.09.64-1.07-.68.33.31-.35-.53.29-.53.3.02.02.16,0,.33-.02.49-.03-.61-.02-.6.01.04.1-.89-.15.1.08.38.31-.89-.72.31.64-.27-.33.17.46.17.45,0-.04-.28-.81.03-.03-.03.27-.05.18-.15.33-.29.45.56-.68-.39.2.36-.24.17-.13.36-.25.55-.35-.15.09-.45.05.15.05-.1,0,.68.18.61.16,1.39.27-.2-.38.37.09.9.74,2.03.23,2.16-.89h0Z"/>
    <path class="st7" d="M1452.03,832.41c-.27,1.75.04,3.29.74,4.92.67,1.55,1.18,3.16,1.72,4.77.7,2.07,2.43,3.57,4.7,3.57,1.99,0,4.35-1.47,4.7-3.57.82-4.93-.13-11.11-4.14-14.49-2.12-1.78-4.87-2.43-7.38-.95-2.66,1.56-4.13,5.63-2.19,8.34.65.9,1.23,1.83,1.96,2.68.23.3.5.58.79.82-.28-.5-.23-.44.14.15.14.21.94,1.87.71,1.28.27.71.52,1.44.72,2.18,2.71-1.58,5.43-3.16,8.14-4.74-1.08-1.13-2.23-2.23-3.22-3.44-1.19-1.45-2.39-2.69-4.21-3.31-1.22-.41-2.97.46-3.17,1.8h0Z"/>
    <path class="st7" d="M1380.05,883.09c.05-1.29.06-2.45-.65-3.63-.5-.83-1.01-1.66-1.51-2.49-2.52,1.47-5.05,2.95-7.57,4.42.05.08.11.16.16.24-.15-1.14-.3-2.27-.45-3.41-1.24,2.96.28,5.52,1.52,8.14.71,1.51,2.47,2.67,4.03,3.1,2.32.64,4.87-.03,6.57-1.74,1.26-1.26,1.98-2.99,1.98-4.77,0-2.48-1.33-4.49-3.34-5.83-.54-.36-1.09-.72-1.63-1.08-.66-.44-1.4-.71-2.14-1-1.28-.5-2.62-.27-3.9.08,1.43.38,2.87.76,4.3,1.14-.07-.07-.15-.13-.22-.2-1.78-1.59-4.44-1.76-6.2,0-1.66,1.66-1.73,4.55,0,6.2.64.61,1.27,1.21,1.91,1.82.71.68,1.41,1.24,2.4,1.48.39.09.79.15,1.18.22,1.83.34,3.49-.77,3.56-2.71h0Z"/>
    <path class="st7" d="M1435.51,924.07c1.31,3.12,1.7,5.78,3.76,8.66,1.86,2.6,4.03,4.73,6.68,6.5,5.47,3.65,13.28,3.78,18.66.05,11.68-8.11,6.9-30.02-2.43-37.92-2.6-2.2-6.11.51-4.64,3.58,3.42,7.15,8.68,19.16,2.8,26.57-2.8,3.53-8.54,2.01-11.76.21-1.96-1.1-3.67-2.46-5.32-3.97-1.89-1.73-4.25-2.94-6.11-4.63-.66-.6-2.06-.02-1.65.96h0Z"/>
    <path class="st7" d="M1482.35,851.87c2.41-.16,4.62-2.1,6.9-2.9,2.84-.99,5.59-1.32,8.46-2.07,4.45-1.16,3.54-8.11-1.08-8.01-3.51.07-7.18,1.88-9.97,3.93-2.2,1.61-5.65,4.99-5.38,7.97.05.55.45,1.12,1.08,1.08h0Z"/>
    <path class="st7" d="M1492.03,860.12c1.61,1.04,3.39.7,5.22.52,2.45-.25,4.91-.5,7.36-.75,4.42-.45,3.36-7-.8-5.89-2.4.64-4.8,1.27-7.21,1.91-1.98.52-3.75.85-5.01,2.55-.41.55-.07,1.34.44,1.67h0Z"/>
    <path class="st7" d="M1371.39,916.44c-4.79-2.37-11.38,2.55-14.49,5.84-3.91,4.13,3.19,9.54,6.11,4.71,1.09-1.8,2.45-3.37,4.14-4.62,1.63-1.21,3.62-2.07,4.81-3.75.48-.67.16-1.82-.57-2.18h0Z"/>
    <path class="st7" d="M1373.63,931.94c-1.99-.23-3.59,1.95-4.92,3.16-1.75,1.59-3.45,3.21-5.1,4.9-2.57,2.63,1.71,6.74,3.98,3.98,1.49-1.81,2.92-3.65,4.3-5.55,1.17-1.61,3.3-3.54,2.79-5.69-.12-.5-.57-.74-1.04-.79h0Z"/>
  </g>
  <g>
    <path class="st6" d="M822.73,1019.9c-18.61-15.94-45.47-23.02-57.19-45.61-10.16-19.59-17.19-47.55-16.87-69.59.48-33.75,15.48-65.31,25.65-97.5,8.29-26.24,12.76-57.09-3.26-79.46-11.22-15.66-31.85-23.96-50.78-20.45-18.94,3.52-35.21,18.68-40.05,37.32-1.1,4.24-1.63,8.85-.02,12.93,4.18,10.61,18.67,11.2,28.77,16.49,11.87,6.22,18.08,20.1,18.88,33.48.8,13.37-2.88,26.56-6.24,39.53-11.95,46.07-20.29,95.07-7.34,140.87s52.55,87.06,100.14,87.81l8.34-55.83Z"/>
    <path class="st6" d="M900.24,802.3c-16.19-5.17-35.38-13.64-52.37-14.9-19.39-1.43-17.7,2.12-11.97,22,4.7,16.28,14.02,60.34,32.48,63.89l31.86-70.99Z"/>
    <path class="st6" d="M1061.95,791.42c14.04-8.7,28.99-15.93,44.53-21.54,1.56-.56,3.32-1.1,4.82-.4,2.12,1,2.49,3.81,2.48,6.14-.04,42.34-26.51,79.51-51.85,113.43l.02-97.63Z"/>
    <path class="st18" d="M1098.55,1203.06c-72.58,32.01-143.53,37.02-218.76,10.64-30.72-10.77-59.82-28.34-79.54-54.25-37.46-49.21-50.41-133.85-39.1-193.51,14.11-74.47,57.4-146.03,126.68-180.65,62.88-31.42,141.67-23.28,201.42,13.77,59.74,37.05,100.86,100.12,119.03,168.04,16.7,62.42,12.89,135.28-30.16,183.48-21.33,23.88-50.27,39.56-79.56,52.48Z"/>
    <path class="st7" d="M927.28,860.79c-1.48,13.01,9.94,24.69,23.16,22.92,13.31-1.78,21.39-16.88,17.74-29.23-1.61-5.45-10.24-3.07-8.5,2.34,2.62,8.16-2.26,16.63-10.28,19.27-9.37,3.08-19.64-6.35-20.45-15.3-.1-1.1-1.57-1.08-1.69,0h0Z"/>
    <path class="st7" d="M1003.75,867.41c.06,4.13-3.96,8.14-7.19,10.02-3.96,2.3-8.93,1.31-12.79-.59-8.88-4.37-10.57-14.35-13.94-22.56-1.36-3.31-7.45-3.35-6.91.93,1.61,12.77,10,25.45,22.87,28.81,5.1,1.33,11.02.19,15-3.32,4.53-4,5.3-7.61,4.63-13.29-.12-1.05-1.7-1.11-1.69,0h0Z"/>
    <path class="st7" d="M1037.04,810.24c-5.65,4.64-6.55,12.62-3.68,19.06.99,2.22,4.32,2.86,6.25,1.64,5.38-3.41,7.3-8.95,6.39-15.09-1.05-7.1-13.27-4.1-10.94,3.02.6,1.84.37,3.45-.99,4.91h6.46c-2.64-3.32-2.81-7.87-1.13-11.72.69-1.57-1-2.93-2.36-1.82h0Z"/>
    <path class="st7" d="M907.2,810.68c-2.89,3.63-3.2,10.32-2.44,14.69.5,2.88,4.32,4.12,6.64,2.7,7-4.28,8.06-13.57,3.15-19.82-2.08-2.65-6.11-1.89-8.3,0-4.81,4.14-5.04,12.52-.09,16.65,2.45,2.05,5.88,2.41,8.29,0,2.3-2.3,2.2-5.97,0-8.29.15.2.24.42.26.67-.09-.21-.32-1.83-.26-.72-.15.59-.14.53.04-.18-.09.36-.84,1.02.07.18h-8.3c.48.57.67.94.69,2,.02.8-.21,1.6-1.02,2.42,2.37.31,4.73.61,7.1.91-.68-1.56-1.44-2.92-1.81-4.59-.42-1.9-.16-3.85-.65-5.73-.35-1.35-2.4-2.1-3.37-.89h0Z"/>
    <path class="st6" d="M1059.64,1235.1c.92,3.2,2.7,7.01,6.03,7.05,3.32.04,5.19-3.7,6.24-6.85,7.24-21.7,13.26-43.8,18.04-66.16,2.33-10.93,3.2-24.83-6.31-30.7-11.89-7.35-29.9.87-36.68,11.64-12.15,19.3,6.82,64.72,12.68,85.01Z"/>
    <path class="st6" d="M908.24,1235.1c-1.02,3.2-2.98,7.01-6.65,7.05-3.66.04-5.73-3.7-6.89-6.85-7.99-21.7-14.64-43.8-19.91-66.16-2.58-10.93-3.53-24.83,6.97-30.7,13.13-7.35,33,.87,40.48,11.64,13.41,19.3-7.53,64.72-14,85.01Z"/>
    <path class="st7" d="M970.11,841.62c-.99-.25-2.12-.94-3.17-.8-1.17.16-2.28.33-3.41.69-2.33.76-4.32,2.22-5.89,4.08-1.79,2.11-4.04,5.7-2.26,8.42,1.71,2.61,4.06,4.56,6.94,5.75,5.31,2.19,10.98-.32,12.66-5.8.67-2.19.38-4.89-.71-6.89-1.43-2.64-3.76-3.71-6.62-4.09-2.84-.38-5.25,2.67-5.25,5.25,0,2.84,2.39,5.27,5.25,5.25-1.23.01-2.31-1.05-2.44-2.19.14,1.27.29-.8-.03.44.12-.45.4-.63.75-.88.38-.27.15.08-.49-.21-1.13-.52-1.89-1.4-2.74-2.26.4,1.51.8,3.02,1.2,4.53.28-1.53.77-2.71,1.84-3.86.53-.58,1.07-1.11,1.72-1.55.74-.5,1.84-1.43,2.67-1.71,1.95-.65,2.16-3.61,0-4.16h0Z"/>
    <path class="st2" d="M1044.58,856.31c5.93,2.53,13.09,2.64,19.35,4.37,7.13,1.98,14.08,4.76,20.64,8.15,5.9,3.05,9.7-5.82,3.54-8.4-7.24-3.02-14.6-5.19-22.36-6.37-6.4-.98-14.68-2.5-20.86-.15-.92.35-1.48,1.9-.31,2.4h0Z"/>
    <path class="st2" d="M1053.57,874.51c3.11,3.06,7.33,4.99,11,7.32,4.35,2.76,8.48,5.84,12.46,9.1,4.43,3.63,9.48-3.01,4.77-6.18-7.63-5.15-17.54-12.39-26.93-13.36-1.64-.17-2.35,2.08-1.29,3.12h0Z"/>
    <path class="st2" d="M1044.74,891.18c2,6.27,7.25,11.91,10.97,17.26,3.25,4.67,9.78-.33,6.18-4.77-4.1-5.07-8.05-11.63-13.51-15.3-1.81-1.21-4.3.79-3.65,2.81h0Z"/>
    <path class="st2" d="M885.7,844.67c-11.2-2.43-23.74-2.56-35.18-2.82-5.56-.12-5.56,8.75,0,8.62,11.44-.26,23.98-.4,35.18-2.82,1.48-.32,1.48-2.66,0-2.98h0Z"/>
    <path class="st2" d="M889.81,865.06c-15.29,1.14-30.34,5.48-44.73,10.62-4.4,1.57-1.83,7.75,2.49,5.91,13.84-5.89,28.18-9.72,42.59-13.86,1.44-.41,1.21-2.79-.36-2.67h0Z"/>
    <path class="st2" d="M893.88,876.29c-11.5,3.23-21.76,11.97-29.92,20.41-3.59,3.71,2.24,9.47,5.63,5.63,7.88-8.88,17.34-14.93,26.48-22.28,1.82-1.46-.15-4.33-2.19-3.76h0Z"/>
  </g>
  <g>
    <path class="st21" d="M393.4,891.18c-21.27-20.17-42.54-40.33-63.81-60.5-9.83-9.32-20.71-19.14-34.18-20.51-12,20.01-14.58,44.09-16.87,67.31-1.67,16.83-3.33,33.9-.58,50.59,2.74,16.69,10.45,33.25,24.18,43.13l91.27-80.01Z"/>
    <path class="st21" d="M446.06,884.42c17.96-35.73,37.42-73.17,71.11-94.72,1.52-.97,3.22-1.94,5.01-1.74,2.3.27,3.91,2.35,5.18,4.29,23.02,35.18,26.52,79.2,29.35,121.15l-110.65-28.98Z"/>
    <g>
      <path class="st21" d="M221.77,1058.9c-36.98,9.02-65.14-4.16-89.77-27.23-15.86-14.86-27.06-35.66-22.55-59.33,4.37-22.88,21.95-42.85,28.97-65.4,1.13-3.63,1.98-7.46,1.18-10.94-2.99-13.06-22.78-10.26-35.37-15.14-20.01-7.75-18.87-39.01-1.84-55.32,17.03-16.31,42.56-19.69,64.33-16.45,12.72,1.9,25.27,5.88,34.22,14.19,18.41,17.1,17.01,46.82,14.47,73.21-3.93,40.84-30.29,115.92,17.61,134.7,1.32.52,2.72,1.05,4.05,1.68-1.75,5.78-4.4,14.16-7.29,22.99-2.56,1.34-5.29,2.36-8.02,3.03Z"/>
      <path class="st14" d="M533.13,1187.51c80.03-46.66,109.38-127.21,95.74-217.48-5.18-34.27-21.07-84.7-52.52-104.5-27.66-17.41-78.65-21.74-110.58-21.36-55.04.66-109.19,4.05-159.9,27.22-51.1,23.35-63.75,69.14-67.43,123.77-2.97,44.15-.17,117.07,32.84,151.19,25.47,26.33,81.26,47.09,114.72,58.29,53.53,17.91,98.18,11.41,147.12-17.13Z"/>
    </g>
    <path class="st7" d="M369.62,913.41c6.29,10.77,19.06,15.15,30.9,11.15,12.58-4.25,18.86-18.77,16.96-31.12-.73-4.78-8.24-2.81-7.32,2.02,1.82,9.62-3.48,18.99-12.13,23.19-8.85,4.3-20.59.67-27.01-6.31-.69-.76-1.9.22-1.4,1.08h0Z"/>
    <path class="st7" d="M459.22,911.07c-8.92,2.57-18.56.31-26.23-4.65-3.63-2.35-6.74-5.41-9.14-8.99-2.59-3.86-2.79-8.59-5.13-12.37-1.64-2.64-5.61-2.13-6.51.85-1.55,5.11,1.83,11.46,4.6,15.63,3.12,4.68,7.51,8.6,12.38,11.38,9.79,5.58,21.22,6.24,31.22.97,1.57-.83.48-3.31-1.19-2.83h0Z"/>
    <path class="st7" d="M400.59,888.41c7.42,1.25,14.7,1.84,22.22,2.05,4.77.13,4.78-7.41,0-7.41-7.51.01-14.78.42-22.22,1.47-1.96.28-1.91,3.56,0,3.89h0Z"/>
    <path class="st7" d="M486.75,880.66c.61-2.75.97-5.59,1.66-8.31h-11.06c.48,2.22,1.35,4.4,2.04,6.57,1.02,3.16,4.19,5.17,7.5,4.26,2.89-.8,5.54-4.43,4.26-7.5-1.07-2.57-2-5.3-3.32-7.75-3.09-5.76-12.31-1.8-10.48,4.42.8,2.72,1.27,5.56,1.98,8.31.93,3.59,6.58,3.76,7.41,0h0Z"/>
    <path class="st7" d="M349.02,885.07c.61-2.75.97-5.59,1.66-8.31h-11.06c.49,2.22,1.35,4.4,2.04,6.57,1.02,3.16,4.19,5.17,7.5,4.26,2.89-.8,5.54-4.43,4.26-7.5-1.07-2.57-2-5.3-3.32-7.75-3.09-5.76-12.31-1.8-10.48,4.42.8,2.72,1.27,5.56,1.98,8.31.93,3.59,6.58,3.76,7.41,0h0Z"/>
    <path class="st21" d="M562.64,1217.7c-3.02-2.9-5.59-6.04-7.42-9.04-10.58-17.29-23.1-48.19-2.89-63.61,2.21-1.69,4.72-3.06,7.45-3.56,15.41-2.83,19.87-.21,23.51,14.1,4.86,19.12,10,40.67,9.05,60.55-.99,20.67-19.27,11.61-29.7,1.57Z"/>
    <path class="st21" d="M336.45,1155.84c-4.87-18.1-25.49-24.93-38.76-9.51-9.91,11.52-7.75,32.37-9.14,46.85-.74,7.76-2.97,29.41,3.34,35.59,8.81,8.63,21.04-7.04,26.15-13.32,13.1-16.13,24.42-37.28,18.41-59.61Z"/>
    <path class="st21" d="M473.06,900.35c5.02,2.38,11.92.9,17.4,1.17,7.69.37,15.25,1.61,22.72,3.46,4.05,1,5.49-4.73,1.69-6.15-7.22-2.7-14.86-4.37-22.57-4.66-5.86-.22-15-.71-19.59,3.53-.75.7-.63,2.19.34,2.65h0Z"/>
    <path class="st21" d="M475.36,912.3c6.6,2.39,13.4,3.73,19.89,6.59,4.73,2.08,7.53-4.59,2.75-6.51-6.72-2.69-14.61-5.43-21.93-5.32-3.14.05-3.48,4.24-.71,5.25h0Z"/>
    <path class="st21" d="M360.48,905.13c-7.2-4.43-19.63,3.08-25.36,7.33-4.65,3.45.54,10.09,4.83,6.26,3.11-2.78,6.51-4.97,10.26-6.81,3.37-1.65,7.85-2.37,10.48-5.16.46-.49.37-1.26-.21-1.62h0Z"/>
    <path class="st21" d="M359.7,918.66c-3.86.92-7.2,3.46-10.57,5.48-4.28,2.56-8.37,5.42-12.48,8.23-3.08,2.11-.13,7.18,2.93,5.02,3.82-2.69,7.66-5.36,11.34-8.23,3.45-2.69,7.54-5.25,10-8.91.56-.83-.35-1.79-1.22-1.58h0Z"/>
  </g>
  <g>
    <g>
      <g>
        <path class="st1" d="M288.42,1554.76c-18.37-35.01-39.76-68.44-63.85-99.8-1.29,10.59-4.61,20.94-9.74,30.3-18.12-39.61-43.65-75.83-74.86-106.21-2.26,12.17-2.11,24.79.44,36.91-26.76-25.76-53.52-51.51-80.28-77.27-1.65,44.93,9.39,90.26,31.52,129.41-7.94-5.31-15.87-10.61-23.81-15.92-7.24,5.39-1.8,16.77,3.99,23.7,10.38,12.42,20.76,24.83,31.14,37.25-8.64-2.8-17.28-5.59-25.92-8.39,47.52,47.33,112.41,76.83,179.32,81.51l32.04-31.48Z"/>
        <path class="st5" d="M285.15,1803.06c-7.81,5.26-15.83,10.01-25.03,11.4-17.47,2.64-34.8-8.11-45.05-22.5-36.44-51.11-19.63-138.38,9.53-189.13,38.07-66.24,113.51-109.23,189.9-108.21,79.87,1.07,155.03,48.07,201.13,113.29,17.84,25.24,33.81,47.57,43.63,77.04,11.4,34.19,18.82,69.95,18.99,106.09.03,7.19-.28,14.63-3.41,21.1-8.1,16.75-37.65,13.94-45.8-.98-15.25-27.91-12.18-45.1-45.91-52.65-37.33-8.35-76.13-6.64-114.25-3.47-26.64,2.22-53.32,5.14-79.26,11.6-16.05,3.99-28.88,8.37-45.18,10.74-16.57,2.41-32.65,8.29-46.8,17.25-4.21,2.66-8.32,5.61-12.5,8.43Z"/>
        <path class="st14" d="M461.21,1652.39c23.06,25.75,56.28,42.14,90.75,44.77,22.76,1.73,46.3-2.54,65.86-14.31,19.56-11.77,34.75-31.42,38.96-53.85.7-3.73.8-8.29-2.25-10.55-2.32-1.71-5.51-1.36-8.36-.95-52.95,7.49-107.39,4.26-159.09-9.43-25.98-6.88-38.36-23.2-59.39-35.3-.59,28.29,14.96,58.91,33.52,79.63Z"/>
        <path class="st1" d="M624.02,1417.9c-4.31-7.57-.69-17.01,2.95-24.91,2.63-5.71,12.45-33.2,19.12-15.32,5.78,15.47,11.65,31.47,10.89,47.96-2.18.17-4.42-.46-6.19-1.76l-26.78-5.97Z"/>
        <path class="st1" d="M453.42,1425.77c1.1.05.9-1.71.28-2.62-5.01-7.3-10.87-14.02-17.43-19.97-3.8-3.45-8.78-6.86-13.68-5.34-8.15,17.71-5.64,39.85,6.27,55.29l24.56-27.36Z"/>
        <path class="st5" d="M412.08,1539.32c.05.2.09.39.15.59.96,3.83,2.07,7.61,3.33,11.35,1.32,3.92,2.78,7.79,4.39,11.61,2.82,6.69,6.07,13.66,9.76,20.64,14.57,27.68,35.79,55.67,63.04,67.93,38.49,17.32,76.97,35.08,119.66,20.75,32.68-10.97,58.78-36.42,77.97-65.06,9.58-14.29,17.81-29.78,21.48-46.58.74-3.39,1.26-6.8,1.59-10.22,1.14-11.85,0-23.82-2.13-35.65-.7-3.91-1.51-7.82-2.39-11.7-1.77-7.8-3.79-15.52-5.69-23.07-.84-3.32-1.89-6.63-3.14-9.9-1.53-4.02-3.36-8.01-5.45-11.91-.86-1.61-1.76-3.2-2.7-4.77-3.39-5.67-7.3-11.15-11.61-16.34-12.52-15.11-28.36-27.8-44.28-35.68-22.67-11.22-48.01-16.18-73.25-17.91-26.72-1.84-45,4.68-69.09,14.22-18.92,7.49-35.28,12.58-50.55,27.28-12.47,12-21.62,26.61-27.37,42.44-2.94,8.07-5,16.48-6.16,25.02-.63,4.5-1,9.03-1.11,13.58h0c-.32,11.17.86,22.43,3.55,33.37Z"/>
        <g>
          <path class="st7" d="M594.51,1487.98c-.94,7.55-8.98,13.59-16.42,11.64-6.19-1.62-9.34-8.92-7.53-14.64,1.71-5.42-6.95-7.81-8.5-2.34-2.92,10.31,3.3,22.05,13.96,24.49,11.51,2.63,21.56-8.14,20.17-19.15-.14-1.08-1.55-1.09-1.69,0h0Z"/>
          <path class="st7" d="M532.49,1493.35c-.55,4.84-.26,7.56,3.58,11.12,3.15,2.91,7.97,3.93,12.09,3.01,11.1-2.48,18.25-13.16,19.62-24.01.54-4.29-5.54-4.23-6.91-.93-2.61,6.29-3.75,12.77-9.57,17.1-3.05,2.27-6.71,2.78-10.31,1.8-2.86-.78-6.77-4.88-6.82-8.08-.02-1.11-1.57-1.06-1.69,0h0Z"/>
          <path class="st7" d="M504.72,1448.24c1.16,3.12,1.07,6.51-1.13,9.1h6.46c-.89-1.01-.75-2.03-.38-3.08,1.02-2.92-1.13-6.2-3.96-6.98-3.9-1.07-6.72,1.88-7.18,5.47-.61,4.76,1.93,9.36,5.99,11.76,2.77,1.64,5.61-.06,6.71-2.73,2.18-5.33.28-11.89-4.3-15.24-1.04-.76-2.65.5-2.2,1.69h0Z"/>
          <path class="st7" d="M609.21,1447.97c-.48,1.24-.38,2.61-.61,3.91-.29,1.6-1.07,2.69-1.75,4.13,2.37-.3,4.73-.61,7.1-.91-.2-.22-.42-.78-.26-.34-.1-.31-.17-.62-.23-.94.07.57.09.54.05-.08.04-.65.03-.65-.03-.01.07-.32.16-.63.28-.93-.25.61-.22.63.09.06-.41.54-.41.56,0,.05h-8.3c.47.47.47.44,0-.1-.08-.18-.15-.36-.23-.53.16.67.15.62-.01-.15.15-.78.15-.84-.01-.17-.31,1.15.12-.32.35-.57-2.17,2.34-2.32,5.96,0,8.29,2.43,2.43,5.81,2.01,8.29,0,4.51-3.66,4.26-11.37-.07-15.07-2.19-1.87-6.23-2.67-8.3,0-4.3,5.53-3.49,13.93,2.91,17.59,2.29,1.31,6.21.27,6.64-2.7.18-1.26.45-2.45.18-3.71-.23-1.07-.36-2.14-.5-3.23-.26-1.91-.8-4.1-2.2-5.47-1.17-1.14-2.83-.49-3.37.89h0Z"/>
          <path class="st7" d="M561.19,1476.2c-.58-.6-.56-.53.05.2.31.29.64.56,1,.81.7.4,1.18.79,1.73,1.38,1,1.07,1.31,1.82,1.53,3.23.4-1.51.8-3.02,1.2-4.53-.62.6-1.03,1.06-1.58,1.41-.94.6.2.05-.84.31.37-.09.54-.08.89.11.34.18.61.43.82.75.6.96.15-.43.23.78-.06-.93-.21.61-.33.87-.38.85-1.68,1.56-2.59,1.53,2.86.07,5.25-2.44,5.25-5.25,0-3.72-3.33-5.56-6.65-5.06-4.69.7-6.33,5.95-5.47,9.97,1.08,5.03,6.97,7.19,11.42,5.33,2.29-.96,4.52-2.48,5.86-4.64,1.77-2.84.43-5.54-1.41-7.9-1.33-1.71-3.03-2.81-5-3.64-.91-.38-1.95-.54-2.92-.63-1.3-.12-2.05.44-3.19.82-2.16.71-1.93,3.37,0,4.16h0Z"/>
        </g>
        <path class="st1" d="M412.08,1539.32c.05.2.09.39.15.59,6.31-2.12,12.47-4.67,18.44-7.61,8.68-4.27,25.31-8.44,23.01-21.26-1.56-8.68-11.44-11.21-18.62-11.59-9.18-.48-18.12,2.69-26.53,6.5h0c-.32,11.17.86,22.43,3.55,33.37Z"/>
        <path class="st1" d="M415.56,1551.26c1.32,3.92,2.78,7.79,4.39,11.61,2.82,6.69,6.07,13.66,9.76,20.64,8.96-6.02,17.66-12.43,26.1-19.15,6.18-4.92,12.79-11.42,11.88-19.26-.34-2.97-2-5.94-4.75-7.11-1.46-.62-3.09-.7-4.68-.67-15.06.27-28.4,9.11-42.7,13.95Z"/>
        <path class="st1" d="M409.64,1492.37c18.02.89,47.7-1.02,37.92-17.12-4.65-7.65-20.54-9.67-31.77-7.9-2.94,8.07-5,16.48-6.16,25.02Z"/>
        <path class="st1" d="M661.4,1491.88c2.73,12.73,19.69,10.29,29.35,10.95,6.04.41,12.11.46,18.16.16-1.77-7.8-3.79-15.52-5.69-23.07-.84-3.32-1.89-6.63-3.14-9.9-8.86-.26-17.88.32-25.85,4.08-6.5,3.06-14.69,9.15-12.84,17.78Z"/>
        <path class="st1" d="M661.35,1528.7c2.13,7.6,10.72,11.11,18.3,13.33,11.14,3.26,22.42,6.04,33.79,8.32,1.14-11.85,0-23.82-2.13-35.65-14.88.81-30.33-2.14-44.17,3.23-1.48.57-2.96,1.26-4.08,2.4-2.1,2.12-2.5,5.5-1.7,8.37Z"/>
      </g>
      <path class="st1" d="M694.64,1458.11c-.86-1.61-1.76-3.2-2.7-4.77-3.39-5.67-7.3-11.15-11.61-16.34-11.13,2.51-25.4,10.5-26.82,19.45-2.92,18.43,24.74,9.3,41.13,1.67Z"/>
      <path class="st0" d="M585.63,1908.87c-.63.63-1.25,1.25-1.88,1.88l1.88-1.88Z"/>
    </g>
    <path class="st5" d="M211.18,1774.4c6.79,3.75,6.49,13.71,3.66,20.93s-7.35,14.5-5.9,22.12c.6,3.14,2.19,6.01,4.11,8.56,7.86,10.43,21.81,15.88,34.66,13.54,11.35-2.07,21.11-9.65,28.16-18.79s11.75-19.83,16.37-30.4l-81.07-15.96Z"/>
  </g>
  <g>
    <path class="st11" d="M853.59,296.04c-1.43,2.05-2.85,4.11-4.28,6.16,5.52-17.7,12.48-34.66,18-52.36,1.68-5.37,3.44-10.92,7.15-15.15,3.71-4.23,9.92-6.81,15.1-4.62,9.99,24.25,15.37,50.38,15.78,76.6l-51.76-10.63Z"/>
    <path class="st11" d="M781.07,463.44c-23.89-2.68-40.18-25.04-61.59-35.98-36.18-18.48-81.69-.92-110.57,27.65-16.11,15.93-29.53,37.13-27.58,59.7,1.95,22.57,25.37,43.45,46.69,35.8,23.6-8.48,27.91-41.84,49.02-55.37,15.4-9.87,35.84-6.57,52.69.54,16.85,7.11,32.37,17.67,50.13,22.04,17.76,4.37,39.57.46,48.76-15.36l-47.55-39.01Z"/>
    <path class="st13" d="M808.54,520.74c61.24,37.75,139.69,29.57,209.77,13.32,49.43-11.46,100.76-27.93,134.49-65.84,25.23-28.35,37.87-66.12,42.13-103.83,4.26-37.71.76-75.81-2.74-113.6-1.09-11.8-1.55-23.94-3.87-35.45-29.16-3.79-26.92,18.5-46.82,31.56-12.79,8.39-37.53,10.88-52.27,11.8-80.14,5.04-160.12,12.57-239.79,22.56-14.81,1.86-29.63,3.81-44.18,7.15-15.92,3.66-33.74,8.7-47.64.13-10.73-6.62-15.82-19.67-25.72-27.46-24.9-19.6-21.83,49.24-21.25,59.93,1.13,20.75,8.44,39.89,13.04,59.99,12.74,55.75,33.91,108.24,84.86,139.73Z"/>
    <path class="st14" d="M1041.17,511.87c-111.15-10.47-74.06-167.27-14.16-215.15,46.25-36.97,115.51-42.64,166.61-12.72-48.16,13.28-91.18,44.4-118.87,85.98-20.41,30.64-49.14,104.16-33.37,139.27l-.21,2.63Z"/>
    <path class="st13" d="M1290,441.1c20.49,3.95,42,2.48,61.76-4.23-19.47-11.72-36.84-26.93-51.02-44.69-.62,1.63-1.24,3.26-1.85,4.89l-8.89,44.03Z"/>
    <path class="st13" d="M1109.99,529.57c.24,18.99.47,37.98.71,56.97,14.67-4.02,25.8-15.93,34.48-28.42,8.68-12.49,15.88-26.2,26.72-36.87l-61.92,8.32Z"/>
    <path class="st13" d="M1007.65,386.2c-15.44,43.23-8.35,95.53,23.44,128.64,25.31,26.35,63.45,38.19,99.92,36.01s71.29-17.24,101.38-37.96c33.21-22.88,62.26-54.15,74.28-92.64,12.02-38.49,4.05-84.66-26.16-111.38-18.4-16.27-42.71-23.99-66.56-29.84-86.04-21.11-175.35,20.5-206.31,107.18Z"/>
    <path class="st7" d="M1180.07,399.15c-5-7.28-6.65-17.4-2.15-25.38,4.25-7.52,13.53-10.92,21.78-9.31,7.31,1.43,10.48-9.34,3.11-11.28-13.11-3.46-27.89,3.01-33.65,15.47-5.32,11.5-1.96,25.61,8.71,32.71,1.31.87,3.11-.88,2.2-2.2h0Z"/>
    <path class="st7" d="M1176.22,396.16c-16.99-15.96-43.95-1.2-46.86,19.69-.84,6.06,7.61,7.28,8.33,1.13.89-7.57,5.8-14.59,12.78-17.77,7.71-3.51,15.72-1.75,23.18,1.36,2.49,1.04,4.37-2.71,2.56-4.4h0Z"/>
    <path class="st7" d="M1243.69,410.69c.14,5.66,2.17,10.17,4.71,15.1,2.45,4.76,10.4,1.47,8.7-3.67-1.31-3.96-3.17-8.59-5.65-11.95-4.41-5.97-13-.99-9.94,5.81,1.71,3.8,4.83,7.69,7.64,10.77,2.24-2.24,4.49-4.49,6.73-6.73-3.09-2.49-4.93-6.44-6.05-10.16-.99-3.3-6.22-2.78-6.13.83h0Z"/>
    <path class="st7" d="M1161.06,486.08c.08.14.17.28.25.41-.08-.62-.16-1.25-.25-1.87-1.17,3.83,2.56,6.27,5.07,8.44,1.69,1.46,4.26,2.11,6.28.81,1.89-1.22,3.09-3.61,2.38-5.85-1.31-4.17-4.08-7.57-7.93-9.67-3.18-1.73-7.15-.5-8.58,2.89-1.47,3.48.5,6.96,3.92,8.16.8.28-.13.04-.3-.16.15.17.68.34.9.47.23.13.45.3.69.42.62.32-.97-.89-.03-.04.4.36.8.73,1.18,1.11.11.11.92.91.38.36-.51-.52.24.35.3.44l7.09-7.09c-1.5-.69-2.98-1.42-4.5-2.06-.84-.36-1.69-.55-2.6-.63-1.48-.13-2.52.37-3.62,1.32.57-.24,1.15-.47,1.72-.71l-.46-.06c-1.7-.21-2.68,2-1.89,3.3h0Z"/>
    <path class="st7" d="M1175.52,397.8c-.84.2-1.65.67-2.43,1.06-1.92.96-3.28,3.43-3.19,5.56.08,1.71.65,3.32,1.89,4.55,1.17,1.17,2.9,1.89,4.55,1.89,2.15,0,4.56-1.2,5.56-3.19.39-.78.86-1.59,1.06-2.43.5-2.12.01-4.31-1.55-5.88s-3.76-2.05-5.88-1.55h0Z"/>
    <path class="st8" d="M1219.92,384.47c4.32-1.68,7.94-4.96,11.73-7.59,3.74-2.59,7.51-5.12,11.33-7.59,8.2-5.3,16.68-10.14,24.75-15.64,3.66-2.49.48-8.09-3.49-5.98-8.94,4.76-17.11,10.74-25.18,16.84-3.57,2.7-7.1,5.44-10.59,8.24-3.59,2.88-7.7,5.6-10.31,9.43-.73,1.07.5,2.78,1.76,2.29h0Z"/>
    <path class="st8" d="M1232.38,391.35c7.03.72,14.79-1.61,21.51-3.46,7.38-2.03,14.58-4.59,21.63-7.56,6.81-2.86,2.63-12.84-3.95-9.36-6.73,3.56-13.62,6.73-20.77,9.35-6.39,2.35-13.53,3.79-19.52,7.02-2.03,1.1-.88,3.8,1.08,4h0Z"/>
    <path class="st8" d="M1154.36,436.37c-7.24,2.42-13.8,7.09-20.32,10.97-6.94,4.13-14.15,8.16-20.6,13.02-5.22,3.94-.74,12.42,5.27,9.01,7.04-4,13.6-9.03,20.16-13.77,6.14-4.44,13.25-8.66,18.34-14.34,1.82-2.04.1-5.87-2.85-4.89h0Z"/>
    <path class="st8" d="M1159.61,450.06c-6.06,5.16-10.85,12.12-16.54,17.74-5.79,5.72-11.79,11.17-18.17,16.23-5.01,3.97,2.14,11.28,7.1,7.1,6.43-5.42,12.63-11.17,18.2-17.48,5.14-5.82,11.47-12.45,14.55-19.63,1.44-3.36-2.17-6.48-5.13-3.96h0Z"/>
    <path class="st3" d="M1070.1,271.36c-1.42-22.52-40.2-12.5-42.91,5.13-1.56,10.14,5.65,19.97,14.42,24.39,9.52,4.79,21.25,4.42,30.95.36,9.78-4.1,18.61-12.22,21.14-22.83,3.12-13.04-5.29-24.3-18.69-25-11.92-.62-24.47,5.76-32.77,13.95-9.03,8.9-14.55,23.11-4.18,33.43,9.7,9.64,24.48,7.65,34.66-.02,9.77-7.35,15.59-19.47,13.35-31.73-2.1-11.51-11.94-21.32-23.77-22.24-12.42-.97-24.53,8.81-25.63,21.31-1.07,12.24,9.42,23.7,21.77,23.87,12.57.17,22.68-10.78,22.51-23.18-.15-11.32-9.61-19.7-20.18-21.6-10.92-1.96-22.64,1.66-29.92,10.24-9.87,11.64-7.54,28.99,7.02,35.46,13.02,5.78,27.59-1.53,33.29-14.03,5.96-13.07-1.79-31.05-18.3-27.12-13.68,3.26-23.4,18.46-22.79,31.97.22,4.8,3.52,8.95,8.41,9.53,4.29.51,9.94-2.12,10.65-6.95.62-4.23,1.81-8.49,4.78-11.69.67-.72,4.29-2.72,4.4-3.08-1.69-.7-3.38-1.41-5.07-2.11-.16-.16-.24-.35-.25-.57,1.9-1.15-.61,1.93-.05,1.02-1.25,2.03-2.89,5.03-5.76,4.86-1.62-.1-1.88-.76-2.66-1.89,1.16,1.69-.53.97.46-.46.4-.57.71-1.2,1.16-1.73,2.29-2.71,5.67-3.8,8.74-3.84,1.39-.02,3.13.08,4.73.92.25.13,1.16,1.43,1.1,1.1.86,5.02-6.44,2.8-3.37-.77,4.95-5.75,10.11,4.04,9.3,8.36-.7,3.73-3.29,7.03-6.32,9.19-1.98,1.41-7.5,4.3-9,.81.36.83.12.11.87-1.31.35-.66.82-1.32,1.27-1.91,1.44-1.89,3.29-3.68,5.17-5.15,4.1-3.21,9.51-5.65,14.73-6.18.73-.07,1.94-.18,2.72.05.52.15,1.29,1.07.46-.13.83,1.19.04,3.66-.38,4.74-1.66,4.31-5.56,7.52-9.55,9.63-8.41,4.45-21.32,4.36-26.11-5.32-2.84-5.76,3.2-9.04,7.66-11.38,6.32-3.3,14.85-5.06,18.63,2.8.75,1.56,3.38.81,3.27-.89h0Z"/>
    <path class="st7" d="M1051.19,260.2c3.38,6,7.41,11.64,11.22,17.38,3.28,4.94,10.42-.38,6.51-5.02-4.43-5.26-8.71-10.69-13.52-15.61-2.15-2.2-5.7.61-4.21,3.25h0Z"/>
    <path class="st7" d="M1070.19,259.68c-7.4.87-14.44,6.41-20.79,10.07-4.67,2.7.03,10.21,4.13,7.07,3.22-2.46,6.46-4.91,9.63-7.44,3.07-2.44,6.05-4.54,7.99-8.02.37-.67-.08-1.79-.97-1.69h0Z"/>
  </g>
  <g>
    <path class="st4" d="M511.23,331.98c5.95-14.74,13.4-28.87,22.22-42.09,6.73-10.09,14.79-20.08,26.06-24.56,11.27-4.48,26.37-1.33,31.62,9.61,1.7,3.54,2.19,7.87.37,11.34-3.06,5.83-10.72,6.88-16.86,9.27-13.82,5.39-21.98,19.8-26.29,33.99s-5.93,29.28-12.21,42.72-19.06,25.47-33.88,24.66l8.96-64.93Z"/>
    <path class="st4" d="M157.82,515.93c-26.04-30.25-45.49-72.3-31.2-109.57,5.78-15.07,16.58-27.85,21.99-43.05,5.41-15.2,3.11-35.51-11.29-42.79,7.98-4.86,17.7-6.78,26.92-5.32-3.13-20.45-21.67-37.48-42.32-38.85,8.5-7.82,6.8-22.6-.85-31.25-7.66-8.65-19.37-12.41-30.7-14.66-2.5-.5-5.34-1.16-6.57-3.4-.87-1.57-.67-3.5-.37-5.27,1.83-11.09,6.38-21.73,13.24-30.63,24.19-31.4,72.14-33.88,104.8-15.25,43.02,24.55,51.89,74.99,44.97,120.41-3.68,24.11-11.45,47.77-22.06,69.7-11.59,23.97-28.2,39.57-28.35,68.08-.11,20.63,11.08,61.6-.87,79.63-8.91,13.43-27.44,13.71-37.33,2.21Z"/>
    <path class="st20" d="M396.94,188.94c-10.92-17.11-27.77-30.35-46.98-36.91-4.6,12.57-6.97,25.95-6.98,39.34,0,10.46,1.82,21.75,9.26,29.1l44.71-31.52Z"/>
    <path class="st20" d="M381.55,186.27c-4.6.58-9.29,1.2-13.49,3.15-3.92,1.82-7.23,4.71-10.45,7.6-22.03,19.79-42.3,41.53-60.5,64.89-52.34,67.18-86.62,146.32-120.36,224.51-5.8,13.45-11.68,28.52-6.74,42.3,4.84,13.51,18.62,21.47,31.83,27.06,55.77,23.58,118.04,24.99,178.59,26.05,29.2.51,58.77.98,87.17-5.81,12.09-2.89,24.11-7.22,33.81-14.99,27.02-21.65,28.19-61.69,26.21-96.25-4.35-75.98-10.86-152.61-21.15-228.04-8.64-63.33-73.23-56.97-124.9-50.48Z"/>
    <path class="st7" d="M487.48,215.5c6.03,7,11.28,16.67,8.5,26.13-2,6.82-11.46,11.38-17.44,7.14-3.86-2.74-7.23,3.47-3.64,6.23,8.8,6.77,20.5,1.02,25.38-7.65,6.77-12.03-2.48-25.55-11.2-33.44-1.08-.98-2.53.5-1.59,1.59h0Z"/>
    <path class="st7" d="M491.11,207.28c-5.91-3.4-13.23.06-15.67,6.01-.76,1.86.83,3.55,2.37,4.18,4.99,2.06,10.88,1,14.92-2.44,3.81-3.24,3.94-9.2,1.91-13.36-1.11-2.28-3.29-3.69-5.59-4.52-2.97-1.07-5.92.45-8.19,2.22-4.73,3.7-4.25,11.28.74,14.35,2.48,1.52,5.86.55,7.31-1.92,1.58-2.7.44-5.61-1.92-7.31.9.56,1.35,1.38,1.37,2.45-.13-.96-.11.09-.27.47.33-.52.32-.57-.02-.15.6-.75.04-.14-.38.03.87-.23.58-.27-.88-.14-.69-.11.44.44-.06-.03-.69-.65.03.64.01.45.03.46-.05.98-.23,1.34-.35.68-1.07,1-1.72,1.37-1.81,1.02-4.15.61-6.1.5l3.4,3.4c.2-3.92,4.68-5.71,7.98-4.51,1.43.52,2.28-1.67,1.01-2.4h0Z"/>
    <path class="st7" d="M425.01,229.38c1.19-12.15,14.13-21.71,26.04-18.35,4.2,1.18,6-5.41,1.79-6.51-15.28-3.98-31.99,8.67-30.37,24.86.16,1.63,2.37,1.63,2.53,0h0Z"/>
    <path class="st4" d="M452.26,586.43c.84,7.23,4.23,16.64,11.46,15.8,4.39-.51,7.17-4.87,9.07-8.87,10.59-22.27,14.1-47.15,17.48-71.58.89-6.44,1.77-13.08.08-19.36-2.79-10.37-13.13-18.19-23.87-18.05-41.24.57-16.89,78.96-14.21,102.05Z"/>
    <path class="st4" d="M275.54,585.54c-31.09,2.37-61.18-11.65-87.04-29.06-2.27-1.53-4.57-3.14-6.09-5.42-4.92-7.4.79-17.4,7.71-22.97,22.21-17.89,43.35-.88,65.12,10.85,14.03,7.56,61.48,43.46,20.3,46.6Z"/>
  </g>
  <g>
    <path class="st16" d="M1504.84,246.63c-.57-7.93-6.53-15.77-10.71-22.25-4.77-7.41-9.88-15.25-15.75-21.83-4.04-4.53-12.56-2.29-13.83,3.65-3.43,16.03-1.51,31.54,4.98,46.52,2.04,4.7,8.13,4.98,12.06,3.16,7.61-3.52,12.44-11.96,11.75-20.3-5.84.79-11.69,1.58-17.53,2.37.65,4.71,3.4,7.91,7.13,10.62,8.39,6.09,16.87-6.7,10.57-13.69-.47-.52-.35-.81-.48-1.67-1.52-9.92-18.49-7.61-17.53,2.37.26,2.71-.29,3.87-2.8,5.08,4.02,1.05,8.04,2.11,12.06,3.16-4.61-10.23-6.04-22.16-4.25-33.22-4.61,1.22-9.22,2.43-13.83,3.65,5.86,5.93,12.12,11.39,17.75,17.61,5,5.53,9.69,13.43,16.25,17.16,1.72.97,4.32-.23,4.16-2.39h0Z"/>
    <path class="st16" d="M1614.01,236.31c-3.18-7.94-7.24-15.59-11.23-23.15-2.1-3.98-4.04-8.02-5.98-12.09-1.11-2.32-2.24-4.63-3.37-6.93-.88-1.8-3.18-4.84-3.22-6.87-.17-8.25-10.24-10.16-14.66-3.97-8.01,11.24-11.51,25.73-13.16,39.22-.51,4.17,3.17,7.31,6.57,8.63,7.18,2.8,13.23-2.72,15.95-8.86-1.26,2.84,1.87-4.33,1.38-3.23.78-1.76.6-.76-.22-.67.49-.05-.56-1.05-.39-.62.38.98.03,1.45-.35,2.49-3.54,9.69,12.5,16.49,16.71,7.04,4.72-10.6.52-24.78-12.27-26.88-6.09-1-11.11.86-15.83,4.64-1.8,1.44-2.95,3.77-3.84,5.84-.39.91-.94,2.28-1.37,3.28-.16.34-.32.69-.48,1.03-1.67,2.63.15,2.19,5.48-1.32,2.19,2.88,4.38,5.76,6.57,8.63.95-11.89,5.15-22.27,9.63-33.16-3.85,1.57-7.7,3.13-11.55,4.7,3.47,1.74,6.3,7.47,8.58,10.54,2.69,3.61,5.41,7.21,7.83,11.01,4.81,7.55,9.3,15.38,14.43,22.72,1.59,2.27,5.97.92,4.8-2.02h0Z"/>
    <path class="st16" d="M1456.16,402.23c-13.5.01-44-2.49-55.59,3.41-43.44,22.11,53.45,52.48,70.68,57.62l-15.09-61.03Z"/>
    <path class="st16" d="M1748.62,377.86c11.18,14.41,28.08,24.05,45.99,27.14,12.21,2.1,37.54,5.06,48.29-1.23,8.29-4.85,12.77-14.71,13.04-24.31.26-9.6-3.16-18.96-7.68-27.43-4.08-7.64-9.14-14.88-11.69-23.16-3.24-10.56-2-22.41,3.35-32.06,4.38-7.9,11.65-14.4,20.35-16.81,13.92-3.85,28.93,3.28,38.86,13.76,24.63,25.99,23.2,67.88,10.03,101.18-9.36,23.64-24.53,45.98-46.71,58.42-45.43,25.49-86.05-11.22-120.89-37.77l7.06-37.73Z"/>
    <path class="st12" d="M1513.3,225.79c-6.2,2.24-12.32,4.82-18.36,7.76-55.39,26.89-58.01,100.46-53.26,154.46,3.6,41,4.31,83.72,33.14,116.55,28.05,31.94,71.37,38.69,111.31,43.67,27.83,3.47,55.67,6.94,83.5,10.42,21.29,2.66,42.81,5.31,64.08,2.52,21.28-2.79,42.61-11.57,57.44-28.73,44.9-51.96,33.49-106.41,6.34-165.2-50.22-108.72-162.62-185.44-284.18-141.44Z"/>
    <path class="st7" d="M1580.98,307.44c-3.45,9.22-12.15,15.89-22.14,15.39-4.49-.23-8.84-2.96-11.97-5.97-3.53-3.39-4.61-8.06-6.97-12.15-1.49-2.57-5.83-2.22-6.51.85-2.94,13.32,12.48,23.94,24.05,24.77,12.86.92,24.71-10.08,25.39-22.64.06-1.12-1.49-1.18-1.84-.25h0Z"/>
    <path class="st7" d="M1502.52,322.19c-1.21,4.22.36,7.62,3.92,10.07,5.21,3.59,12.48,1.29,17.65-.96,10-4.34,18.85-16.18,15.66-27.35-1.76-6.16-11.12-3.58-9.58,2.64,1.6,6.47-1.18,11.07-5.99,15.29-4.64,4.07-17.09,8.83-20.02.32-.27-.77-1.39-.83-1.63,0h0Z"/>
    <path class="st7" d="M1536.19,298.77c.03-.13.09-.25.2-.34-.37.28-.73.56-1.1.85.67-.15.97-.53,1.39-1.02-.06,0-.12.03-.18.05-.89.28,1.38-.17.92-.11-.22.08-.43.08-.65-.01-.19-.03-1-.8-.46-.25-.1-.13-.21-.26-.31-.39.22.42.18.33-.1-.25.11.36.17,1.19.06-.06-.01.52.02.4.1-.37-.16,1,.56-.95.06-.08.14-.18.28-.36.42-.55-.41.37-.32.31.28-.18-.9.63,1.11-.32.04-.04.87-.09,1.01-.12.43-.1,1.33-.02.7.13.14-.03l.71.29c-.5-.31-.39-.21.33.3.14.19.27.38.41.57-1.12,7.79-4.31,8.71-9.56,2.74.8,3.41,4.62,5.39,7.9,4.49,3.78-1.04,6.22-5.97,3.84-9.43-1.47-2.14-3.37-3.44-6-3.54-1.93-.08-3.91.73-5.29,2.06-1.48,1.41-2.11,3.21-2.17,5.22-.07,2.11,1.09,3.83,2.33,5.39,1.59,1.99,4.93,2.99,7.37,2.7,2.91-.35,6.04-1.7,7.29-4.57,2.16-4.97-.44-10.85-6.18-11.27-2.56-.19-4.7,1.65-5.48,3.94-.3.88-.36,1.83-.22,2.74.17,1.08.9,1.55,1.62,2.05.7.49,1.63-.03,1.86-.76h0Z"/>
    <path class="st7" d="M1550.6,325.81c-1.35,4.84-2.25,18.27-9.9,16.79-6.89-1.34-9.7-11.62-11.58-17.03-.88-2.54-5.1-3.09-5.7,0-1.9,9.88,6.12,25.64,17.51,25.84,5.94.11,10.45-3.4,13.01-8.6,2.89-5.87,1.28-11.85-1.54-17.23-.4-.77-1.58-.56-1.8.24h0Z"/>
    <path class="st7" d="M1503.96,274.33c-1.35-2.1-2.03-3.75-4.29-5.06-2.69-1.56-6.01-1.74-9.01-1.34-6.09.81-12.2,5.47-13.23,11.75-.73,4.43,5.27,6.21,6.78,1.87,1.26-3.62,3.84-5.39,7.43-6.39,2.84-.79,7.9-.59,10.28,1.24,1.22.94,2.82-.85,2.05-2.05h0Z"/>
    <path class="st7" d="M1554.43,269.02c1.49-6.39,11.26-9.68,16.22-5.24,2.95,2.64,7.25-1.57,4.38-4.38-4.11-4-9.7-4.71-15.03-2.92-5.57,1.87-8.68,6.32-9.16,12.05-.18,2.07,3.13,2.47,3.59.49h0Z"/>
    <path class="st16" d="M1615.96,561.48c-1.92,6.27-4.54,13.33-10.66,15.67-11.92-16.71-27.67-43.09-27.9-64.36-.14-13.14,9.68-31.7,27.99-30.79,3.21.16,6.19,1.69,8.9,3.42,31.96,20.36,10.31,47.83,1.67,76.06Z"/>
    <path class="st16" d="M1487.31,317.45c-2.58-1.54-4.68-.38-7.37-.08-2.93.33-5.75.16-8.65.33-4.11.24-7.55,3.25-7.55,7.55,0,4.03,3.43,7.66,7.55,7.55,4.28-.12,9.11-1.89,12.59-4.37,1.63-1.16,3.78-2.61,4.82-4.38,1.25-2.14.83-5.27-1.39-6.59h0Z"/>
    <path class="st16" d="M1596.38,297.86c6.14,1.33,12.8-.02,18.11-3.36,7.18-4.51-.52-14.82-7.16-9.28-3.33,2.78-6.93,4.67-10.95,6.22-2.81,1.08-3.51,5.66,0,6.42h0Z"/>
    <path class="st16" d="M1700.17,555.04c-3.08,10.57,6.72,18.72,40.01,18.22,13.58-.21,26.83-4.78,38.7-11.38,9.03-5.02,18.05-12.19,20.05-22.33,11.65-59.05-90.44-13.01-98.76,15.49Z"/>
  </g>
  <path class="st13" d="M937,281c20.46-11.29,17.83-32.34,28.41-49.7,15.81-.53,30.19,26.12,33.59,39.7l-62,10Z"/>
</svg>